M48
;GenerationSoftware,Autodesk,EAGLE,9.6.2*%
;CreationDate,2023-11-16T06:15:02Z*%
FMAT,2
ICI,OFF
METRIC,TZ,000.000
T3C0.300
T2C0.350
T1C1.016
%
G90
M71
T1
X-12541Y12382
X4445Y6350
X-12541Y17463
X-12541Y14922
T2
X-5239Y16828
X-9208Y16986
X-10636Y16192
X-5239Y15716
X3969Y19368
X10001Y15081
X-9790Y23760
X-159Y20161
X528Y19526
X-910Y20838
X3969Y18415
X10853Y25072
T3
X-3969Y29369
X-3810Y26987
X-6985Y27622
X-5874Y26352
X-8255Y26352
X-2223Y26670
X0Y26987
X2699Y26670
X6985Y26670
X6826Y28734
X5239Y28892
X8731Y27940
X9366Y26035
X318Y24447
X-2223Y24447
X-2223Y22225
X159Y22225
X-9525Y20955
X-1587Y15399
X1270Y15399
X1429Y11747
X-1429Y11747
X10001Y19685
X13811Y18256
X3810Y27781
X0Y6032
X-6985Y8731
X2857Y5556
X159Y8890
X-2223Y13970
X1905Y13970
X-4763Y9049
X-4445Y10001
X5398Y10319
X9684Y12224
X7302Y9366
X5239Y23495
X2857Y21907
X-9366Y22225
X-9366Y25559
X-9366Y24606
X5080Y26670
X3175Y29051
X-2857Y6191
X476Y29051
X14129Y10636
X-2381Y29051
X-10795Y5080
X-4128Y12541
X-5239Y25241
X-5239Y23971
X10795Y17621
X-5239Y19050
X3016Y19368
X0Y13811
X-6985Y29051
X-5080Y11760
X-5080Y10964
X-5398Y20796
X-10001Y19844
X3334Y635
X-476Y5080
X2857Y7779
X5398Y5398
X4445Y11747
M30