G04 EAGLE Gerber RS-274X export*
G75*
%MOMM*%
%FSLAX34Y34*%
%LPD*%
%INBottom Copper*%
%IPPOS*%
%AMOC8*
5,1,8,0,0,1.08239X$1,22.5*%
G01*
%ADD10R,1.399997X0.400000*%
%ADD11P,1.649562X8X112.500000*%
%ADD12R,1.100000X1.000000*%
%ADD13R,1.000000X1.100000*%
%ADD14R,1.300000X1.500000*%
%ADD15R,1.500000X1.300000*%
%ADD16C,1.524000*%
%ADD17C,1.000000*%
%ADD18R,2.700000X1.600000*%
%ADD19R,0.550000X0.297181*%
%ADD20R,0.297181X0.550000*%
%ADD21R,5.600000X5.600000*%
%ADD22C,0.750000*%
%ADD23C,0.304800*%
%ADD24C,0.604800*%
%ADD25C,0.406400*%
%ADD26C,0.254000*%
%ADD27C,0.508000*%
%ADD28C,0.654800*%

G36*
X-61971Y60594D02*
X-61971Y60594D01*
X-61880Y60602D01*
X-61850Y60614D01*
X-61818Y60619D01*
X-61738Y60662D01*
X-61654Y60698D01*
X-61622Y60724D01*
X-61601Y60735D01*
X-61579Y60758D01*
X-61523Y60803D01*
X-26159Y96167D01*
X-26106Y96241D01*
X-26046Y96310D01*
X-26034Y96340D01*
X-26015Y96366D01*
X-25988Y96453D01*
X-25954Y96538D01*
X-25950Y96579D01*
X-25943Y96602D01*
X-25944Y96634D01*
X-25936Y96705D01*
X-25936Y104284D01*
X-25916Y104332D01*
X-25912Y104373D01*
X-25905Y104395D01*
X-25906Y104428D01*
X-25898Y104499D01*
X-25898Y106264D01*
X-24781Y107381D01*
X28383Y107381D01*
X28403Y107384D01*
X28422Y107382D01*
X28524Y107404D01*
X28626Y107420D01*
X28643Y107430D01*
X28663Y107434D01*
X28752Y107487D01*
X28843Y107536D01*
X28857Y107550D01*
X28874Y107560D01*
X28941Y107639D01*
X29013Y107714D01*
X29021Y107732D01*
X29034Y107747D01*
X29073Y107843D01*
X29116Y107937D01*
X29118Y107957D01*
X29126Y107975D01*
X29144Y108142D01*
X29144Y136630D01*
X29130Y136720D01*
X29122Y136811D01*
X29110Y136841D01*
X29105Y136873D01*
X29082Y136915D01*
X29082Y150425D01*
X29092Y150456D01*
X29126Y150541D01*
X29130Y150582D01*
X29137Y150604D01*
X29136Y150636D01*
X29144Y150707D01*
X29144Y164908D01*
X29141Y164928D01*
X29143Y164947D01*
X29121Y165049D01*
X29105Y165151D01*
X29095Y165168D01*
X29091Y165188D01*
X29038Y165277D01*
X28989Y165368D01*
X28975Y165382D01*
X28965Y165399D01*
X28886Y165466D01*
X28811Y165538D01*
X28793Y165546D01*
X28778Y165559D01*
X28682Y165598D01*
X28588Y165641D01*
X28568Y165643D01*
X28550Y165651D01*
X28383Y165669D01*
X-28383Y165669D01*
X-28403Y165666D01*
X-28422Y165668D01*
X-28524Y165646D01*
X-28626Y165630D01*
X-28643Y165620D01*
X-28663Y165616D01*
X-28752Y165563D01*
X-28843Y165514D01*
X-28857Y165500D01*
X-28874Y165490D01*
X-28941Y165411D01*
X-29013Y165336D01*
X-29021Y165318D01*
X-29034Y165303D01*
X-29073Y165207D01*
X-29116Y165113D01*
X-29118Y165093D01*
X-29126Y165075D01*
X-29144Y164908D01*
X-29144Y136751D01*
X-30261Y135634D01*
X-32026Y135634D01*
X-32116Y135620D01*
X-32207Y135612D01*
X-32237Y135600D01*
X-32259Y135596D01*
X-47809Y135596D01*
X-49022Y136809D01*
X-49096Y136862D01*
X-49166Y136922D01*
X-49196Y136934D01*
X-49222Y136953D01*
X-49309Y136980D01*
X-49394Y137014D01*
X-49435Y137018D01*
X-49457Y137025D01*
X-49489Y137024D01*
X-49560Y137032D01*
X-107468Y137032D01*
X-109253Y138818D01*
X-109825Y139390D01*
X-109883Y139431D01*
X-109935Y139481D01*
X-109982Y139503D01*
X-110024Y139533D01*
X-110093Y139554D01*
X-110158Y139584D01*
X-110210Y139590D01*
X-110260Y139605D01*
X-110331Y139604D01*
X-110402Y139611D01*
X-110453Y139600D01*
X-110505Y139599D01*
X-110573Y139574D01*
X-110643Y139559D01*
X-110688Y139532D01*
X-110736Y139515D01*
X-110792Y139470D01*
X-110854Y139433D01*
X-110888Y139393D01*
X-110928Y139361D01*
X-110967Y139301D01*
X-111014Y139246D01*
X-111033Y139198D01*
X-111061Y139154D01*
X-111079Y139085D01*
X-111106Y139018D01*
X-111114Y138947D01*
X-111122Y138915D01*
X-111120Y138892D01*
X-111124Y138851D01*
X-111124Y133622D01*
X-113207Y131539D01*
X-113208Y131539D01*
X-116447Y128300D01*
X-116515Y128205D01*
X-116585Y128111D01*
X-116587Y128105D01*
X-116590Y128100D01*
X-116625Y127988D01*
X-116661Y127877D01*
X-116661Y127871D01*
X-116663Y127865D01*
X-116660Y127748D01*
X-116658Y127631D01*
X-116656Y127624D01*
X-116656Y127619D01*
X-116650Y127601D01*
X-116612Y127470D01*
X-115887Y125720D01*
X-115887Y121930D01*
X-117337Y118429D01*
X-120017Y115749D01*
X-123518Y114299D01*
X-127307Y114299D01*
X-130808Y115749D01*
X-133488Y118429D01*
X-134938Y121930D01*
X-134938Y125720D01*
X-133488Y129221D01*
X-130808Y131901D01*
X-127307Y133351D01*
X-123518Y133351D01*
X-121768Y132626D01*
X-121654Y132599D01*
X-121540Y132571D01*
X-121534Y132571D01*
X-121528Y132570D01*
X-121412Y132581D01*
X-121295Y132590D01*
X-121289Y132592D01*
X-121283Y132593D01*
X-121176Y132641D01*
X-121069Y132686D01*
X-121063Y132691D01*
X-121058Y132693D01*
X-121045Y132705D01*
X-120938Y132791D01*
X-117699Y136030D01*
X-117646Y136104D01*
X-117586Y136173D01*
X-117574Y136204D01*
X-117555Y136230D01*
X-117528Y136317D01*
X-117494Y136402D01*
X-117490Y136442D01*
X-117483Y136465D01*
X-117484Y136497D01*
X-117476Y136568D01*
X-117476Y141853D01*
X-117487Y141923D01*
X-117489Y141995D01*
X-117507Y142044D01*
X-117515Y142095D01*
X-117549Y142159D01*
X-117574Y142226D01*
X-117606Y142267D01*
X-117631Y142313D01*
X-117683Y142362D01*
X-117727Y142418D01*
X-117771Y142446D01*
X-117809Y142482D01*
X-117874Y142512D01*
X-117934Y142551D01*
X-117985Y142564D01*
X-118032Y142586D01*
X-118103Y142594D01*
X-118173Y142611D01*
X-118225Y142607D01*
X-118276Y142613D01*
X-118347Y142598D01*
X-118418Y142592D01*
X-118466Y142572D01*
X-118517Y142561D01*
X-118578Y142524D01*
X-118644Y142496D01*
X-118700Y142451D01*
X-118728Y142434D01*
X-118743Y142417D01*
X-118775Y142391D01*
X-120017Y141149D01*
X-123518Y139699D01*
X-127307Y139699D01*
X-130808Y141149D01*
X-133488Y143829D01*
X-134938Y147330D01*
X-134938Y151120D01*
X-133488Y154621D01*
X-130808Y157301D01*
X-130328Y157499D01*
X-130229Y157561D01*
X-130129Y157621D01*
X-130124Y157626D01*
X-130119Y157629D01*
X-130045Y157719D01*
X-129969Y157808D01*
X-129966Y157814D01*
X-129962Y157819D01*
X-129921Y157927D01*
X-129877Y158036D01*
X-129876Y158044D01*
X-129874Y158048D01*
X-129873Y158066D01*
X-129858Y158203D01*
X-129858Y165647D01*
X-129877Y165762D01*
X-129894Y165878D01*
X-129897Y165884D01*
X-129898Y165890D01*
X-129953Y165993D01*
X-130006Y166097D01*
X-130010Y166102D01*
X-130013Y166107D01*
X-130098Y166188D01*
X-130181Y166270D01*
X-130188Y166273D01*
X-130191Y166277D01*
X-130208Y166285D01*
X-130328Y166351D01*
X-130808Y166549D01*
X-133488Y169229D01*
X-134938Y172730D01*
X-134938Y176520D01*
X-133488Y180021D01*
X-130808Y182701D01*
X-127307Y184151D01*
X-123518Y184151D01*
X-121767Y183426D01*
X-121654Y183399D01*
X-121540Y183371D01*
X-121534Y183371D01*
X-121528Y183370D01*
X-121411Y183381D01*
X-121295Y183390D01*
X-121289Y183392D01*
X-121283Y183393D01*
X-121176Y183441D01*
X-121069Y183486D01*
X-121063Y183491D01*
X-121058Y183493D01*
X-121045Y183505D01*
X-120938Y183591D01*
X-118790Y185738D01*
X-79042Y185738D01*
X-79022Y185741D01*
X-79003Y185739D01*
X-78901Y185761D01*
X-78799Y185778D01*
X-78782Y185787D01*
X-78762Y185792D01*
X-78673Y185845D01*
X-78582Y185893D01*
X-78568Y185907D01*
X-78551Y185918D01*
X-78484Y185996D01*
X-78412Y186071D01*
X-78404Y186089D01*
X-78391Y186105D01*
X-78352Y186201D01*
X-78309Y186294D01*
X-78307Y186314D01*
X-78299Y186333D01*
X-78281Y186499D01*
X-78281Y193114D01*
X-77164Y194231D01*
X-64586Y194231D01*
X-63469Y193114D01*
X-63469Y186499D01*
X-63466Y186480D01*
X-63468Y186460D01*
X-63446Y186359D01*
X-63430Y186257D01*
X-63420Y186239D01*
X-63416Y186220D01*
X-63363Y186131D01*
X-63314Y186039D01*
X-63300Y186026D01*
X-63290Y186009D01*
X-63211Y185941D01*
X-63136Y185870D01*
X-63118Y185862D01*
X-63103Y185849D01*
X-63007Y185810D01*
X-62913Y185766D01*
X-62893Y185764D01*
X-62875Y185757D01*
X-62708Y185738D01*
X-56435Y185738D01*
X-56365Y185750D01*
X-56293Y185752D01*
X-56244Y185770D01*
X-56192Y185778D01*
X-56129Y185812D01*
X-56062Y185836D01*
X-56021Y185869D01*
X-55975Y185893D01*
X-55926Y185945D01*
X-55870Y185990D01*
X-55842Y186034D01*
X-55806Y186071D01*
X-55776Y186136D01*
X-55737Y186197D01*
X-55724Y186247D01*
X-55702Y186294D01*
X-55694Y186366D01*
X-55677Y186435D01*
X-55681Y186487D01*
X-55675Y186539D01*
X-55690Y186609D01*
X-55696Y186680D01*
X-55716Y186728D01*
X-55727Y186779D01*
X-55764Y186841D01*
X-55792Y186907D01*
X-55837Y186963D01*
X-55853Y186990D01*
X-55871Y187006D01*
X-55897Y187038D01*
X-57317Y188458D01*
X-57317Y192542D01*
X-54429Y195430D01*
X-50346Y195430D01*
X-48814Y193899D01*
X-48741Y193846D01*
X-48671Y193786D01*
X-48641Y193774D01*
X-48615Y193755D01*
X-48528Y193728D01*
X-48443Y193694D01*
X-48402Y193690D01*
X-48380Y193683D01*
X-48347Y193684D01*
X-48276Y193676D01*
X-46367Y193676D01*
X-27895Y175204D01*
X-27821Y175151D01*
X-27751Y175091D01*
X-27721Y175079D01*
X-27695Y175060D01*
X-27608Y175033D01*
X-27523Y174999D01*
X-27482Y174995D01*
X-27460Y174988D01*
X-27428Y174989D01*
X-27426Y174988D01*
X-27421Y174988D01*
X-27356Y174981D01*
X-27322Y174981D01*
X-27251Y174992D01*
X-27180Y174994D01*
X-27131Y175012D01*
X-27079Y175020D01*
X-27016Y175054D01*
X-26949Y175079D01*
X-26908Y175111D01*
X-26862Y175136D01*
X-26813Y175188D01*
X-26757Y175232D01*
X-26729Y175276D01*
X-26693Y175314D01*
X-26663Y175379D01*
X-26624Y175439D01*
X-26611Y175490D01*
X-26589Y175537D01*
X-26581Y175608D01*
X-26564Y175678D01*
X-26568Y175730D01*
X-26562Y175781D01*
X-26577Y175852D01*
X-26583Y175923D01*
X-26603Y175971D01*
X-26614Y176022D01*
X-26651Y176083D01*
X-26679Y176149D01*
X-26724Y176205D01*
X-26740Y176233D01*
X-26758Y176248D01*
X-26784Y176280D01*
X-53313Y202810D01*
X-53387Y202863D01*
X-53457Y202922D01*
X-53487Y202935D01*
X-53513Y202953D01*
X-53600Y202980D01*
X-53685Y203014D01*
X-53726Y203019D01*
X-53748Y203026D01*
X-53780Y203025D01*
X-53852Y203033D01*
X-56017Y203033D01*
X-58905Y205921D01*
X-58905Y210004D01*
X-56017Y212892D01*
X-54480Y212892D01*
X-54410Y212904D01*
X-54338Y212906D01*
X-54289Y212924D01*
X-54238Y212932D01*
X-54174Y212966D01*
X-54107Y212990D01*
X-54066Y213023D01*
X-54020Y213047D01*
X-53971Y213099D01*
X-53915Y213144D01*
X-53887Y213188D01*
X-53851Y213225D01*
X-53821Y213290D01*
X-53782Y213351D01*
X-53769Y213401D01*
X-53747Y213448D01*
X-53739Y213520D01*
X-53722Y213589D01*
X-53726Y213641D01*
X-53720Y213693D01*
X-53735Y213763D01*
X-53741Y213834D01*
X-53761Y213882D01*
X-53772Y213933D01*
X-53809Y213995D01*
X-53837Y214061D01*
X-53882Y214117D01*
X-53899Y214144D01*
X-53916Y214160D01*
X-53942Y214192D01*
X-66285Y226535D01*
X-66359Y226588D01*
X-66429Y226647D01*
X-66459Y226660D01*
X-66485Y226678D01*
X-66572Y226705D01*
X-66657Y226739D01*
X-66698Y226744D01*
X-66720Y226751D01*
X-66752Y226750D01*
X-66823Y226758D01*
X-99696Y226758D01*
X-99809Y226739D01*
X-99922Y226723D01*
X-99930Y226719D01*
X-99939Y226718D01*
X-100040Y226665D01*
X-100142Y226613D01*
X-100149Y226607D01*
X-100156Y226603D01*
X-100235Y226520D01*
X-100316Y226439D01*
X-100320Y226431D01*
X-100326Y226425D01*
X-100374Y226321D01*
X-100424Y226218D01*
X-100426Y226208D01*
X-100429Y226202D01*
X-100432Y226179D01*
X-100455Y226053D01*
X-100468Y225879D01*
X-100465Y225846D01*
X-100468Y225765D01*
X-100411Y225002D01*
X-100424Y224988D01*
X-100463Y224909D01*
X-100510Y224833D01*
X-100517Y224799D01*
X-100533Y224768D01*
X-100563Y224603D01*
X-100709Y222655D01*
X-100706Y222620D01*
X-100711Y222586D01*
X-100695Y222498D01*
X-100687Y222410D01*
X-100673Y222378D01*
X-100667Y222344D01*
X-100617Y222240D01*
X-100787Y221492D01*
X-100789Y221459D01*
X-100804Y221379D01*
X-100861Y220616D01*
X-100876Y220604D01*
X-100927Y220531D01*
X-100984Y220463D01*
X-100997Y220431D01*
X-101016Y220402D01*
X-101071Y220244D01*
X-101506Y218339D01*
X-101508Y218305D01*
X-101518Y218272D01*
X-101515Y218183D01*
X-101521Y218094D01*
X-101512Y218061D01*
X-101511Y218026D01*
X-101476Y217915D01*
X-101756Y217201D01*
X-101763Y217168D01*
X-101790Y217092D01*
X-101960Y216346D01*
X-101976Y216337D01*
X-102038Y216272D01*
X-102104Y216213D01*
X-102121Y216183D01*
X-102145Y216158D01*
X-102223Y216010D01*
X-102936Y214191D01*
X-102942Y214166D01*
X-102944Y214161D01*
X-102945Y214155D01*
X-102959Y214126D01*
X-102969Y214038D01*
X-102988Y213950D01*
X-102984Y213916D01*
X-102988Y213882D01*
X-102971Y213767D01*
X-103354Y213102D01*
X-103366Y213071D01*
X-103404Y213000D01*
X-103683Y212287D01*
X-103701Y212281D01*
X-103771Y212226D01*
X-103845Y212178D01*
X-103867Y212151D01*
X-103894Y212129D01*
X-103994Y211994D01*
X-104970Y210302D01*
X-104982Y210270D01*
X-105001Y210241D01*
X-105025Y210155D01*
X-105057Y210072D01*
X-105058Y210037D01*
X-105067Y210004D01*
X-105067Y209888D01*
X-105545Y209288D01*
X-105561Y209259D01*
X-105609Y209194D01*
X-105992Y208531D01*
X-106010Y208527D01*
X-106087Y208483D01*
X-106168Y208447D01*
X-106194Y208423D01*
X-106224Y208406D01*
X-106342Y208287D01*
X-107560Y206760D01*
X-107577Y206729D01*
X-107600Y206704D01*
X-107637Y206623D01*
X-107680Y206545D01*
X-107686Y206511D01*
X-107701Y206479D01*
X-107718Y206364D01*
X-108280Y205842D01*
X-108300Y205816D01*
X-108357Y205759D01*
X-108834Y205160D01*
X-108853Y205160D01*
X-108936Y205128D01*
X-109022Y205104D01*
X-109050Y205084D01*
X-109083Y205072D01*
X-109218Y204972D01*
X-110649Y203643D01*
X-110670Y203615D01*
X-110697Y203594D01*
X-110745Y203519D01*
X-110800Y203448D01*
X-110811Y203416D01*
X-110830Y203387D01*
X-110864Y203276D01*
X-111498Y202843D01*
X-111522Y202821D01*
X-111587Y202772D01*
X-112148Y202251D01*
X-112166Y202253D01*
X-112253Y202234D01*
X-112342Y202223D01*
X-112373Y202208D01*
X-112407Y202201D01*
X-112555Y202122D01*
X-114168Y201021D01*
X-114193Y200997D01*
X-114223Y200980D01*
X-114282Y200913D01*
X-114346Y200852D01*
X-114363Y200821D01*
X-114385Y200795D01*
X-114436Y200690D01*
X-115127Y200357D01*
X-115154Y200338D01*
X-115225Y200300D01*
X-115858Y199869D01*
X-115876Y199874D01*
X-115964Y199868D01*
X-116053Y199870D01*
X-116086Y199860D01*
X-116121Y199857D01*
X-116279Y199802D01*
X-118039Y198953D01*
X-118067Y198934D01*
X-118100Y198921D01*
X-118168Y198863D01*
X-118240Y198812D01*
X-118261Y198784D01*
X-118287Y198762D01*
X-118353Y198666D01*
X-119086Y198440D01*
X-119115Y198425D01*
X-119192Y198398D01*
X-119881Y198066D01*
X-119898Y198073D01*
X-119987Y198080D01*
X-120075Y198096D01*
X-120109Y198091D01*
X-120143Y198094D01*
X-120308Y198062D01*
X-122175Y197486D01*
X-122206Y197470D01*
X-122239Y197462D01*
X-122315Y197416D01*
X-122395Y197376D01*
X-122419Y197351D01*
X-122449Y197333D01*
X-122528Y197248D01*
X-123286Y197133D01*
X-123317Y197123D01*
X-123397Y197108D01*
X-124128Y196882D01*
X-124144Y196892D01*
X-124231Y196913D01*
X-124315Y196941D01*
X-124350Y196941D01*
X-124384Y196949D01*
X-124551Y196942D01*
X-126483Y196651D01*
X-126516Y196640D01*
X-126550Y196637D01*
X-126632Y196602D01*
X-126717Y196575D01*
X-126745Y196554D01*
X-126777Y196541D01*
X-126867Y196468D01*
X-127634Y196468D01*
X-127667Y196463D01*
X-127748Y196459D01*
X-128505Y196345D01*
X-128519Y196357D01*
X-128602Y196391D01*
X-128681Y196431D01*
X-128715Y196436D01*
X-128747Y196449D01*
X-128914Y196468D01*
X-130867Y196467D01*
X-130901Y196461D01*
X-130936Y196464D01*
X-131022Y196442D01*
X-131110Y196427D01*
X-131141Y196411D01*
X-131174Y196402D01*
X-131275Y196344D01*
X-132033Y196458D01*
X-132066Y196458D01*
X-132147Y196467D01*
X-132912Y196466D01*
X-132924Y196481D01*
X-133001Y196526D01*
X-133073Y196578D01*
X-133106Y196588D01*
X-133136Y196605D01*
X-133298Y196648D01*
X-135230Y196939D01*
X-135265Y196939D01*
X-135299Y196946D01*
X-135387Y196937D01*
X-135476Y196936D01*
X-135509Y196924D01*
X-135543Y196921D01*
X-135651Y196878D01*
X-136384Y197104D01*
X-136417Y197108D01*
X-136495Y197129D01*
X-137252Y197243D01*
X-137262Y197259D01*
X-137331Y197315D01*
X-137395Y197377D01*
X-137426Y197392D01*
X-137453Y197414D01*
X-137607Y197481D01*
X-139474Y198056D01*
X-139508Y198061D01*
X-139541Y198073D01*
X-139630Y198077D01*
X-139718Y198089D01*
X-139752Y198083D01*
X-139786Y198084D01*
X-139900Y198058D01*
X-140591Y198391D01*
X-140623Y198400D01*
X-140697Y198433D01*
X-141428Y198658D01*
X-141436Y198675D01*
X-141496Y198741D01*
X-141550Y198812D01*
X-141578Y198831D01*
X-141602Y198857D01*
X-141744Y198946D01*
X-143295Y199692D01*
X-143405Y199725D01*
X-143514Y199760D01*
X-143523Y199759D01*
X-143531Y199762D01*
X-143645Y199758D01*
X-143760Y199756D01*
X-143768Y199753D01*
X-143777Y199752D01*
X-143884Y199712D01*
X-143992Y199674D01*
X-143999Y199668D01*
X-144007Y199665D01*
X-144096Y199593D01*
X-144185Y199522D01*
X-144192Y199514D01*
X-144197Y199509D01*
X-144210Y199489D01*
X-144285Y199387D01*
X-162808Y167303D01*
X-163416Y167723D01*
X-163443Y167735D01*
X-163465Y167753D01*
X-163534Y167774D01*
X-163599Y167801D01*
X-163628Y167802D01*
X-163656Y167810D01*
X-163727Y167802D01*
X-163798Y167802D01*
X-163825Y167791D01*
X-163854Y167788D01*
X-163916Y167753D01*
X-163981Y167725D01*
X-164002Y167704D01*
X-164027Y167690D01*
X-164090Y167613D01*
X-164120Y167582D01*
X-164124Y167572D01*
X-164133Y167562D01*
X-173633Y151062D01*
X-173657Y150989D01*
X-173688Y150918D01*
X-173688Y150895D01*
X-173696Y150873D01*
X-173690Y150796D01*
X-173691Y150719D01*
X-173681Y150695D01*
X-173680Y150675D01*
X-173659Y150635D01*
X-173640Y150583D01*
X-173639Y150578D01*
X-173637Y150576D01*
X-173633Y150563D01*
X-164133Y134063D01*
X-164114Y134042D01*
X-164101Y134015D01*
X-164048Y133968D01*
X-164001Y133914D01*
X-163975Y133902D01*
X-163954Y133882D01*
X-163886Y133859D01*
X-163822Y133828D01*
X-163793Y133827D01*
X-163766Y133818D01*
X-163694Y133822D01*
X-163623Y133819D01*
X-163596Y133829D01*
X-163567Y133831D01*
X-163477Y133874D01*
X-163437Y133888D01*
X-163429Y133896D01*
X-163416Y133902D01*
X-162808Y134322D01*
X-144285Y102238D01*
X-144212Y102149D01*
X-144142Y102059D01*
X-144135Y102054D01*
X-144129Y102048D01*
X-144032Y101987D01*
X-143937Y101924D01*
X-143928Y101922D01*
X-143921Y101917D01*
X-143809Y101890D01*
X-143699Y101861D01*
X-143690Y101861D01*
X-143682Y101859D01*
X-143568Y101869D01*
X-143454Y101877D01*
X-143444Y101880D01*
X-143437Y101881D01*
X-143415Y101890D01*
X-143295Y101933D01*
X-141744Y102679D01*
X-141715Y102699D01*
X-141683Y102712D01*
X-141615Y102769D01*
X-141542Y102820D01*
X-141522Y102848D01*
X-141495Y102871D01*
X-141430Y102967D01*
X-140697Y103192D01*
X-140667Y103207D01*
X-140591Y103234D01*
X-139901Y103566D01*
X-139884Y103558D01*
X-139795Y103551D01*
X-139708Y103535D01*
X-139673Y103541D01*
X-139639Y103538D01*
X-139474Y103569D01*
X-137607Y104144D01*
X-137576Y104160D01*
X-137542Y104168D01*
X-137467Y104214D01*
X-137387Y104254D01*
X-137362Y104278D01*
X-137333Y104296D01*
X-137254Y104382D01*
X-136495Y104496D01*
X-136464Y104506D01*
X-136384Y104521D01*
X-135653Y104746D01*
X-135637Y104737D01*
X-135551Y104716D01*
X-135466Y104688D01*
X-135432Y104688D01*
X-135398Y104680D01*
X-135230Y104686D01*
X-133298Y104977D01*
X-133266Y104987D01*
X-133231Y104990D01*
X-133149Y105025D01*
X-133064Y105052D01*
X-133037Y105073D01*
X-133005Y105086D01*
X-132914Y105159D01*
X-132147Y105158D01*
X-132114Y105164D01*
X-132033Y105167D01*
X-131276Y105281D01*
X-131262Y105269D01*
X-131179Y105235D01*
X-131100Y105195D01*
X-131066Y105190D01*
X-131034Y105177D01*
X-130867Y105158D01*
X-128914Y105157D01*
X-128880Y105163D01*
X-128845Y105160D01*
X-128759Y105183D01*
X-128671Y105197D01*
X-128641Y105213D01*
X-128607Y105222D01*
X-128506Y105280D01*
X-127748Y105165D01*
X-127715Y105166D01*
X-127634Y105157D01*
X-126869Y105157D01*
X-126857Y105143D01*
X-126780Y105097D01*
X-126708Y105045D01*
X-126675Y105035D01*
X-126645Y105018D01*
X-126483Y104974D01*
X-124551Y104683D01*
X-124517Y104683D01*
X-124483Y104675D01*
X-124394Y104685D01*
X-124305Y104686D01*
X-124272Y104697D01*
X-124238Y104701D01*
X-124130Y104743D01*
X-123397Y104517D01*
X-123364Y104512D01*
X-123286Y104492D01*
X-122529Y104377D01*
X-122519Y104361D01*
X-122450Y104305D01*
X-122387Y104243D01*
X-122355Y104228D01*
X-122328Y104206D01*
X-122175Y104139D01*
X-120308Y103563D01*
X-120274Y103558D01*
X-120241Y103546D01*
X-120152Y103541D01*
X-120064Y103529D01*
X-120030Y103536D01*
X-119996Y103534D01*
X-119883Y103560D01*
X-119192Y103227D01*
X-119160Y103218D01*
X-119086Y103185D01*
X-118354Y102960D01*
X-118347Y102942D01*
X-118287Y102877D01*
X-118233Y102806D01*
X-118204Y102786D01*
X-118181Y102761D01*
X-118039Y102672D01*
X-116279Y101823D01*
X-116246Y101814D01*
X-116216Y101796D01*
X-116129Y101779D01*
X-116043Y101754D01*
X-116009Y101755D01*
X-115975Y101748D01*
X-115859Y101757D01*
X-115225Y101325D01*
X-115195Y101311D01*
X-115127Y101268D01*
X-114437Y100936D01*
X-114432Y100918D01*
X-114383Y100843D01*
X-114340Y100765D01*
X-114315Y100742D01*
X-114296Y100713D01*
X-114168Y100604D01*
X-112555Y99503D01*
X-112523Y99488D01*
X-112496Y99467D01*
X-112412Y99437D01*
X-112332Y99399D01*
X-112297Y99395D01*
X-112265Y99383D01*
X-112149Y99375D01*
X-111587Y98853D01*
X-111559Y98834D01*
X-111498Y98782D01*
X-110865Y98350D01*
X-110863Y98332D01*
X-110826Y98251D01*
X-110795Y98168D01*
X-110773Y98141D01*
X-110759Y98109D01*
X-110649Y97982D01*
X-109218Y96653D01*
X-109189Y96634D01*
X-109165Y96609D01*
X-109087Y96566D01*
X-109013Y96517D01*
X-108979Y96508D01*
X-108949Y96492D01*
X-108835Y96466D01*
X-108357Y95866D01*
X-108333Y95844D01*
X-108280Y95783D01*
X-107719Y95262D01*
X-107720Y95243D01*
X-107694Y95158D01*
X-107677Y95071D01*
X-107659Y95041D01*
X-107649Y95007D01*
X-107560Y94865D01*
X-106342Y93338D01*
X-106317Y93314D01*
X-106297Y93286D01*
X-106226Y93232D01*
X-106160Y93173D01*
X-106128Y93159D01*
X-106101Y93138D01*
X-105992Y93096D01*
X-105609Y92431D01*
X-105588Y92406D01*
X-105545Y92337D01*
X-105068Y91739D01*
X-105071Y91720D01*
X-105059Y91632D01*
X-105055Y91543D01*
X-105042Y91511D01*
X-105037Y91477D01*
X-104970Y91323D01*
X-103994Y89631D01*
X-103972Y89604D01*
X-103956Y89573D01*
X-103894Y89509D01*
X-103838Y89441D01*
X-103808Y89422D01*
X-103784Y89397D01*
X-103684Y89339D01*
X-103403Y88625D01*
X-103387Y88597D01*
X-103354Y88523D01*
X-102972Y87860D01*
X-102978Y87842D01*
X-102979Y87753D01*
X-102987Y87664D01*
X-102980Y87631D01*
X-102980Y87596D01*
X-102936Y87434D01*
X-102223Y85615D01*
X-102206Y85586D01*
X-102195Y85553D01*
X-102143Y85480D01*
X-102098Y85404D01*
X-102071Y85381D01*
X-102051Y85353D01*
X-101960Y85281D01*
X-101790Y84533D01*
X-101777Y84502D01*
X-101756Y84424D01*
X-101477Y83712D01*
X-101486Y83695D01*
X-101500Y83607D01*
X-101522Y83521D01*
X-101519Y83486D01*
X-101525Y83452D01*
X-101506Y83286D01*
X-101071Y81381D01*
X-101058Y81349D01*
X-101053Y81315D01*
X-101012Y81236D01*
X-100979Y81153D01*
X-100956Y81127D01*
X-100940Y81096D01*
X-100861Y81011D01*
X-100804Y80246D01*
X-100796Y80214D01*
X-100787Y80133D01*
X-100617Y79387D01*
X-100628Y79372D01*
X-100655Y79287D01*
X-100690Y79205D01*
X-100692Y79171D01*
X-100703Y79138D01*
X-100709Y78970D01*
X-100563Y77022D01*
X-100555Y76988D01*
X-100555Y76954D01*
X-100527Y76869D01*
X-100506Y76783D01*
X-100487Y76754D01*
X-100476Y76721D01*
X-100411Y76625D01*
X-100468Y75860D01*
X-100465Y75827D01*
X-100468Y75746D01*
X-100411Y74983D01*
X-100424Y74970D01*
X-100464Y74890D01*
X-100510Y74814D01*
X-100518Y74780D01*
X-100533Y74749D01*
X-100564Y74584D01*
X-100711Y72636D01*
X-100708Y72602D01*
X-100713Y72567D01*
X-100697Y72480D01*
X-100689Y72391D01*
X-100676Y72359D01*
X-100669Y72325D01*
X-100619Y72221D01*
X-100790Y71473D01*
X-100792Y71440D01*
X-100807Y71360D01*
X-100864Y70597D01*
X-100879Y70586D01*
X-100930Y70513D01*
X-100932Y70510D01*
X-100935Y70508D01*
X-100935Y70507D01*
X-100987Y70445D01*
X-101000Y70412D01*
X-101020Y70384D01*
X-101075Y70226D01*
X-101510Y68321D01*
X-101512Y68287D01*
X-101523Y68253D01*
X-101520Y68164D01*
X-101526Y68076D01*
X-101517Y68042D01*
X-101516Y68008D01*
X-101481Y67897D01*
X-101762Y67183D01*
X-101769Y67151D01*
X-101795Y67074D01*
X-101966Y66328D01*
X-101982Y66319D01*
X-102044Y66254D01*
X-102110Y66195D01*
X-102128Y66165D01*
X-102151Y66140D01*
X-102230Y65992D01*
X-102944Y64174D01*
X-102951Y64140D01*
X-102966Y64109D01*
X-102977Y64020D01*
X-102996Y63933D01*
X-102992Y63899D01*
X-102996Y63864D01*
X-102971Y63699D01*
X-102961Y63662D01*
X-102961Y63660D01*
X-102972Y63617D01*
X-102966Y63537D01*
X-102968Y63458D01*
X-102956Y63415D01*
X-102953Y63372D01*
X-102921Y63298D01*
X-102899Y63222D01*
X-102874Y63186D01*
X-102856Y63145D01*
X-102766Y63032D01*
X-102758Y63021D01*
X-102755Y63018D01*
X-102751Y63014D01*
X-100540Y60803D01*
X-100466Y60750D01*
X-100396Y60690D01*
X-100366Y60678D01*
X-100340Y60659D01*
X-100253Y60632D01*
X-100168Y60598D01*
X-100127Y60594D01*
X-100105Y60587D01*
X-100073Y60588D01*
X-100002Y60580D01*
X-62061Y60580D01*
X-61971Y60594D01*
G37*
G36*
X-13205Y190577D02*
X-13205Y190577D01*
X-13153Y190579D01*
X-13085Y190603D01*
X-13015Y190619D01*
X-12971Y190645D01*
X-12922Y190663D01*
X-12866Y190708D01*
X-12804Y190745D01*
X-12770Y190784D01*
X-12730Y190817D01*
X-12691Y190877D01*
X-12644Y190932D01*
X-12625Y190980D01*
X-12597Y191024D01*
X-12579Y191093D01*
X-12552Y191160D01*
X-12544Y191231D01*
X-12537Y191262D01*
X-12538Y191286D01*
X-12534Y191327D01*
X-12534Y204173D01*
X-12549Y204263D01*
X-12556Y204354D01*
X-12568Y204383D01*
X-12574Y204415D01*
X-12616Y204496D01*
X-12652Y204580D01*
X-12678Y204612D01*
X-12689Y204633D01*
X-12712Y204655D01*
X-12757Y204711D01*
X-14284Y206238D01*
X-14284Y210529D01*
X-11250Y213563D01*
X-6959Y213563D01*
X-3924Y210529D01*
X-3924Y207553D01*
X-3921Y207534D01*
X-3923Y207514D01*
X-3901Y207413D01*
X-3885Y207311D01*
X-3875Y207293D01*
X-3871Y207274D01*
X-3818Y207185D01*
X-3770Y207093D01*
X-3755Y207080D01*
X-3745Y207063D01*
X-3666Y206995D01*
X-3591Y206924D01*
X-3573Y206916D01*
X-3558Y206903D01*
X-3462Y206864D01*
X-3368Y206820D01*
X-3348Y206818D01*
X-3330Y206811D01*
X-3163Y206792D01*
X558Y206792D01*
X3592Y203758D01*
X3592Y201203D01*
X3595Y201184D01*
X3593Y201164D01*
X3615Y201063D01*
X3632Y200961D01*
X3641Y200943D01*
X3646Y200924D01*
X3699Y200835D01*
X3747Y200743D01*
X3761Y200730D01*
X3772Y200713D01*
X3850Y200645D01*
X3925Y200574D01*
X3943Y200566D01*
X3959Y200553D01*
X4055Y200514D01*
X4148Y200470D01*
X4168Y200468D01*
X4187Y200461D01*
X4353Y200442D01*
X7424Y200442D01*
X7774Y200092D01*
X7832Y200050D01*
X7884Y200001D01*
X7931Y199979D01*
X7973Y199948D01*
X8042Y199927D01*
X8107Y199897D01*
X8159Y199891D01*
X8209Y199876D01*
X8280Y199878D01*
X8351Y199870D01*
X8402Y199881D01*
X8454Y199882D01*
X8522Y199907D01*
X8592Y199922D01*
X8637Y199949D01*
X8685Y199967D01*
X8741Y200012D01*
X8803Y200049D01*
X8837Y200088D01*
X8877Y200121D01*
X8916Y200181D01*
X8963Y200235D01*
X8982Y200284D01*
X9010Y200328D01*
X9028Y200397D01*
X9055Y200464D01*
X9063Y200535D01*
X9071Y200566D01*
X9069Y200589D01*
X9073Y200630D01*
X9073Y231411D01*
X31917Y254255D01*
X104421Y254255D01*
X104511Y254269D01*
X104602Y254277D01*
X104632Y254289D01*
X104664Y254294D01*
X104744Y254337D01*
X104828Y254373D01*
X104860Y254399D01*
X104881Y254410D01*
X104903Y254433D01*
X104959Y254478D01*
X106382Y255900D01*
X110339Y255900D01*
X110433Y255916D01*
X110528Y255924D01*
X110554Y255935D01*
X110582Y255940D01*
X110666Y255984D01*
X110754Y256023D01*
X110775Y256042D01*
X110800Y256055D01*
X110865Y256124D01*
X110936Y256188D01*
X110950Y256213D01*
X110969Y256233D01*
X111009Y256320D01*
X111055Y256403D01*
X111061Y256431D01*
X111073Y256456D01*
X111083Y256551D01*
X111100Y256645D01*
X111097Y256673D01*
X111100Y256701D01*
X111079Y256794D01*
X111066Y256888D01*
X111052Y256921D01*
X111047Y256941D01*
X111031Y256969D01*
X110999Y257042D01*
X86384Y299677D01*
X86341Y299730D01*
X86307Y299787D01*
X86264Y299824D01*
X86228Y299867D01*
X86171Y299903D01*
X86120Y299947D01*
X86067Y299968D01*
X86020Y299998D01*
X85954Y300014D01*
X85891Y300039D01*
X85813Y300048D01*
X85781Y300056D01*
X85760Y300054D01*
X85725Y300058D01*
X-85725Y300058D01*
X-85791Y300047D01*
X-85859Y300046D01*
X-85912Y300027D01*
X-85967Y300018D01*
X-86027Y299986D01*
X-86091Y299964D01*
X-86135Y299929D01*
X-86185Y299903D01*
X-86231Y299854D01*
X-86285Y299812D01*
X-86332Y299748D01*
X-86354Y299725D01*
X-86363Y299706D01*
X-86384Y299677D01*
X-114208Y251483D01*
X-114249Y251375D01*
X-114292Y251270D01*
X-114292Y251261D01*
X-114295Y251253D01*
X-114299Y251139D01*
X-114306Y251024D01*
X-114304Y251016D01*
X-114304Y251007D01*
X-114272Y250897D01*
X-114242Y250787D01*
X-114237Y250779D01*
X-114234Y250771D01*
X-114168Y250677D01*
X-114105Y250582D01*
X-114097Y250575D01*
X-114093Y250570D01*
X-114074Y250556D01*
X-113978Y250473D01*
X-112570Y249514D01*
X-112538Y249499D01*
X-112511Y249478D01*
X-112427Y249448D01*
X-112347Y249410D01*
X-112312Y249406D01*
X-112280Y249395D01*
X-112164Y249386D01*
X-111601Y248864D01*
X-111574Y248846D01*
X-111512Y248794D01*
X-110880Y248363D01*
X-110878Y248344D01*
X-110840Y248264D01*
X-110809Y248180D01*
X-110788Y248153D01*
X-110773Y248121D01*
X-110663Y247995D01*
X-109231Y246666D01*
X-109202Y246647D01*
X-109178Y246622D01*
X-109100Y246580D01*
X-109026Y246530D01*
X-108992Y246521D01*
X-108962Y246505D01*
X-108849Y246479D01*
X-108370Y245880D01*
X-108346Y245858D01*
X-108293Y245796D01*
X-107731Y245276D01*
X-107732Y245257D01*
X-107707Y245172D01*
X-107689Y245085D01*
X-107672Y245055D01*
X-107662Y245022D01*
X-107572Y244880D01*
X-106354Y243353D01*
X-106328Y243330D01*
X-106308Y243301D01*
X-106237Y243248D01*
X-106171Y243188D01*
X-106139Y243174D01*
X-106112Y243153D01*
X-106004Y243111D01*
X-105620Y242447D01*
X-105599Y242421D01*
X-105556Y242353D01*
X-105078Y241755D01*
X-105082Y241736D01*
X-105069Y241648D01*
X-105065Y241559D01*
X-105052Y241527D01*
X-105047Y241493D01*
X-104980Y241339D01*
X-104777Y240988D01*
X-104702Y240896D01*
X-104627Y240803D01*
X-104624Y240801D01*
X-104621Y240798D01*
X-104521Y240735D01*
X-104421Y240670D01*
X-104416Y240669D01*
X-104413Y240667D01*
X-104297Y240639D01*
X-104182Y240610D01*
X-104178Y240611D01*
X-104174Y240610D01*
X-104054Y240620D01*
X-103937Y240629D01*
X-103933Y240631D01*
X-103929Y240631D01*
X-103819Y240680D01*
X-103710Y240726D01*
X-103707Y240729D01*
X-103703Y240730D01*
X-103693Y240740D01*
X-103579Y240831D01*
X-101631Y242779D01*
X-97340Y242779D01*
X-95813Y241252D01*
X-95739Y241199D01*
X-95669Y241140D01*
X-95639Y241127D01*
X-95613Y241109D01*
X-95526Y241082D01*
X-95441Y241048D01*
X-95400Y241043D01*
X-95378Y241036D01*
X-95346Y241037D01*
X-95274Y241029D01*
X-64074Y241029D01*
X-13833Y190788D01*
X-13775Y190747D01*
X-13723Y190697D01*
X-13676Y190675D01*
X-13634Y190645D01*
X-13565Y190624D01*
X-13500Y190594D01*
X-13448Y190588D01*
X-13399Y190572D01*
X-13327Y190574D01*
X-13256Y190566D01*
X-13205Y190577D01*
G37*
G36*
X93604Y89169D02*
X93604Y89169D01*
X93695Y89177D01*
X93725Y89189D01*
X93757Y89194D01*
X93837Y89237D01*
X93921Y89273D01*
X93953Y89299D01*
X93974Y89310D01*
X93996Y89333D01*
X94052Y89378D01*
X116054Y111380D01*
X141174Y111380D01*
X141185Y111372D01*
X141272Y111345D01*
X141357Y111311D01*
X141398Y111306D01*
X141420Y111299D01*
X141452Y111300D01*
X141523Y111292D01*
X143329Y111292D01*
X146221Y108400D01*
X146225Y108379D01*
X146223Y108331D01*
X146245Y108258D01*
X146257Y108183D01*
X146279Y108141D01*
X146293Y108095D01*
X146337Y108033D01*
X146372Y107966D01*
X146407Y107933D01*
X146434Y107894D01*
X146495Y107849D01*
X146550Y107797D01*
X146594Y107776D01*
X146633Y107748D01*
X146705Y107725D01*
X146773Y107693D01*
X146821Y107688D01*
X146867Y107673D01*
X146943Y107674D01*
X147018Y107666D01*
X147065Y107676D01*
X147113Y107677D01*
X147184Y107702D01*
X147258Y107718D01*
X147299Y107743D01*
X147345Y107759D01*
X147404Y107806D01*
X147469Y107844D01*
X147501Y107881D01*
X147538Y107910D01*
X147615Y108014D01*
X147629Y108031D01*
X147632Y108037D01*
X147638Y108046D01*
X162808Y134322D01*
X163416Y133902D01*
X163443Y133890D01*
X163465Y133872D01*
X163534Y133852D01*
X163599Y133824D01*
X163628Y133823D01*
X163656Y133815D01*
X163727Y133823D01*
X163798Y133823D01*
X163825Y133834D01*
X163854Y133837D01*
X163916Y133873D01*
X163981Y133900D01*
X164002Y133921D01*
X164027Y133935D01*
X164090Y134012D01*
X164120Y134043D01*
X164124Y134053D01*
X164133Y134063D01*
X173633Y150563D01*
X173643Y150595D01*
X173652Y150608D01*
X173656Y150633D01*
X173657Y150636D01*
X173688Y150707D01*
X173688Y150730D01*
X173696Y150752D01*
X173690Y150829D01*
X173691Y150906D01*
X173681Y150930D01*
X173680Y150950D01*
X173659Y150990D01*
X173633Y151062D01*
X164133Y167562D01*
X164114Y167583D01*
X164101Y167610D01*
X164048Y167657D01*
X164001Y167711D01*
X163975Y167723D01*
X163954Y167743D01*
X163886Y167766D01*
X163822Y167797D01*
X163793Y167798D01*
X163766Y167807D01*
X163694Y167803D01*
X163623Y167806D01*
X163596Y167796D01*
X163567Y167794D01*
X163477Y167751D01*
X163437Y167737D01*
X163429Y167729D01*
X163416Y167723D01*
X162808Y167303D01*
X144285Y199387D01*
X144212Y199476D01*
X144142Y199566D01*
X144135Y199571D01*
X144129Y199577D01*
X144032Y199638D01*
X143937Y199701D01*
X143928Y199703D01*
X143921Y199708D01*
X143809Y199735D01*
X143699Y199764D01*
X143690Y199764D01*
X143682Y199766D01*
X143568Y199756D01*
X143454Y199748D01*
X143444Y199745D01*
X143437Y199744D01*
X143415Y199735D01*
X143295Y199692D01*
X141744Y198946D01*
X141715Y198926D01*
X141683Y198913D01*
X141615Y198856D01*
X141542Y198805D01*
X141522Y198777D01*
X141495Y198755D01*
X141430Y198658D01*
X140697Y198433D01*
X140667Y198418D01*
X140591Y198391D01*
X139901Y198059D01*
X139884Y198067D01*
X139795Y198074D01*
X139708Y198090D01*
X139673Y198084D01*
X139639Y198087D01*
X139474Y198056D01*
X137607Y197481D01*
X137576Y197465D01*
X137542Y197457D01*
X137467Y197411D01*
X137387Y197371D01*
X137362Y197347D01*
X137333Y197329D01*
X137254Y197243D01*
X136495Y197129D01*
X136464Y197119D01*
X136384Y197104D01*
X135653Y196879D01*
X135637Y196888D01*
X135551Y196909D01*
X135466Y196937D01*
X135432Y196937D01*
X135398Y196945D01*
X135230Y196939D01*
X133298Y196648D01*
X133266Y196638D01*
X133231Y196635D01*
X133149Y196600D01*
X133064Y196573D01*
X133037Y196552D01*
X133005Y196539D01*
X132914Y196466D01*
X132147Y196467D01*
X132114Y196461D01*
X132033Y196458D01*
X131276Y196344D01*
X131262Y196356D01*
X131179Y196390D01*
X131100Y196430D01*
X131066Y196435D01*
X131034Y196448D01*
X130867Y196467D01*
X128914Y196468D01*
X128880Y196462D01*
X128845Y196465D01*
X128759Y196442D01*
X128671Y196428D01*
X128641Y196412D01*
X128607Y196403D01*
X128506Y196345D01*
X127748Y196459D01*
X127715Y196459D01*
X127634Y196468D01*
X126869Y196468D01*
X126857Y196482D01*
X126780Y196528D01*
X126708Y196580D01*
X126675Y196590D01*
X126645Y196607D01*
X126483Y196651D01*
X124551Y196942D01*
X124517Y196942D01*
X124483Y196950D01*
X124394Y196940D01*
X124305Y196939D01*
X124273Y196928D01*
X124238Y196924D01*
X124130Y196882D01*
X123397Y197108D01*
X123364Y197113D01*
X123286Y197133D01*
X122529Y197248D01*
X122519Y197264D01*
X122450Y197320D01*
X122387Y197382D01*
X122355Y197397D01*
X122328Y197419D01*
X122175Y197486D01*
X120308Y198062D01*
X120274Y198067D01*
X120242Y198079D01*
X120153Y198083D01*
X120064Y198096D01*
X120030Y198089D01*
X119996Y198091D01*
X119883Y198065D01*
X119192Y198398D01*
X119160Y198407D01*
X119086Y198439D01*
X118354Y198665D01*
X118347Y198683D01*
X118287Y198748D01*
X118233Y198819D01*
X118204Y198839D01*
X118181Y198864D01*
X118039Y198953D01*
X116279Y199802D01*
X116246Y199811D01*
X116216Y199829D01*
X116129Y199846D01*
X116043Y199871D01*
X116009Y199870D01*
X115975Y199877D01*
X115859Y199868D01*
X115225Y200300D01*
X115195Y200314D01*
X115127Y200357D01*
X114437Y200689D01*
X114432Y200707D01*
X114383Y200782D01*
X114340Y200860D01*
X114315Y200883D01*
X114296Y200912D01*
X114168Y201021D01*
X112555Y202122D01*
X112523Y202137D01*
X112496Y202158D01*
X112412Y202188D01*
X112332Y202226D01*
X112297Y202230D01*
X112265Y202242D01*
X112149Y202250D01*
X111587Y202772D01*
X111559Y202791D01*
X111498Y202843D01*
X110865Y203275D01*
X110863Y203293D01*
X110826Y203374D01*
X110795Y203457D01*
X110773Y203484D01*
X110759Y203516D01*
X110649Y203643D01*
X109218Y204972D01*
X109189Y204991D01*
X109165Y205016D01*
X109087Y205059D01*
X109013Y205108D01*
X108979Y205117D01*
X108949Y205133D01*
X108835Y205159D01*
X108357Y205759D01*
X108333Y205781D01*
X108280Y205842D01*
X107719Y206363D01*
X107720Y206382D01*
X107694Y206467D01*
X107677Y206554D01*
X107659Y206584D01*
X107649Y206618D01*
X107560Y206760D01*
X106342Y208287D01*
X106317Y208310D01*
X106297Y208339D01*
X106226Y208393D01*
X106160Y208452D01*
X106128Y208466D01*
X106101Y208487D01*
X105992Y208529D01*
X105609Y209194D01*
X105588Y209219D01*
X105545Y209288D01*
X105068Y209886D01*
X105071Y209905D01*
X105059Y209993D01*
X105055Y210082D01*
X105042Y210114D01*
X105037Y210148D01*
X104970Y210302D01*
X103993Y211994D01*
X103972Y212021D01*
X103956Y212052D01*
X103894Y212116D01*
X103838Y212184D01*
X103808Y212203D01*
X103784Y212228D01*
X103684Y212286D01*
X103404Y213000D01*
X103387Y213028D01*
X103354Y213102D01*
X102972Y213765D01*
X102978Y213783D01*
X102979Y213872D01*
X102988Y213961D01*
X102980Y213994D01*
X102980Y214029D01*
X102936Y214191D01*
X102223Y216010D01*
X102206Y216039D01*
X102195Y216073D01*
X102143Y216145D01*
X102098Y216221D01*
X102071Y216244D01*
X102051Y216272D01*
X101960Y216344D01*
X101790Y217092D01*
X101777Y217123D01*
X101756Y217201D01*
X101477Y217913D01*
X101486Y217930D01*
X101500Y218018D01*
X101522Y218104D01*
X101519Y218139D01*
X101525Y218173D01*
X101506Y218339D01*
X101071Y220244D01*
X101058Y220276D01*
X101053Y220310D01*
X101012Y220389D01*
X100979Y220472D01*
X100956Y220498D01*
X100940Y220529D01*
X100861Y220614D01*
X100804Y221379D01*
X100796Y221411D01*
X100787Y221492D01*
X100617Y222238D01*
X100628Y222253D01*
X100655Y222338D01*
X100690Y222420D01*
X100692Y222454D01*
X100703Y222487D01*
X100709Y222655D01*
X100563Y224603D01*
X100555Y224637D01*
X100555Y224671D01*
X100527Y224756D01*
X100506Y224842D01*
X100487Y224871D01*
X100476Y224904D01*
X100411Y225000D01*
X100468Y225765D01*
X100465Y225798D01*
X100468Y225879D01*
X100411Y226642D01*
X100425Y226655D01*
X100464Y226735D01*
X100510Y226811D01*
X100518Y226845D01*
X100533Y226876D01*
X100564Y227041D01*
X100711Y228989D01*
X100708Y229023D01*
X100713Y229058D01*
X100697Y229145D01*
X100689Y229234D01*
X100676Y229266D01*
X100669Y229300D01*
X100619Y229404D01*
X100790Y230152D01*
X100792Y230185D01*
X100807Y230265D01*
X100864Y231028D01*
X100879Y231039D01*
X100930Y231112D01*
X100987Y231180D01*
X101000Y231213D01*
X101020Y231241D01*
X101075Y231399D01*
X101510Y233304D01*
X101512Y233338D01*
X101523Y233372D01*
X101520Y233461D01*
X101526Y233549D01*
X101517Y233583D01*
X101516Y233617D01*
X101481Y233728D01*
X101762Y234442D01*
X101769Y234474D01*
X101795Y234551D01*
X101966Y235297D01*
X101983Y235306D01*
X102044Y235371D01*
X102110Y235430D01*
X102128Y235460D01*
X102152Y235485D01*
X102230Y235633D01*
X102944Y237451D01*
X102951Y237485D01*
X102966Y237516D01*
X102977Y237605D01*
X102996Y237692D01*
X102992Y237726D01*
X102996Y237761D01*
X102971Y237926D01*
X102961Y237963D01*
X102961Y237965D01*
X102972Y238008D01*
X102966Y238088D01*
X102968Y238167D01*
X102956Y238210D01*
X102953Y238253D01*
X102921Y238327D01*
X102899Y238403D01*
X102874Y238439D01*
X102856Y238480D01*
X102766Y238593D01*
X102758Y238604D01*
X102755Y238607D01*
X102751Y238611D01*
X100540Y240822D01*
X100466Y240875D01*
X100396Y240935D01*
X100366Y240947D01*
X100340Y240966D01*
X100253Y240993D01*
X100168Y241027D01*
X100127Y241031D01*
X100105Y241038D01*
X100073Y241037D01*
X100002Y241045D01*
X38903Y241045D01*
X38813Y241031D01*
X38722Y241023D01*
X38692Y241011D01*
X38660Y241006D01*
X38580Y240963D01*
X38496Y240927D01*
X38464Y240901D01*
X38443Y240890D01*
X38421Y240867D01*
X38365Y240822D01*
X21157Y223614D01*
X21113Y223553D01*
X21081Y223519D01*
X21075Y223507D01*
X21044Y223471D01*
X21032Y223441D01*
X21013Y223414D01*
X20986Y223327D01*
X20952Y223243D01*
X20948Y223202D01*
X20941Y223179D01*
X20942Y223147D01*
X20934Y223076D01*
X20934Y190775D01*
X20945Y190704D01*
X20947Y190633D01*
X20965Y190584D01*
X20973Y190532D01*
X21007Y190469D01*
X21032Y190402D01*
X21064Y190361D01*
X21089Y190315D01*
X21141Y190266D01*
X21185Y190210D01*
X21229Y190182D01*
X21267Y190146D01*
X21332Y190116D01*
X21392Y190077D01*
X21443Y190064D01*
X21490Y190042D01*
X21561Y190034D01*
X21631Y190017D01*
X21683Y190021D01*
X21734Y190015D01*
X21805Y190030D01*
X21876Y190036D01*
X21924Y190056D01*
X21975Y190067D01*
X22036Y190104D01*
X22102Y190132D01*
X22158Y190177D01*
X22186Y190193D01*
X22201Y190211D01*
X22233Y190237D01*
X25010Y193013D01*
X25063Y193087D01*
X25122Y193157D01*
X25134Y193187D01*
X25153Y193213D01*
X25180Y193300D01*
X25214Y193385D01*
X25219Y193426D01*
X25226Y193448D01*
X25225Y193480D01*
X25233Y193552D01*
X25233Y195717D01*
X28121Y198605D01*
X32204Y198605D01*
X34210Y196599D01*
X34226Y196588D01*
X34239Y196572D01*
X34326Y196516D01*
X34410Y196456D01*
X34429Y196450D01*
X34445Y196439D01*
X34546Y196414D01*
X34645Y196383D01*
X34665Y196384D01*
X34684Y196379D01*
X34787Y196387D01*
X34891Y196390D01*
X34909Y196397D01*
X34929Y196398D01*
X35024Y196439D01*
X35122Y196474D01*
X35137Y196487D01*
X35156Y196494D01*
X35286Y196599D01*
X37583Y198896D01*
X37598Y198904D01*
X37618Y198908D01*
X37707Y198961D01*
X37798Y199010D01*
X37812Y199024D01*
X37829Y199034D01*
X37896Y199113D01*
X37968Y199188D01*
X37976Y199206D01*
X37989Y199221D01*
X38028Y199317D01*
X38071Y199411D01*
X38073Y199431D01*
X38081Y199449D01*
X38099Y199616D01*
X38099Y205583D01*
X38096Y205602D01*
X38098Y205622D01*
X38076Y205724D01*
X38060Y205826D01*
X38050Y205843D01*
X38046Y205863D01*
X37993Y205952D01*
X37944Y206043D01*
X37930Y206057D01*
X37920Y206074D01*
X37841Y206141D01*
X37766Y206213D01*
X37748Y206221D01*
X37733Y206234D01*
X37637Y206273D01*
X37543Y206316D01*
X37523Y206318D01*
X37505Y206326D01*
X37338Y206344D01*
X35486Y206344D01*
X34369Y207461D01*
X34369Y220039D01*
X35486Y221156D01*
X47064Y221156D01*
X48181Y220039D01*
X48181Y209575D01*
X48192Y209504D01*
X48194Y209432D01*
X48212Y209383D01*
X48220Y209332D01*
X48254Y209269D01*
X48279Y209201D01*
X48311Y209161D01*
X48336Y209115D01*
X48388Y209065D01*
X48432Y209009D01*
X48476Y208981D01*
X48514Y208945D01*
X48579Y208915D01*
X48639Y208876D01*
X48690Y208864D01*
X48737Y208842D01*
X48808Y208834D01*
X48878Y208816D01*
X48930Y208820D01*
X48981Y208815D01*
X49052Y208830D01*
X49123Y208835D01*
X49171Y208856D01*
X49222Y208867D01*
X49283Y208904D01*
X49349Y208932D01*
X49405Y208977D01*
X49433Y208993D01*
X49448Y209011D01*
X49480Y209037D01*
X50756Y210313D01*
X87356Y210313D01*
X89663Y208006D01*
X89663Y167046D01*
X89677Y166956D01*
X89685Y166865D01*
X89697Y166836D01*
X89702Y166804D01*
X89745Y166723D01*
X89781Y166639D01*
X89807Y166607D01*
X89818Y166586D01*
X89841Y166564D01*
X89886Y166508D01*
X99703Y156691D01*
X99777Y156638D01*
X99846Y156579D01*
X99876Y156566D01*
X99902Y156548D01*
X99989Y156521D01*
X100074Y156487D01*
X100115Y156482D01*
X100137Y156475D01*
X100170Y156476D01*
X100241Y156468D01*
X101137Y156468D01*
X103216Y155607D01*
X104807Y154016D01*
X105668Y151937D01*
X105668Y149688D01*
X104807Y147609D01*
X103216Y146018D01*
X101137Y145157D01*
X98888Y145157D01*
X96809Y146018D01*
X96042Y146784D01*
X95984Y146826D01*
X95932Y146876D01*
X95885Y146898D01*
X95843Y146928D01*
X95774Y146949D01*
X95709Y146979D01*
X95657Y146985D01*
X95607Y147000D01*
X95536Y146998D01*
X95465Y147006D01*
X95414Y146995D01*
X95362Y146994D01*
X95294Y146969D01*
X95224Y146954D01*
X95179Y146927D01*
X95131Y146909D01*
X95075Y146865D01*
X95013Y146828D01*
X94979Y146788D01*
X94939Y146756D01*
X94900Y146695D01*
X94853Y146641D01*
X94834Y146593D01*
X94806Y146549D01*
X94788Y146479D01*
X94761Y146413D01*
X94753Y146342D01*
X94745Y146310D01*
X94747Y146287D01*
X94743Y146246D01*
X94743Y135420D01*
X91593Y132270D01*
X78270Y132270D01*
X76707Y133832D01*
X76707Y138280D01*
X76693Y138370D01*
X76685Y138461D01*
X76673Y138490D01*
X76668Y138522D01*
X76625Y138603D01*
X76589Y138687D01*
X76563Y138719D01*
X76552Y138740D01*
X76529Y138762D01*
X76484Y138818D01*
X66414Y148888D01*
X66398Y148900D01*
X66386Y148915D01*
X66298Y148971D01*
X66215Y149032D01*
X66196Y149037D01*
X66179Y149048D01*
X66078Y149073D01*
X65979Y149104D01*
X65960Y149103D01*
X65940Y149108D01*
X65837Y149100D01*
X65734Y149098D01*
X65715Y149091D01*
X65695Y149089D01*
X65600Y149049D01*
X65503Y149013D01*
X65487Y149001D01*
X65469Y148993D01*
X65338Y148888D01*
X63986Y147536D01*
X63985Y147536D01*
X61753Y145304D01*
X61120Y145304D01*
X61030Y145289D01*
X60939Y145282D01*
X60909Y145269D01*
X60877Y145264D01*
X60797Y145221D01*
X60713Y145186D01*
X60681Y145160D01*
X60660Y145149D01*
X60638Y145126D01*
X60582Y145081D01*
X58119Y142618D01*
X58077Y142560D01*
X58028Y142508D01*
X58006Y142460D01*
X57975Y142418D01*
X57954Y142350D01*
X57924Y142284D01*
X57918Y142233D01*
X57903Y142183D01*
X57905Y142111D01*
X57897Y142040D01*
X57908Y141989D01*
X57909Y141937D01*
X57934Y141870D01*
X57949Y141800D01*
X57976Y141755D01*
X57994Y141706D01*
X58039Y141650D01*
X58075Y141589D01*
X58115Y141555D01*
X58147Y141514D01*
X58208Y141475D01*
X58262Y141429D01*
X58311Y141409D01*
X58354Y141381D01*
X58424Y141363D01*
X58490Y141337D01*
X58562Y141329D01*
X58593Y141321D01*
X58616Y141323D01*
X58657Y141318D01*
X69702Y141318D01*
X70818Y140202D01*
X70818Y134623D01*
X69702Y133507D01*
X56777Y133507D01*
X56687Y133492D01*
X56596Y133485D01*
X56566Y133472D01*
X56534Y133467D01*
X56454Y133424D01*
X56370Y133389D01*
X56338Y133363D01*
X56317Y133352D01*
X56295Y133329D01*
X56239Y133284D01*
X50166Y127211D01*
X50154Y127195D01*
X50139Y127182D01*
X50083Y127095D01*
X50022Y127011D01*
X50017Y126992D01*
X50006Y126975D01*
X49981Y126875D01*
X49950Y126776D01*
X49951Y126756D01*
X49946Y126737D01*
X49954Y126634D01*
X49956Y126530D01*
X49963Y126512D01*
X49965Y126492D01*
X50005Y126397D01*
X50041Y126299D01*
X50053Y126284D01*
X50061Y126265D01*
X50166Y126134D01*
X51081Y125220D01*
X58759Y117541D01*
X58833Y117488D01*
X58903Y117429D01*
X58933Y117417D01*
X58959Y117398D01*
X59046Y117371D01*
X59131Y117337D01*
X59172Y117332D01*
X59194Y117325D01*
X59226Y117326D01*
X59297Y117318D01*
X69702Y117318D01*
X70818Y116202D01*
X70818Y110623D01*
X69702Y109507D01*
X54123Y109507D01*
X53007Y110623D01*
X53007Y113277D01*
X52992Y113368D01*
X52985Y113458D01*
X52972Y113488D01*
X52967Y113520D01*
X52924Y113601D01*
X52889Y113685D01*
X52863Y113717D01*
X52852Y113738D01*
X52829Y113760D01*
X52784Y113816D01*
X50679Y115920D01*
X50621Y115962D01*
X50569Y116012D01*
X50522Y116034D01*
X50480Y116064D01*
X50411Y116085D01*
X50346Y116115D01*
X50294Y116121D01*
X50244Y116136D01*
X50173Y116134D01*
X50102Y116142D01*
X50051Y116131D01*
X49999Y116130D01*
X49931Y116105D01*
X49861Y116090D01*
X49816Y116063D01*
X49768Y116045D01*
X49712Y116001D01*
X49650Y115964D01*
X49616Y115924D01*
X49576Y115892D01*
X49537Y115831D01*
X49490Y115777D01*
X49471Y115729D01*
X49443Y115685D01*
X49425Y115615D01*
X49398Y115549D01*
X49390Y115477D01*
X49382Y115446D01*
X49383Y115436D01*
X46492Y112545D01*
X42408Y112545D01*
X39755Y115198D01*
X39697Y115240D01*
X39645Y115289D01*
X39598Y115311D01*
X39556Y115342D01*
X39487Y115363D01*
X39422Y115393D01*
X39370Y115399D01*
X39320Y115414D01*
X39249Y115412D01*
X39178Y115420D01*
X39127Y115409D01*
X39075Y115408D01*
X39007Y115383D01*
X38937Y115368D01*
X38892Y115341D01*
X38844Y115323D01*
X38788Y115278D01*
X38726Y115242D01*
X38692Y115202D01*
X38652Y115169D01*
X38613Y115109D01*
X38566Y115055D01*
X38547Y115006D01*
X38519Y114963D01*
X38501Y114893D01*
X38474Y114826D01*
X38466Y114755D01*
X38458Y114724D01*
X38460Y114701D01*
X38456Y114660D01*
X38456Y106743D01*
X37339Y105626D01*
X31660Y105626D01*
X31640Y105623D01*
X31620Y105625D01*
X31519Y105603D01*
X31417Y105587D01*
X31400Y105577D01*
X31380Y105573D01*
X31291Y105520D01*
X31200Y105472D01*
X31186Y105457D01*
X31169Y105447D01*
X31102Y105368D01*
X31030Y105293D01*
X31022Y105275D01*
X31009Y105260D01*
X30970Y105164D01*
X30927Y105070D01*
X30925Y105050D01*
X30917Y105032D01*
X30899Y104865D01*
X30899Y104499D01*
X30913Y104409D01*
X30920Y104318D01*
X30933Y104288D01*
X30937Y104266D01*
X30937Y101286D01*
X30940Y101268D01*
X30938Y101252D01*
X30952Y101184D01*
X30959Y101105D01*
X30971Y101075D01*
X30976Y101043D01*
X30988Y101022D01*
X30990Y101011D01*
X31019Y100962D01*
X31055Y100879D01*
X31081Y100847D01*
X31092Y100826D01*
X31113Y100806D01*
X31116Y100800D01*
X31121Y100796D01*
X31160Y100748D01*
X42530Y89378D01*
X42604Y89325D01*
X42673Y89265D01*
X42703Y89253D01*
X42729Y89234D01*
X42816Y89207D01*
X42901Y89173D01*
X42942Y89169D01*
X42965Y89162D01*
X42997Y89163D01*
X43068Y89155D01*
X93514Y89155D01*
X93604Y89169D01*
G37*
G36*
X-67572Y319D02*
X-67572Y319D01*
X-67544Y316D01*
X-67476Y339D01*
X-67405Y353D01*
X-67382Y369D01*
X-67355Y378D01*
X-67300Y425D01*
X-67241Y465D01*
X-67226Y489D01*
X-67205Y508D01*
X-67173Y572D01*
X-67134Y633D01*
X-67129Y661D01*
X-67117Y686D01*
X-67108Y788D01*
X-67101Y829D01*
X-67103Y839D01*
X-67102Y852D01*
X-67159Y1567D01*
X-30062Y1567D01*
X-29949Y1586D01*
X-29836Y1602D01*
X-29828Y1606D01*
X-29820Y1607D01*
X-29718Y1660D01*
X-29616Y1712D01*
X-29610Y1718D01*
X-29602Y1722D01*
X-29524Y1805D01*
X-29443Y1886D01*
X-29439Y1894D01*
X-29433Y1900D01*
X-29384Y2005D01*
X-29334Y2107D01*
X-29332Y2117D01*
X-29329Y2123D01*
X-29327Y2147D01*
X-29303Y2272D01*
X-29175Y3977D01*
X-29178Y4012D01*
X-29173Y4046D01*
X-29189Y4134D01*
X-29197Y4222D01*
X-29211Y4254D01*
X-29217Y4288D01*
X-29267Y4393D01*
X-29097Y5141D01*
X-29095Y5173D01*
X-29080Y5253D01*
X-29023Y6016D01*
X-29007Y6028D01*
X-28957Y6101D01*
X-28900Y6169D01*
X-28887Y6201D01*
X-28867Y6230D01*
X-28812Y6388D01*
X-28378Y8290D01*
X-28376Y8325D01*
X-28365Y8358D01*
X-28368Y8447D01*
X-28362Y8536D01*
X-28371Y8569D01*
X-28372Y8604D01*
X-28407Y8715D01*
X-28127Y9429D01*
X-28120Y9461D01*
X-28093Y9538D01*
X-27923Y10284D01*
X-27906Y10293D01*
X-27845Y10357D01*
X-27778Y10416D01*
X-27761Y10446D01*
X-27737Y10471D01*
X-27659Y10620D01*
X-26946Y12436D01*
X-26939Y12470D01*
X-26924Y12501D01*
X-26913Y12590D01*
X-26895Y12677D01*
X-26899Y12711D01*
X-26894Y12746D01*
X-26912Y12860D01*
X-26528Y13525D01*
X-26517Y13556D01*
X-26479Y13627D01*
X-26199Y14340D01*
X-26182Y14346D01*
X-26112Y14401D01*
X-26037Y14449D01*
X-26015Y14476D01*
X-25988Y14498D01*
X-25889Y14633D01*
X-24913Y16323D01*
X-24901Y16355D01*
X-24881Y16384D01*
X-24857Y16469D01*
X-24826Y16553D01*
X-24825Y16587D01*
X-24815Y16621D01*
X-24816Y16737D01*
X-24337Y17337D01*
X-24321Y17365D01*
X-24273Y17431D01*
X-23891Y18093D01*
X-23872Y18097D01*
X-23795Y18141D01*
X-23714Y18177D01*
X-23688Y18201D01*
X-23658Y18218D01*
X-23540Y18337D01*
X-22323Y19862D01*
X-22306Y19893D01*
X-22283Y19918D01*
X-22246Y19999D01*
X-22203Y20077D01*
X-22196Y20111D01*
X-22182Y20143D01*
X-22165Y20257D01*
X-21603Y20779D01*
X-21582Y20805D01*
X-21525Y20863D01*
X-21048Y21461D01*
X-21029Y21462D01*
X-20946Y21494D01*
X-20861Y21518D01*
X-20832Y21537D01*
X-20800Y21550D01*
X-20665Y21650D01*
X-19234Y22977D01*
X-19213Y23004D01*
X-19186Y23026D01*
X-19138Y23101D01*
X-19084Y23171D01*
X-19072Y23204D01*
X-19053Y23233D01*
X-19019Y23344D01*
X-18386Y23776D01*
X-18372Y23789D01*
X-18354Y23798D01*
X-18336Y23818D01*
X-18297Y23847D01*
X-17735Y24368D01*
X-17717Y24365D01*
X-17630Y24385D01*
X-17542Y24396D01*
X-17510Y24411D01*
X-17477Y24418D01*
X-17328Y24497D01*
X-15716Y25596D01*
X-15691Y25620D01*
X-15661Y25637D01*
X-15603Y25704D01*
X-15538Y25765D01*
X-15522Y25796D01*
X-15499Y25822D01*
X-15449Y25927D01*
X-14758Y26260D01*
X-14731Y26279D01*
X-14659Y26317D01*
X-14027Y26748D01*
X-14009Y26743D01*
X-13920Y26749D01*
X-13831Y26747D01*
X-13798Y26757D01*
X-13763Y26759D01*
X-13605Y26815D01*
X-11847Y27661D01*
X-11818Y27681D01*
X-11786Y27694D01*
X-11719Y27751D01*
X-11645Y27803D01*
X-11625Y27830D01*
X-11598Y27853D01*
X-11533Y27949D01*
X-10800Y28175D01*
X-10770Y28190D01*
X-10694Y28217D01*
X-10005Y28549D01*
X-9987Y28541D01*
X-9899Y28534D01*
X-9811Y28518D01*
X-9777Y28524D01*
X-9742Y28521D01*
X-9577Y28552D01*
X-7713Y29127D01*
X-7682Y29143D01*
X-7648Y29151D01*
X-7572Y29197D01*
X-7493Y29237D01*
X-7468Y29261D01*
X-7439Y29279D01*
X-7360Y29365D01*
X-6601Y29479D01*
X-6570Y29489D01*
X-6490Y29504D01*
X-5759Y29730D01*
X-5743Y29720D01*
X-5657Y29700D01*
X-5572Y29671D01*
X-5537Y29671D01*
X-5504Y29663D01*
X-5336Y29670D01*
X-3407Y29961D01*
X-3374Y29971D01*
X-3339Y29974D01*
X-3257Y30009D01*
X-3173Y30036D01*
X-3145Y30057D01*
X-3113Y30070D01*
X-3022Y30143D01*
X-2255Y30143D01*
X-2222Y30148D01*
X-2141Y30151D01*
X-1385Y30265D01*
X-1370Y30253D01*
X-1288Y30220D01*
X-1209Y30179D01*
X-1175Y30174D01*
X-1142Y30161D01*
X-976Y30143D01*
X976Y30143D01*
X1010Y30148D01*
X1044Y30146D01*
X1131Y30168D01*
X1218Y30182D01*
X1249Y30199D01*
X1283Y30207D01*
X1383Y30266D01*
X2141Y30151D01*
X2174Y30152D01*
X2255Y30143D01*
X3021Y30143D01*
X3033Y30129D01*
X3109Y30083D01*
X3182Y30031D01*
X3215Y30021D01*
X3245Y30004D01*
X3407Y29961D01*
X5336Y29670D01*
X5371Y29670D01*
X5405Y29663D01*
X5493Y29672D01*
X5582Y29673D01*
X5615Y29684D01*
X5649Y29688D01*
X5757Y29730D01*
X6490Y29504D01*
X6523Y29500D01*
X6601Y29479D01*
X7358Y29365D01*
X7368Y29349D01*
X7437Y29293D01*
X7501Y29231D01*
X7532Y29216D01*
X7559Y29194D01*
X7713Y29127D01*
X8088Y29012D01*
X8098Y29010D01*
X8107Y29006D01*
X8219Y28994D01*
X8331Y28978D01*
X8341Y28980D01*
X8351Y28979D01*
X8462Y29003D01*
X8573Y29024D01*
X8582Y29029D01*
X8592Y29031D01*
X8689Y29089D01*
X8787Y29145D01*
X8794Y29152D01*
X8803Y29157D01*
X8876Y29243D01*
X8952Y29327D01*
X8956Y29336D01*
X8963Y29344D01*
X9005Y29449D01*
X9050Y29553D01*
X9051Y29563D01*
X9055Y29572D01*
X9073Y29739D01*
X9073Y97308D01*
X9070Y97328D01*
X9072Y97347D01*
X9050Y97449D01*
X9034Y97551D01*
X9024Y97568D01*
X9020Y97588D01*
X8967Y97677D01*
X8918Y97768D01*
X8904Y97782D01*
X8894Y97799D01*
X8815Y97866D01*
X8740Y97938D01*
X8722Y97946D01*
X8707Y97959D01*
X8611Y97998D01*
X8517Y98041D01*
X8497Y98043D01*
X8479Y98051D01*
X8312Y98069D01*
X-8763Y98069D01*
X-8783Y98066D01*
X-8802Y98068D01*
X-8904Y98046D01*
X-9006Y98030D01*
X-9023Y98020D01*
X-9043Y98016D01*
X-9132Y97963D01*
X-9223Y97914D01*
X-9237Y97900D01*
X-9254Y97890D01*
X-9321Y97811D01*
X-9393Y97736D01*
X-9401Y97718D01*
X-9414Y97703D01*
X-9453Y97607D01*
X-9496Y97513D01*
X-9498Y97493D01*
X-9506Y97475D01*
X-9524Y97308D01*
X-9524Y87585D01*
X-28967Y68142D01*
X-29009Y68084D01*
X-29058Y68032D01*
X-29080Y67984D01*
X-29111Y67942D01*
X-29132Y67874D01*
X-29162Y67808D01*
X-29168Y67757D01*
X-29183Y67707D01*
X-29181Y67635D01*
X-29189Y67564D01*
X-29178Y67513D01*
X-29177Y67461D01*
X-29152Y67394D01*
X-29137Y67324D01*
X-29110Y67279D01*
X-29092Y67230D01*
X-29047Y67174D01*
X-29011Y67113D01*
X-28971Y67079D01*
X-28938Y67038D01*
X-28878Y66999D01*
X-28824Y66953D01*
X-28775Y66933D01*
X-28732Y66905D01*
X-28662Y66888D01*
X-28596Y66861D01*
X-28524Y66853D01*
X-28493Y66845D01*
X-28470Y66847D01*
X-28429Y66842D01*
X-26533Y66842D01*
X-23645Y63954D01*
X-23645Y62142D01*
X-23642Y62122D01*
X-23644Y62103D01*
X-23622Y62001D01*
X-23606Y61899D01*
X-23596Y61882D01*
X-23592Y61862D01*
X-23539Y61773D01*
X-23490Y61682D01*
X-23476Y61668D01*
X-23466Y61651D01*
X-23387Y61584D01*
X-23312Y61512D01*
X-23294Y61504D01*
X-23279Y61491D01*
X-23183Y61452D01*
X-23089Y61409D01*
X-23069Y61407D01*
X-23051Y61399D01*
X-22884Y61381D01*
X-15873Y61381D01*
X-14757Y60264D01*
X-14757Y47686D01*
X-15873Y46569D01*
X-27452Y46569D01*
X-28568Y47686D01*
X-28568Y56074D01*
X-28583Y56164D01*
X-28590Y56255D01*
X-28603Y56285D01*
X-28608Y56317D01*
X-28651Y56398D01*
X-28686Y56482D01*
X-28712Y56514D01*
X-28723Y56534D01*
X-28746Y56557D01*
X-28791Y56613D01*
X-28938Y56760D01*
X-29012Y56813D01*
X-29082Y56872D01*
X-29112Y56885D01*
X-29138Y56903D01*
X-29225Y56930D01*
X-29310Y56964D01*
X-29351Y56969D01*
X-29373Y56976D01*
X-29405Y56975D01*
X-29477Y56983D01*
X-30710Y56983D01*
X-30725Y56988D01*
X-30791Y57018D01*
X-30842Y57024D01*
X-30892Y57039D01*
X-30964Y57037D01*
X-31035Y57045D01*
X-31086Y57034D01*
X-31138Y57033D01*
X-31205Y57008D01*
X-31275Y56993D01*
X-31320Y56966D01*
X-31369Y56948D01*
X-31425Y56903D01*
X-31486Y56867D01*
X-31520Y56827D01*
X-31561Y56795D01*
X-31600Y56734D01*
X-31646Y56680D01*
X-31666Y56631D01*
X-31694Y56588D01*
X-31711Y56518D01*
X-31738Y56451D01*
X-31746Y56380D01*
X-31754Y56349D01*
X-31752Y56326D01*
X-31757Y56285D01*
X-31757Y47686D01*
X-32873Y46569D01*
X-44452Y46569D01*
X-45568Y47686D01*
X-45568Y57281D01*
X-45580Y57352D01*
X-45582Y57424D01*
X-45600Y57473D01*
X-45608Y57524D01*
X-45641Y57587D01*
X-45666Y57655D01*
X-45699Y57695D01*
X-45723Y57741D01*
X-45775Y57791D01*
X-45820Y57847D01*
X-45864Y57875D01*
X-45901Y57911D01*
X-45966Y57941D01*
X-46027Y57980D01*
X-46077Y57992D01*
X-46124Y58014D01*
X-46196Y58022D01*
X-46265Y58040D01*
X-46317Y58036D01*
X-46369Y58041D01*
X-46439Y58026D01*
X-46510Y58020D01*
X-46558Y58000D01*
X-46609Y57989D01*
X-46671Y57952D01*
X-46737Y57924D01*
X-46793Y57879D01*
X-46820Y57863D01*
X-46836Y57845D01*
X-46868Y57819D01*
X-55085Y49602D01*
X-57317Y47370D01*
X-104093Y47370D01*
X-104183Y47356D01*
X-104274Y47348D01*
X-104304Y47336D01*
X-104335Y47331D01*
X-104416Y47288D01*
X-104500Y47252D01*
X-104532Y47226D01*
X-104553Y47215D01*
X-104575Y47192D01*
X-104631Y47147D01*
X-105908Y45870D01*
X-109992Y45870D01*
X-110044Y45922D01*
X-110063Y45936D01*
X-110078Y45955D01*
X-110163Y46008D01*
X-110243Y46066D01*
X-110266Y46073D01*
X-110287Y46085D01*
X-110384Y46109D01*
X-110478Y46138D01*
X-110503Y46137D01*
X-110526Y46143D01*
X-110625Y46134D01*
X-110724Y46132D01*
X-110747Y46123D01*
X-110771Y46121D01*
X-110862Y46081D01*
X-110955Y46047D01*
X-110974Y46032D01*
X-110996Y46022D01*
X-111070Y45955D01*
X-111147Y45893D01*
X-111160Y45873D01*
X-111178Y45857D01*
X-111227Y45770D01*
X-111280Y45686D01*
X-111286Y45663D01*
X-111298Y45642D01*
X-111316Y45544D01*
X-111340Y45448D01*
X-111339Y45424D01*
X-111343Y45400D01*
X-111329Y45302D01*
X-111321Y45203D01*
X-111312Y45181D01*
X-111309Y45157D01*
X-111241Y45003D01*
X-95686Y18060D01*
X-96314Y17764D01*
X-96336Y17747D01*
X-96363Y17737D01*
X-96415Y17688D01*
X-96473Y17645D01*
X-96487Y17620D01*
X-96508Y17600D01*
X-96537Y17535D01*
X-96573Y17473D01*
X-96576Y17445D01*
X-96588Y17418D01*
X-96589Y17346D01*
X-96598Y17276D01*
X-96590Y17248D01*
X-96591Y17219D01*
X-96555Y17125D01*
X-96544Y17084D01*
X-96537Y17076D01*
X-96533Y17063D01*
X-87033Y563D01*
X-86981Y505D01*
X-86935Y442D01*
X-86916Y431D01*
X-86901Y414D01*
X-86831Y381D01*
X-86764Y341D01*
X-86740Y337D01*
X-86722Y328D01*
X-86677Y326D01*
X-86600Y313D01*
X-67600Y313D01*
X-67572Y319D01*
G37*
G36*
X86676Y329D02*
X86676Y329D01*
X86754Y337D01*
X86773Y348D01*
X86795Y353D01*
X86859Y397D01*
X86927Y435D01*
X86943Y454D01*
X86959Y465D01*
X86983Y503D01*
X87033Y563D01*
X96533Y17063D01*
X96542Y17091D01*
X96558Y17114D01*
X96573Y17184D01*
X96596Y17252D01*
X96593Y17281D01*
X96599Y17309D01*
X96586Y17379D01*
X96580Y17450D01*
X96567Y17476D01*
X96561Y17504D01*
X96521Y17563D01*
X96488Y17627D01*
X96466Y17645D01*
X96450Y17669D01*
X96367Y17726D01*
X96335Y17753D01*
X96324Y17756D01*
X96314Y17764D01*
X95686Y18060D01*
X114208Y50142D01*
X114249Y50250D01*
X114292Y50355D01*
X114292Y50364D01*
X114295Y50372D01*
X114299Y50486D01*
X114306Y50601D01*
X114304Y50609D01*
X114304Y50618D01*
X114272Y50728D01*
X114242Y50838D01*
X114237Y50846D01*
X114234Y50854D01*
X114168Y50948D01*
X114105Y51043D01*
X114097Y51050D01*
X114093Y51055D01*
X114074Y51069D01*
X113978Y51152D01*
X112570Y52111D01*
X112538Y52126D01*
X112511Y52147D01*
X112427Y52177D01*
X112347Y52215D01*
X112312Y52219D01*
X112280Y52230D01*
X112164Y52239D01*
X111601Y52761D01*
X111574Y52779D01*
X111512Y52831D01*
X110880Y53262D01*
X110878Y53281D01*
X110840Y53361D01*
X110809Y53445D01*
X110788Y53472D01*
X110773Y53504D01*
X110663Y53630D01*
X109231Y54959D01*
X109202Y54978D01*
X109178Y55003D01*
X109100Y55045D01*
X109026Y55095D01*
X108992Y55104D01*
X108962Y55120D01*
X108849Y55146D01*
X108370Y55745D01*
X108346Y55767D01*
X108293Y55829D01*
X107731Y56349D01*
X107732Y56368D01*
X107707Y56453D01*
X107689Y56540D01*
X107672Y56570D01*
X107662Y56603D01*
X107572Y56745D01*
X106354Y58272D01*
X106328Y58295D01*
X106308Y58324D01*
X106237Y58377D01*
X106171Y58437D01*
X106139Y58451D01*
X106112Y58472D01*
X106004Y58514D01*
X105620Y59178D01*
X105599Y59204D01*
X105556Y59272D01*
X105078Y59870D01*
X105082Y59889D01*
X105069Y59977D01*
X105065Y60066D01*
X105052Y60098D01*
X105047Y60132D01*
X104980Y60286D01*
X104002Y61977D01*
X103980Y62004D01*
X103965Y62036D01*
X103903Y62099D01*
X103847Y62168D01*
X103817Y62186D01*
X103793Y62211D01*
X103692Y62269D01*
X103412Y62983D01*
X103395Y63011D01*
X103362Y63085D01*
X102979Y63748D01*
X102986Y63766D01*
X102986Y63855D01*
X102995Y63943D01*
X102987Y63977D01*
X102988Y64012D01*
X102944Y64174D01*
X102230Y65992D01*
X102212Y66022D01*
X102202Y66055D01*
X102149Y66127D01*
X102104Y66203D01*
X102078Y66226D01*
X102057Y66254D01*
X101966Y66326D01*
X101795Y67074D01*
X101783Y67105D01*
X101762Y67183D01*
X101482Y67895D01*
X101491Y67912D01*
X101505Y67999D01*
X101527Y68086D01*
X101524Y68120D01*
X101529Y68155D01*
X101510Y68321D01*
X101075Y70226D01*
X101062Y70258D01*
X101057Y70292D01*
X101016Y70371D01*
X100982Y70453D01*
X100960Y70480D01*
X100944Y70510D01*
X100864Y70595D01*
X100807Y71360D01*
X100799Y71392D01*
X100790Y71473D01*
X100619Y72219D01*
X100630Y72234D01*
X100657Y72319D01*
X100692Y72401D01*
X100694Y72436D01*
X100705Y72469D01*
X100711Y72636D01*
X100639Y73591D01*
X100612Y73702D01*
X100588Y73814D01*
X100583Y73822D01*
X100581Y73830D01*
X100520Y73927D01*
X100462Y74025D01*
X100455Y74031D01*
X100450Y74038D01*
X100362Y74111D01*
X100275Y74185D01*
X100266Y74188D01*
X100260Y74194D01*
X100153Y74234D01*
X100047Y74277D01*
X100036Y74278D01*
X100029Y74280D01*
X100006Y74281D01*
X99880Y74295D01*
X48964Y74295D01*
X48893Y74284D01*
X48822Y74282D01*
X48773Y74264D01*
X48721Y74256D01*
X48658Y74222D01*
X48591Y74197D01*
X48550Y74165D01*
X48504Y74140D01*
X48454Y74088D01*
X48398Y74044D01*
X48370Y74000D01*
X48334Y73962D01*
X48304Y73897D01*
X48265Y73837D01*
X48253Y73786D01*
X48231Y73739D01*
X48223Y73668D01*
X48205Y73598D01*
X48209Y73546D01*
X48204Y73495D01*
X48219Y73424D01*
X48225Y73353D01*
X48245Y73305D01*
X48256Y73254D01*
X48293Y73193D01*
X48321Y73127D01*
X48366Y73071D01*
X48382Y73043D01*
X48400Y73028D01*
X48426Y72996D01*
X53976Y67446D01*
X53976Y59554D01*
X48396Y53974D01*
X40504Y53974D01*
X34924Y59554D01*
X34924Y67446D01*
X40474Y72996D01*
X40516Y73054D01*
X40566Y73106D01*
X40587Y73153D01*
X40618Y73195D01*
X40639Y73264D01*
X40669Y73329D01*
X40675Y73381D01*
X40690Y73431D01*
X40688Y73502D01*
X40696Y73573D01*
X40685Y73624D01*
X40684Y73676D01*
X40659Y73744D01*
X40644Y73814D01*
X40617Y73859D01*
X40599Y73907D01*
X40555Y73963D01*
X40518Y74025D01*
X40478Y74059D01*
X40446Y74099D01*
X40385Y74138D01*
X40331Y74185D01*
X40283Y74204D01*
X40239Y74232D01*
X40169Y74250D01*
X40103Y74277D01*
X40031Y74285D01*
X40000Y74293D01*
X39977Y74291D01*
X39936Y74295D01*
X39917Y74295D01*
X22233Y91979D01*
X22175Y92021D01*
X22123Y92070D01*
X22076Y92092D01*
X22034Y92122D01*
X21965Y92143D01*
X21900Y92174D01*
X21848Y92179D01*
X21798Y92195D01*
X21727Y92193D01*
X21656Y92201D01*
X21605Y92190D01*
X21553Y92188D01*
X21485Y92164D01*
X21415Y92149D01*
X21370Y92122D01*
X21322Y92104D01*
X21266Y92059D01*
X21204Y92022D01*
X21170Y91983D01*
X21130Y91950D01*
X21091Y91890D01*
X21044Y91835D01*
X21025Y91787D01*
X20997Y91743D01*
X20979Y91674D01*
X20952Y91607D01*
X20944Y91536D01*
X20936Y91505D01*
X20938Y91482D01*
X20934Y91441D01*
X20934Y30269D01*
X20948Y30179D01*
X20956Y30088D01*
X20968Y30059D01*
X20973Y30027D01*
X21016Y29946D01*
X21052Y29862D01*
X21078Y29830D01*
X21089Y29809D01*
X21112Y29787D01*
X21157Y29731D01*
X36767Y14121D01*
X36767Y10207D01*
X36782Y10117D01*
X36789Y10026D01*
X36802Y9997D01*
X36807Y9965D01*
X36850Y9884D01*
X36885Y9800D01*
X36911Y9768D01*
X36922Y9747D01*
X36945Y9725D01*
X36990Y9669D01*
X38267Y8392D01*
X38267Y4308D01*
X36826Y2867D01*
X36784Y2809D01*
X36735Y2757D01*
X36713Y2709D01*
X36682Y2667D01*
X36661Y2599D01*
X36631Y2533D01*
X36625Y2482D01*
X36610Y2432D01*
X36612Y2360D01*
X36604Y2289D01*
X36615Y2238D01*
X36616Y2186D01*
X36641Y2119D01*
X36656Y2049D01*
X36683Y2004D01*
X36701Y1955D01*
X36746Y1899D01*
X36782Y1838D01*
X36822Y1804D01*
X36855Y1763D01*
X36915Y1724D01*
X36969Y1678D01*
X37018Y1658D01*
X37061Y1630D01*
X37131Y1613D01*
X37198Y1586D01*
X37269Y1578D01*
X37300Y1570D01*
X37323Y1572D01*
X37364Y1567D01*
X67159Y1567D01*
X67102Y852D01*
X67106Y824D01*
X67101Y796D01*
X67118Y726D01*
X67126Y655D01*
X67141Y630D01*
X67147Y603D01*
X67190Y545D01*
X67226Y482D01*
X67248Y465D01*
X67265Y442D01*
X67327Y406D01*
X67384Y362D01*
X67412Y355D01*
X67436Y341D01*
X67536Y324D01*
X67577Y314D01*
X67587Y315D01*
X67600Y313D01*
X86600Y313D01*
X86676Y329D01*
G37*
G36*
X-47605Y138942D02*
X-47605Y138942D01*
X-47586Y138940D01*
X-47484Y138962D01*
X-47382Y138979D01*
X-47365Y138988D01*
X-47345Y138992D01*
X-47256Y139045D01*
X-47165Y139094D01*
X-47151Y139108D01*
X-47134Y139118D01*
X-47067Y139197D01*
X-46996Y139272D01*
X-46987Y139290D01*
X-46974Y139305D01*
X-46935Y139401D01*
X-46892Y139495D01*
X-46890Y139515D01*
X-46882Y139533D01*
X-46864Y139700D01*
X-46864Y167738D01*
X-46879Y167828D01*
X-46886Y167919D01*
X-46898Y167949D01*
X-46904Y167981D01*
X-46946Y168062D01*
X-46982Y168146D01*
X-47008Y168178D01*
X-47019Y168198D01*
X-47042Y168221D01*
X-47087Y168276D01*
X-52199Y173389D01*
X-52273Y173442D01*
X-52342Y173501D01*
X-52373Y173514D01*
X-52399Y173532D01*
X-52486Y173559D01*
X-52571Y173593D01*
X-52612Y173598D01*
X-52634Y173605D01*
X-52666Y173604D01*
X-52737Y173612D01*
X-107332Y173612D01*
X-107422Y173597D01*
X-107513Y173590D01*
X-107543Y173577D01*
X-107574Y173572D01*
X-107655Y173529D01*
X-107739Y173494D01*
X-107771Y173468D01*
X-107792Y173457D01*
X-107814Y173434D01*
X-107870Y173389D01*
X-110901Y170358D01*
X-110954Y170284D01*
X-111014Y170214D01*
X-111026Y170184D01*
X-111045Y170158D01*
X-111072Y170071D01*
X-111106Y169986D01*
X-111110Y169945D01*
X-111117Y169923D01*
X-111116Y169891D01*
X-111124Y169819D01*
X-111124Y143701D01*
X-111110Y143610D01*
X-111102Y143520D01*
X-111090Y143490D01*
X-111085Y143458D01*
X-111042Y143377D01*
X-111006Y143293D01*
X-110980Y143261D01*
X-110969Y143240D01*
X-110946Y143218D01*
X-110901Y143162D01*
X-106901Y139162D01*
X-106827Y139109D01*
X-106757Y139049D01*
X-106727Y139037D01*
X-106701Y139018D01*
X-106614Y138991D01*
X-106529Y138957D01*
X-106488Y138953D01*
X-106466Y138946D01*
X-106434Y138947D01*
X-106363Y138939D01*
X-47625Y138939D01*
X-47605Y138942D01*
G37*
G36*
X131941Y198380D02*
X131941Y198380D01*
X131984Y198379D01*
X135977Y198979D01*
X136007Y198990D01*
X136050Y198996D01*
X139909Y200185D01*
X139937Y200200D01*
X139978Y200212D01*
X143616Y201963D01*
X143638Y201979D01*
X143664Y201989D01*
X143717Y202039D01*
X143775Y202083D01*
X143788Y202106D01*
X143808Y202125D01*
X143838Y202192D01*
X143874Y202255D01*
X143877Y202282D01*
X143888Y202307D01*
X143889Y202380D01*
X143898Y202453D01*
X143890Y202479D01*
X143890Y202506D01*
X143854Y202605D01*
X143842Y202644D01*
X143836Y202651D01*
X143832Y202662D01*
X116832Y249462D01*
X116814Y249482D01*
X116803Y249507D01*
X116749Y249556D01*
X116701Y249611D01*
X116676Y249623D01*
X116656Y249641D01*
X116587Y249665D01*
X116521Y249697D01*
X116494Y249698D01*
X116469Y249707D01*
X116396Y249702D01*
X116323Y249706D01*
X116297Y249696D01*
X116270Y249695D01*
X116174Y249651D01*
X116136Y249636D01*
X116129Y249630D01*
X116119Y249625D01*
X112782Y247352D01*
X112760Y247329D01*
X112724Y247305D01*
X109763Y244560D01*
X109744Y244534D01*
X109712Y244505D01*
X107194Y241349D01*
X107179Y241321D01*
X107152Y241288D01*
X105132Y237791D01*
X105122Y237761D01*
X105099Y237724D01*
X103623Y233966D01*
X103618Y233935D01*
X103601Y233895D01*
X102701Y229959D01*
X102701Y229927D01*
X102690Y229885D01*
X102387Y225859D01*
X102390Y225835D01*
X102387Y225815D01*
X102389Y225806D01*
X102387Y225784D01*
X102688Y221758D01*
X102696Y221727D01*
X102699Y221684D01*
X103596Y217747D01*
X103609Y217718D01*
X103618Y217676D01*
X105092Y213917D01*
X105109Y213890D01*
X105124Y213849D01*
X107142Y210352D01*
X107163Y210328D01*
X107184Y210290D01*
X109700Y207133D01*
X109725Y207112D01*
X109751Y207078D01*
X112710Y204331D01*
X112737Y204314D01*
X112768Y204284D01*
X116104Y202009D01*
X116133Y201996D01*
X116168Y201971D01*
X119806Y200218D01*
X119836Y200211D01*
X119875Y200191D01*
X123733Y199000D01*
X123765Y198997D01*
X123806Y198983D01*
X127798Y198380D01*
X127830Y198382D01*
X127872Y198374D01*
X131910Y198373D01*
X131941Y198380D01*
G37*
G36*
X-127872Y198374D02*
X-127872Y198374D01*
X-127841Y198381D01*
X-127798Y198380D01*
X-123806Y198983D01*
X-123776Y198994D01*
X-123733Y199000D01*
X-119875Y200191D01*
X-119847Y200206D01*
X-119806Y200218D01*
X-116168Y201971D01*
X-116143Y201991D01*
X-116104Y202009D01*
X-112768Y204284D01*
X-112746Y204307D01*
X-112710Y204331D01*
X-109751Y207078D01*
X-109732Y207104D01*
X-109700Y207133D01*
X-107184Y210290D01*
X-107169Y210319D01*
X-107142Y210352D01*
X-105124Y213849D01*
X-105114Y213880D01*
X-105092Y213917D01*
X-103618Y217676D01*
X-103612Y217707D01*
X-103596Y217747D01*
X-102699Y221684D01*
X-102698Y221716D01*
X-102688Y221758D01*
X-102387Y225784D01*
X-102391Y225816D01*
X-102390Y225832D01*
X-102387Y225848D01*
X-102388Y225852D01*
X-102387Y225859D01*
X-102690Y229885D01*
X-102699Y229916D01*
X-102701Y229959D01*
X-103601Y233895D01*
X-103614Y233924D01*
X-103623Y233966D01*
X-105099Y237724D01*
X-105117Y237751D01*
X-105132Y237791D01*
X-107152Y241288D01*
X-107173Y241311D01*
X-107194Y241349D01*
X-109712Y244505D01*
X-109737Y244526D01*
X-109763Y244560D01*
X-112724Y247305D01*
X-112751Y247322D01*
X-112782Y247352D01*
X-116119Y249625D01*
X-116144Y249636D01*
X-116165Y249653D01*
X-116235Y249674D01*
X-116302Y249702D01*
X-116330Y249702D01*
X-116356Y249710D01*
X-116428Y249702D01*
X-116501Y249701D01*
X-116526Y249691D01*
X-116553Y249688D01*
X-116617Y249652D01*
X-116684Y249623D01*
X-116703Y249604D01*
X-116726Y249590D01*
X-116794Y249509D01*
X-116822Y249480D01*
X-116825Y249471D01*
X-116832Y249462D01*
X-143832Y202662D01*
X-143841Y202636D01*
X-143857Y202614D01*
X-143872Y202543D01*
X-143896Y202473D01*
X-143893Y202446D01*
X-143899Y202420D01*
X-143886Y202348D01*
X-143880Y202275D01*
X-143867Y202251D01*
X-143862Y202224D01*
X-143822Y202164D01*
X-143788Y202099D01*
X-143767Y202081D01*
X-143752Y202059D01*
X-143666Y201998D01*
X-143635Y201972D01*
X-143626Y201969D01*
X-143616Y201963D01*
X-139978Y200212D01*
X-139947Y200204D01*
X-139909Y200185D01*
X-136050Y198996D01*
X-136018Y198993D01*
X-135977Y198979D01*
X-131984Y198379D01*
X-131953Y198380D01*
X-131910Y198373D01*
X-127872Y198374D01*
G37*
G36*
X116428Y51923D02*
X116428Y51923D01*
X116501Y51924D01*
X116526Y51934D01*
X116553Y51937D01*
X116617Y51973D01*
X116684Y52002D01*
X116703Y52021D01*
X116726Y52035D01*
X116794Y52116D01*
X116822Y52145D01*
X116825Y52154D01*
X116832Y52163D01*
X143832Y98963D01*
X143841Y98989D01*
X143857Y99011D01*
X143872Y99082D01*
X143896Y99152D01*
X143893Y99179D01*
X143899Y99205D01*
X143886Y99277D01*
X143880Y99350D01*
X143867Y99374D01*
X143862Y99401D01*
X143822Y99462D01*
X143788Y99526D01*
X143767Y99544D01*
X143752Y99566D01*
X143666Y99627D01*
X143635Y99653D01*
X143626Y99656D01*
X143616Y99662D01*
X139978Y101413D01*
X139947Y101421D01*
X139909Y101440D01*
X136050Y102629D01*
X136018Y102632D01*
X135977Y102646D01*
X131984Y103246D01*
X131953Y103245D01*
X131910Y103252D01*
X127872Y103251D01*
X127841Y103244D01*
X127798Y103245D01*
X123806Y102642D01*
X123776Y102631D01*
X123733Y102625D01*
X119875Y101434D01*
X119847Y101419D01*
X119806Y101407D01*
X116168Y99654D01*
X116143Y99634D01*
X116104Y99616D01*
X112768Y97341D01*
X112746Y97318D01*
X112710Y97294D01*
X109751Y94547D01*
X109732Y94521D01*
X109700Y94492D01*
X107184Y91335D01*
X107169Y91306D01*
X107142Y91273D01*
X105124Y87776D01*
X105114Y87745D01*
X105092Y87708D01*
X103618Y83949D01*
X103612Y83918D01*
X103596Y83878D01*
X102699Y79941D01*
X102698Y79909D01*
X102688Y79867D01*
X102387Y75841D01*
X102391Y75809D01*
X102387Y75766D01*
X102690Y71740D01*
X102699Y71709D01*
X102701Y71666D01*
X103601Y67730D01*
X103614Y67701D01*
X103623Y67659D01*
X105099Y63901D01*
X105117Y63874D01*
X105132Y63834D01*
X107152Y60338D01*
X107173Y60314D01*
X107194Y60276D01*
X109712Y57120D01*
X109737Y57100D01*
X109763Y57065D01*
X112724Y54320D01*
X112751Y54303D01*
X112782Y54273D01*
X116119Y52000D01*
X116144Y51989D01*
X116165Y51972D01*
X116235Y51951D01*
X116302Y51923D01*
X116330Y51923D01*
X116356Y51915D01*
X116428Y51923D01*
G37*
G36*
X-116396Y51923D02*
X-116396Y51923D01*
X-116323Y51919D01*
X-116297Y51929D01*
X-116270Y51930D01*
X-116174Y51974D01*
X-116136Y51989D01*
X-116129Y51995D01*
X-116119Y52000D01*
X-112782Y54273D01*
X-112760Y54296D01*
X-112724Y54320D01*
X-109763Y57065D01*
X-109744Y57091D01*
X-109712Y57120D01*
X-107194Y60276D01*
X-107179Y60304D01*
X-107152Y60338D01*
X-105132Y63834D01*
X-105122Y63864D01*
X-105099Y63901D01*
X-103623Y67659D01*
X-103618Y67690D01*
X-103601Y67730D01*
X-102701Y71666D01*
X-102701Y71698D01*
X-102690Y71740D01*
X-102387Y75766D01*
X-102391Y75798D01*
X-102387Y75841D01*
X-102688Y79867D01*
X-102696Y79898D01*
X-102699Y79941D01*
X-103596Y83878D01*
X-103609Y83907D01*
X-103618Y83949D01*
X-105092Y87708D01*
X-105109Y87735D01*
X-105124Y87776D01*
X-107142Y91273D01*
X-107163Y91297D01*
X-107184Y91335D01*
X-109700Y94492D01*
X-109725Y94513D01*
X-109751Y94547D01*
X-112710Y97294D01*
X-112737Y97311D01*
X-112768Y97341D01*
X-116104Y99616D01*
X-116133Y99629D01*
X-116168Y99654D01*
X-119806Y101407D01*
X-119836Y101414D01*
X-119875Y101434D01*
X-123733Y102625D01*
X-123765Y102628D01*
X-123806Y102642D01*
X-127798Y103245D01*
X-127830Y103243D01*
X-127872Y103251D01*
X-131910Y103252D01*
X-131941Y103246D01*
X-131984Y103246D01*
X-135977Y102646D01*
X-136007Y102635D01*
X-136050Y102629D01*
X-139909Y101440D01*
X-139937Y101425D01*
X-139978Y101413D01*
X-143616Y99662D01*
X-143638Y99646D01*
X-143664Y99636D01*
X-143717Y99586D01*
X-143775Y99542D01*
X-143788Y99519D01*
X-143808Y99500D01*
X-143838Y99433D01*
X-143874Y99370D01*
X-143877Y99343D01*
X-143888Y99318D01*
X-143889Y99245D01*
X-143898Y99172D01*
X-143890Y99146D01*
X-143890Y99119D01*
X-143854Y99020D01*
X-143842Y98981D01*
X-143836Y98974D01*
X-143832Y98963D01*
X-116832Y52163D01*
X-116814Y52143D01*
X-116803Y52118D01*
X-116749Y52069D01*
X-116701Y52014D01*
X-116676Y52002D01*
X-116656Y51984D01*
X-116587Y51960D01*
X-116521Y51928D01*
X-116494Y51927D01*
X-116469Y51918D01*
X-116396Y51923D01*
G37*
G36*
X27027Y319D02*
X27027Y319D01*
X27054Y316D01*
X27123Y338D01*
X27195Y353D01*
X27217Y368D01*
X27243Y377D01*
X27299Y424D01*
X27359Y465D01*
X27373Y488D01*
X27394Y506D01*
X27427Y571D01*
X27466Y633D01*
X27470Y660D01*
X27482Y684D01*
X27492Y789D01*
X27499Y829D01*
X27497Y838D01*
X27498Y850D01*
X27196Y4874D01*
X27188Y4905D01*
X27185Y4948D01*
X26287Y8882D01*
X26274Y8911D01*
X26265Y8953D01*
X24791Y12710D01*
X24774Y12737D01*
X24759Y12777D01*
X22741Y16272D01*
X22720Y16296D01*
X22699Y16333D01*
X20183Y19488D01*
X20158Y19509D01*
X20132Y19543D01*
X17174Y22288D01*
X17147Y22304D01*
X17115Y22334D01*
X13781Y24608D01*
X13752Y24620D01*
X13717Y24645D01*
X10081Y26396D01*
X10050Y26404D01*
X10011Y26423D01*
X6155Y27613D01*
X6124Y27616D01*
X6082Y27629D01*
X2092Y28231D01*
X2060Y28229D01*
X2018Y28236D01*
X-2018Y28236D01*
X-2049Y28230D01*
X-2092Y28231D01*
X-6082Y27629D01*
X-6112Y27618D01*
X-6155Y27613D01*
X-10011Y26423D01*
X-10039Y26408D01*
X-10081Y26396D01*
X-13717Y24645D01*
X-13742Y24626D01*
X-13781Y24608D01*
X-17115Y22334D01*
X-17138Y22312D01*
X-17174Y22288D01*
X-20132Y19543D01*
X-20151Y19517D01*
X-20183Y19488D01*
X-22699Y16333D01*
X-22713Y16305D01*
X-22741Y16272D01*
X-24759Y12777D01*
X-24769Y12747D01*
X-24791Y12710D01*
X-26265Y8953D01*
X-26271Y8922D01*
X-26287Y8882D01*
X-27185Y4948D01*
X-27186Y4916D01*
X-27196Y4874D01*
X-27498Y850D01*
X-27494Y823D01*
X-27499Y796D01*
X-27482Y725D01*
X-27473Y653D01*
X-27459Y629D01*
X-27453Y603D01*
X-27410Y544D01*
X-27373Y481D01*
X-27351Y464D01*
X-27335Y442D01*
X-27272Y405D01*
X-27214Y361D01*
X-27187Y355D01*
X-27164Y341D01*
X-27060Y323D01*
X-27021Y314D01*
X-27011Y315D01*
X-27000Y313D01*
X27000Y313D01*
X27027Y319D01*
G37*
G36*
X90578Y134191D02*
X90578Y134191D01*
X90669Y134198D01*
X90698Y134211D01*
X90730Y134216D01*
X90811Y134259D01*
X90895Y134294D01*
X90927Y134320D01*
X90948Y134331D01*
X90970Y134354D01*
X91026Y134399D01*
X92613Y135987D01*
X92666Y136061D01*
X92726Y136130D01*
X92738Y136160D01*
X92757Y136186D01*
X92784Y136273D01*
X92818Y136358D01*
X92822Y136399D01*
X92829Y136422D01*
X92828Y136454D01*
X92836Y136525D01*
X92836Y146050D01*
X92822Y146140D01*
X92814Y146231D01*
X92802Y146261D01*
X92797Y146293D01*
X92754Y146373D01*
X92718Y146457D01*
X92692Y146489D01*
X92681Y146510D01*
X92658Y146532D01*
X92613Y146588D01*
X78549Y160653D01*
X78549Y200025D01*
X78534Y200115D01*
X78527Y200206D01*
X78514Y200236D01*
X78509Y200268D01*
X78466Y200348D01*
X78431Y200432D01*
X78405Y200464D01*
X78394Y200485D01*
X78371Y200507D01*
X78326Y200563D01*
X76738Y202151D01*
X76664Y202204D01*
X76595Y202263D01*
X76565Y202276D01*
X76539Y202294D01*
X76452Y202321D01*
X76367Y202355D01*
X76326Y202360D01*
X76303Y202367D01*
X76271Y202366D01*
X76200Y202374D01*
X65088Y202374D01*
X65068Y202371D01*
X65048Y202373D01*
X64947Y202351D01*
X64845Y202334D01*
X64827Y202325D01*
X64808Y202320D01*
X64719Y202267D01*
X64627Y202219D01*
X64614Y202205D01*
X64597Y202194D01*
X64529Y202116D01*
X64458Y202041D01*
X64450Y202023D01*
X64437Y202007D01*
X64398Y201911D01*
X64354Y201818D01*
X64352Y201798D01*
X64345Y201779D01*
X64326Y201613D01*
X64326Y152400D01*
X64329Y152380D01*
X64327Y152361D01*
X64349Y152259D01*
X64366Y152157D01*
X64375Y152140D01*
X64380Y152120D01*
X64433Y152031D01*
X64481Y151940D01*
X64496Y151926D01*
X64506Y151909D01*
X64584Y151842D01*
X64659Y151771D01*
X64677Y151762D01*
X64693Y151749D01*
X64789Y151710D01*
X64883Y151667D01*
X64902Y151665D01*
X64921Y151657D01*
X65088Y151639D01*
X66360Y151639D01*
X78614Y139385D01*
X78614Y134938D01*
X78617Y134918D01*
X78615Y134898D01*
X78637Y134797D01*
X78654Y134695D01*
X78663Y134677D01*
X78667Y134658D01*
X78720Y134569D01*
X78769Y134477D01*
X78783Y134464D01*
X78793Y134447D01*
X78872Y134379D01*
X78947Y134308D01*
X78965Y134300D01*
X78980Y134287D01*
X79076Y134248D01*
X79170Y134204D01*
X79190Y134202D01*
X79208Y134195D01*
X79375Y134176D01*
X90488Y134176D01*
X90578Y134191D01*
G37*
G36*
X32116Y137430D02*
X32116Y137430D01*
X32207Y137437D01*
X32237Y137450D01*
X32259Y137454D01*
X43388Y137454D01*
X43478Y137468D01*
X43569Y137476D01*
X43599Y137488D01*
X43631Y137493D01*
X43711Y137536D01*
X43795Y137572D01*
X43827Y137598D01*
X43848Y137609D01*
X43870Y137632D01*
X43926Y137677D01*
X47831Y141581D01*
X47884Y141655D01*
X47943Y141725D01*
X47956Y141755D01*
X47974Y141781D01*
X48001Y141868D01*
X48035Y141953D01*
X48040Y141994D01*
X48047Y142016D01*
X48046Y142048D01*
X48054Y142119D01*
X48054Y142253D01*
X57964Y152163D01*
X58597Y152163D01*
X58687Y152178D01*
X58778Y152185D01*
X58808Y152198D01*
X58840Y152203D01*
X58920Y152246D01*
X59004Y152281D01*
X59036Y152307D01*
X59057Y152318D01*
X59079Y152341D01*
X59135Y152386D01*
X59276Y152527D01*
X59329Y152601D01*
X59388Y152670D01*
X59400Y152700D01*
X59419Y152727D01*
X59446Y152814D01*
X59480Y152898D01*
X59485Y152939D01*
X59492Y152962D01*
X59491Y152994D01*
X59499Y153065D01*
X59499Y200025D01*
X59496Y200045D01*
X59498Y200064D01*
X59476Y200166D01*
X59459Y200268D01*
X59450Y200285D01*
X59445Y200305D01*
X59392Y200394D01*
X59344Y200485D01*
X59330Y200499D01*
X59319Y200516D01*
X59241Y200583D01*
X59166Y200655D01*
X59148Y200663D01*
X59132Y200676D01*
X59036Y200715D01*
X58943Y200758D01*
X58923Y200760D01*
X58904Y200768D01*
X58738Y200786D01*
X46038Y200786D01*
X46018Y200783D01*
X45998Y200785D01*
X45897Y200763D01*
X45795Y200747D01*
X45777Y200737D01*
X45758Y200733D01*
X45669Y200680D01*
X45577Y200631D01*
X45564Y200617D01*
X45547Y200607D01*
X45479Y200528D01*
X45408Y200453D01*
X45400Y200435D01*
X45387Y200420D01*
X45348Y200324D01*
X45304Y200230D01*
X45302Y200210D01*
X45295Y200192D01*
X45276Y200025D01*
X45276Y154303D01*
X40960Y149986D01*
X31750Y149986D01*
X31730Y149983D01*
X31711Y149985D01*
X31609Y149963D01*
X31507Y149947D01*
X31490Y149937D01*
X31470Y149933D01*
X31381Y149880D01*
X31290Y149831D01*
X31276Y149817D01*
X31259Y149807D01*
X31192Y149728D01*
X31121Y149653D01*
X31112Y149635D01*
X31099Y149620D01*
X31060Y149524D01*
X31017Y149430D01*
X31015Y149410D01*
X31007Y149392D01*
X30989Y149225D01*
X30989Y138177D01*
X30992Y138157D01*
X30990Y138137D01*
X31012Y138036D01*
X31029Y137934D01*
X31038Y137917D01*
X31042Y137897D01*
X31095Y137808D01*
X31144Y137717D01*
X31158Y137703D01*
X31168Y137686D01*
X31247Y137619D01*
X31322Y137547D01*
X31340Y137539D01*
X31355Y137526D01*
X31451Y137487D01*
X31545Y137444D01*
X31565Y137442D01*
X31583Y137434D01*
X31750Y137416D01*
X32026Y137416D01*
X32116Y137430D01*
G37*
%LPC*%
G36*
X-52842Y104713D02*
X-52842Y104713D01*
X-55730Y107601D01*
X-55730Y111685D01*
X-54333Y113081D01*
X-54322Y113097D01*
X-54306Y113110D01*
X-54250Y113197D01*
X-54190Y113281D01*
X-54184Y113300D01*
X-54173Y113317D01*
X-54148Y113417D01*
X-54118Y113516D01*
X-54118Y113536D01*
X-54113Y113555D01*
X-54121Y113658D01*
X-54124Y113762D01*
X-54131Y113781D01*
X-54132Y113801D01*
X-54173Y113895D01*
X-54208Y113993D01*
X-54221Y114009D01*
X-54229Y114027D01*
X-54333Y114158D01*
X-55730Y115554D01*
X-55730Y119638D01*
X-52842Y122526D01*
X-48758Y122526D01*
X-48652Y122420D01*
X-48578Y122367D01*
X-48509Y122307D01*
X-48478Y122295D01*
X-48452Y122276D01*
X-48365Y122249D01*
X-48280Y122215D01*
X-48239Y122211D01*
X-48217Y122204D01*
X-48185Y122205D01*
X-48114Y122197D01*
X-46869Y122197D01*
X-46798Y122208D01*
X-46726Y122210D01*
X-46677Y122228D01*
X-46626Y122236D01*
X-46563Y122270D01*
X-46495Y122295D01*
X-46455Y122327D01*
X-46409Y122352D01*
X-46359Y122404D01*
X-46303Y122448D01*
X-46275Y122492D01*
X-46239Y122530D01*
X-46209Y122595D01*
X-46170Y122655D01*
X-46158Y122706D01*
X-46136Y122753D01*
X-46128Y122824D01*
X-46110Y122894D01*
X-46114Y122946D01*
X-46109Y122997D01*
X-46124Y123068D01*
X-46129Y123139D01*
X-46150Y123187D01*
X-46161Y123238D01*
X-46198Y123299D01*
X-46205Y123316D01*
X-46205Y127454D01*
X-43317Y130342D01*
X-39217Y130342D01*
X-39197Y130345D01*
X-39178Y130343D01*
X-39076Y130365D01*
X-38974Y130382D01*
X-38957Y130391D01*
X-38937Y130396D01*
X-38848Y130449D01*
X-38757Y130497D01*
X-38743Y130511D01*
X-38726Y130522D01*
X-38659Y130600D01*
X-38587Y130675D01*
X-38579Y130693D01*
X-38566Y130709D01*
X-38527Y130805D01*
X-38484Y130898D01*
X-38482Y130918D01*
X-38474Y130937D01*
X-38456Y131103D01*
X-38456Y131298D01*
X-37339Y132415D01*
X-30261Y132415D01*
X-29144Y131298D01*
X-29144Y111744D01*
X-30261Y110627D01*
X-37342Y110627D01*
X-37406Y110673D01*
X-37476Y110733D01*
X-37506Y110745D01*
X-37532Y110764D01*
X-37619Y110791D01*
X-37704Y110825D01*
X-37745Y110829D01*
X-37767Y110836D01*
X-37799Y110835D01*
X-37871Y110843D01*
X-43979Y110843D01*
X-44070Y110829D01*
X-44160Y110821D01*
X-44190Y110809D01*
X-44222Y110804D01*
X-44303Y110761D01*
X-44387Y110725D01*
X-44419Y110699D01*
X-44440Y110688D01*
X-44462Y110665D01*
X-44518Y110620D01*
X-45647Y109491D01*
X-45700Y109417D01*
X-45760Y109347D01*
X-45772Y109317D01*
X-45791Y109291D01*
X-45818Y109204D01*
X-45852Y109119D01*
X-45856Y109078D01*
X-45863Y109056D01*
X-45862Y109024D01*
X-45870Y108952D01*
X-45870Y107601D01*
X-48758Y104713D01*
X-52842Y104713D01*
G37*
%LPD*%
D10*
X61913Y113413D03*
X61913Y125413D03*
X61913Y137412D03*
D11*
X44450Y63500D03*
D12*
X-70875Y204325D03*
X-70875Y187325D03*
D13*
X-38663Y53975D03*
X-21663Y53975D03*
D12*
X85725Y140263D03*
X85725Y123263D03*
X53413Y166688D03*
X70413Y166688D03*
X53413Y157163D03*
X70413Y157163D03*
D13*
X-52388Y145025D03*
X-52388Y128025D03*
D14*
X52413Y193675D03*
X71413Y193675D03*
X52413Y179388D03*
X71413Y179388D03*
D15*
X-65088Y146025D03*
X-65088Y127025D03*
D16*
X-125413Y174625D03*
X-125413Y149225D03*
X-125413Y123825D03*
D17*
X165200Y150813D03*
X82600Y7713D03*
X-82600Y7713D03*
X-165200Y150813D03*
X123900Y222313D03*
X123900Y79313D03*
X0Y7713D03*
X-123900Y79313D03*
X-123900Y222313D03*
D13*
X41275Y213750D03*
X41275Y230750D03*
X-77788Y145025D03*
X-77788Y128025D03*
D18*
X-96838Y152113D03*
X-96838Y124113D03*
D19*
X33800Y164032D03*
X33800Y159031D03*
X33800Y154029D03*
X33800Y149028D03*
X33800Y144027D03*
X33800Y139026D03*
X33800Y134024D03*
X33800Y129023D03*
X33800Y124022D03*
X33800Y119021D03*
X33800Y114019D03*
X33800Y109018D03*
D20*
X27507Y102725D03*
X22506Y102725D03*
X17504Y102725D03*
X12503Y102725D03*
X7502Y102725D03*
X2501Y102725D03*
X-2501Y102725D03*
X-7502Y102725D03*
X-12503Y102725D03*
X-17504Y102725D03*
X-22506Y102725D03*
X-27507Y102725D03*
D19*
X-33800Y109018D03*
X-33800Y114019D03*
X-33800Y119021D03*
X-33800Y124022D03*
X-33800Y129023D03*
X-33800Y134024D03*
X-33800Y139026D03*
X-33800Y144027D03*
X-33800Y149028D03*
X-33800Y154029D03*
X-33800Y159031D03*
X-33800Y164032D03*
D20*
X-27507Y170325D03*
X-22506Y170325D03*
X-17504Y170325D03*
X-12503Y170325D03*
X-7502Y170325D03*
X-2501Y170325D03*
X2501Y170325D03*
X7502Y170325D03*
X12503Y170325D03*
X17504Y170325D03*
X22506Y170325D03*
X27507Y170325D03*
D21*
X0Y136525D03*
D22*
X-52388Y168275D03*
X-92075Y169863D03*
X-106363Y161925D03*
X-52388Y157163D03*
D23*
X-46389Y139026D02*
X-33800Y139026D01*
X-46389Y139026D02*
X-52388Y145025D01*
X-46389Y134024D02*
X-52388Y128025D01*
X-46389Y134024D02*
X-33800Y134024D01*
D24*
X31750Y290513D03*
X4763Y290513D03*
X-23813Y290513D03*
X-52388Y252413D03*
X-52388Y239713D03*
X107950Y176213D03*
X38100Y277813D03*
X-69850Y290513D03*
X-100013Y198438D03*
X-4763Y50800D03*
X28575Y77788D03*
X53975Y53975D03*
X-39688Y293688D03*
X-38100Y269875D03*
X-69850Y276225D03*
X-58738Y263525D03*
X-82550Y263525D03*
X-22225Y266700D03*
X0Y269875D03*
X26988Y266700D03*
X69850Y266700D03*
X68263Y287338D03*
X52388Y288925D03*
X87313Y279400D03*
X93663Y260350D03*
X3175Y244475D03*
X-22225Y244475D03*
X-22225Y222250D03*
X1588Y222250D03*
X-95250Y209550D03*
X-15875Y153988D03*
X12700Y153988D03*
X14288Y117475D03*
X-14288Y117475D03*
X100013Y196850D03*
X138113Y182563D03*
X0Y138113D03*
X0Y60325D03*
X-69850Y87313D03*
X28575Y55563D03*
X1588Y88900D03*
X-22225Y139700D03*
X19050Y139700D03*
X-47625Y90488D03*
X-44450Y100013D03*
X53975Y103188D03*
X96838Y122238D03*
X73025Y93663D03*
X52388Y234950D03*
X28575Y219075D03*
X-93663Y222250D03*
X-93663Y255588D03*
X-93663Y244475D03*
X50800Y266700D03*
D22*
X100013Y150813D03*
D25*
X85725Y165100D02*
X85725Y206375D01*
X85725Y165100D02*
X100013Y150813D01*
X85725Y206375D02*
X52388Y206375D01*
X52388Y193700D01*
X52413Y193675D01*
D23*
X45124Y134024D02*
X33800Y134024D01*
X51484Y140384D02*
X51484Y140833D01*
X68762Y157163D02*
X70413Y157163D01*
X68762Y157163D02*
X60333Y148734D01*
X59384Y148734D02*
X51484Y140833D01*
X59384Y148734D02*
X60333Y148734D01*
X51484Y140384D02*
X45124Y134024D01*
D26*
X-28575Y61913D02*
X-28575Y60888D01*
X-21663Y53975D01*
D24*
X-28575Y61913D03*
X44450Y117475D03*
D26*
X44141Y117166D02*
X42287Y119021D01*
X33800Y119021D01*
X44141Y117166D02*
X44450Y117475D01*
X-33800Y164032D02*
X-33800Y167355D01*
X-49008Y182563D01*
X-69850Y182563D01*
X-117475Y182563D01*
X-125413Y174625D01*
D27*
X-125413Y149225D01*
D26*
X-70875Y187325D02*
X-69850Y186300D01*
X-69850Y182563D01*
D23*
X33800Y124022D02*
X47428Y124022D01*
X58037Y113413D02*
X61913Y113413D01*
X58037Y113413D02*
X47428Y124022D01*
X33848Y129071D02*
X33800Y129023D01*
X33848Y129071D02*
X47176Y129071D01*
X55517Y137412D02*
X61913Y137412D01*
X55517Y137412D02*
X47176Y129071D01*
D26*
X-114300Y134938D02*
X-125413Y123825D01*
X-40700Y161350D02*
X-38100Y158750D01*
X-34081Y158750D01*
X-33800Y159031D01*
X-114300Y171450D02*
X-114300Y134938D01*
X-114300Y171450D02*
X-108963Y176788D01*
X-51107Y176788D02*
X-40700Y166381D01*
X-40700Y161350D01*
X-51107Y176788D02*
X-108963Y176788D01*
D24*
X141288Y106363D03*
D23*
X139700Y107950D01*
X117475Y107950D01*
X95250Y85725D01*
X41332Y85725D01*
X27507Y99550D01*
X27507Y102725D01*
X22506Y102725D02*
X22506Y96557D01*
X122313Y77725D02*
X123900Y79313D01*
X122313Y77725D02*
X41338Y77725D01*
X22506Y96557D01*
D28*
X-99485Y237599D03*
D23*
X-65495Y237599D01*
X-7550Y170373D02*
X-7502Y170325D01*
X-7550Y170373D02*
X-7550Y179655D01*
X-65495Y237599D01*
X-116025Y230188D02*
X-123900Y222313D01*
X-12503Y177603D02*
X-12503Y170325D01*
X-65088Y230188D02*
X-116025Y230188D01*
X-65088Y230188D02*
X-12503Y177603D01*
X-17504Y102725D02*
X-17504Y92034D01*
X-58738Y50800D02*
X-107950Y50800D01*
D24*
X-107950Y50800D03*
D23*
X-58738Y50800D02*
X-17504Y92034D01*
X-22506Y94969D02*
X-22506Y102725D01*
X-22506Y94969D02*
X-60325Y57150D01*
X-101738Y57150D01*
X-123900Y79313D01*
D26*
X-12700Y102528D02*
X-12503Y102725D01*
X-38663Y62938D02*
X-38663Y53975D01*
X-12700Y88900D02*
X-12700Y102528D01*
X-12700Y88900D02*
X-38663Y62938D01*
X-39885Y124022D02*
X-33800Y124022D01*
X-39885Y124022D02*
X-41275Y125413D01*
D24*
X-41275Y125413D03*
D28*
X-1588Y201613D03*
D26*
X-3175Y200025D01*
X-3175Y190500D01*
X2501Y184824D01*
X2501Y170325D01*
D28*
X5278Y195263D03*
D26*
X7502Y193039D01*
X7502Y170325D01*
D28*
X-9104Y208383D03*
D23*
X-9104Y188213D01*
X-2549Y170373D02*
X-2501Y170325D01*
X-2549Y181658D02*
X-9104Y188213D01*
X-2549Y181658D02*
X-2549Y170373D01*
D26*
X-27507Y170325D02*
X-47682Y190500D01*
X-52388Y190500D01*
D24*
X-52388Y190500D03*
X30163Y193675D03*
D26*
X22506Y186019D01*
X22506Y170325D01*
D28*
X39688Y193675D03*
D26*
X27507Y181495D02*
X27507Y170325D01*
X27507Y181495D02*
X39688Y193675D01*
X41275Y195263D02*
X41275Y213750D01*
X41275Y195263D02*
X39688Y193675D01*
D28*
X39688Y184150D03*
D26*
X39688Y169920D01*
X33800Y164032D01*
X-33800Y119021D02*
X-49375Y119021D01*
X-50800Y117596D01*
D24*
X-50800Y117596D03*
X-50800Y109643D03*
D26*
X-45610Y114019D02*
X-33800Y114019D01*
X-45610Y114019D02*
X-48232Y111397D01*
X-49046Y111397D01*
X-50800Y109643D01*
D24*
X-53975Y207963D03*
D26*
X-22506Y176494D01*
X-22506Y170325D01*
D23*
X101738Y244475D02*
X123900Y222313D01*
X17504Y224812D02*
X17504Y170325D01*
X17504Y224812D02*
X37167Y244475D01*
X101738Y244475D01*
X12503Y229991D02*
X12503Y170325D01*
X12503Y229991D02*
X33338Y250825D01*
X108423Y250825D01*
X108527Y250720D01*
D28*
X108527Y250720D03*
D23*
X17504Y102725D02*
X17504Y28534D01*
X33338Y12700D02*
X33338Y6350D01*
X33338Y12700D02*
X17504Y28534D01*
D24*
X33338Y6350D03*
D23*
X12503Y20216D02*
X0Y7713D01*
X12503Y20216D02*
X12503Y102725D01*
M02*
