G04 EAGLE Gerber RS-274X export*
G75*
%MOMM*%
%FSLAX34Y34*%
%LPD*%
%INSilkscreen Top*%
%IPPOS*%
%AMOC8*
5,1,8,0,0,1.08239X$1,22.5*%
G01*
%ADD10R,0.751331X0.014731*%
%ADD11R,0.883919X0.014731*%
%ADD12R,1.001775X0.014731*%
%ADD13R,1.119631X0.014731*%
%ADD14R,1.134363X0.014731*%
%ADD15R,1.149094X0.014731*%
%ADD16R,1.163825X0.014731*%
%ADD17R,1.178556X0.014731*%
%ADD18R,1.193288X0.014731*%
%ADD19R,1.222756X0.014731*%
%ADD20R,1.237488X0.014731*%
%ADD21R,1.266950X0.014731*%
%ADD22R,1.281681X0.014731*%
%ADD23R,1.311144X0.014731*%
%ADD24R,1.325881X0.014731*%
%ADD25R,1.355344X0.014731*%
%ADD26R,1.370075X0.014731*%
%ADD27R,1.384806X0.014731*%
%ADD28R,1.399538X0.014731*%
%ADD29R,1.414275X0.014731*%
%ADD30R,1.443738X0.014731*%
%ADD31R,1.458469X0.014731*%
%ADD32R,1.487931X0.014731*%
%ADD33R,1.502663X0.014731*%
%ADD34R,1.517394X0.014731*%
%ADD35R,1.532125X0.014731*%
%ADD36R,1.546856X0.014731*%
%ADD37R,1.576319X0.014731*%
%ADD38R,1.605788X0.014731*%
%ADD39R,1.620519X0.014731*%
%ADD40R,1.649981X0.014731*%
%ADD41R,1.664713X0.014731*%
%ADD42R,1.694175X0.014731*%
%ADD43R,1.708913X0.014731*%
%ADD44R,1.738375X0.014731*%
%ADD45R,1.753106X0.014731*%
%ADD46R,1.767838X0.014731*%
%ADD47R,1.782569X0.014731*%
%ADD48R,1.797306X0.014731*%
%ADD49R,0.117856X0.014731*%
%ADD50R,1.826769X0.014731*%
%ADD51R,0.235713X0.014731*%
%ADD52R,0.353569X0.014731*%
%ADD53R,1.856231X0.014731*%
%ADD54R,0.486156X0.014731*%
%ADD55R,1.870963X0.014731*%
%ADD56R,0.604013X0.014731*%
%ADD57R,0.721869X0.014731*%
%ADD58R,1.885694X0.014731*%
%ADD59R,0.839719X0.014731*%
%ADD60R,0.972306X0.014731*%
%ADD61R,1.090169X0.014731*%
%ADD62R,1.208025X0.014731*%
%ADD63R,1.252219X0.014731*%
%ADD64R,1.296412X0.014731*%
%ADD65R,1.340612X0.014731*%
%ADD66R,1.826763X0.014731*%
%ADD67R,1.414269X0.014731*%
%ADD68R,1.812031X0.014731*%
%ADD69R,1.429000X0.014731*%
%ADD70R,1.458462X0.014731*%
%ADD71R,1.473200X0.014731*%
%ADD72R,1.723644X0.014731*%
%ADD73R,1.694181X0.014731*%
%ADD74R,1.679450X0.014731*%
%ADD75R,1.561594X0.014731*%
%ADD76R,1.576325X0.014731*%
%ADD77R,1.591056X0.014731*%
%ADD78R,1.635250X0.014731*%
%ADD79R,1.561588X0.014731*%
%ADD80R,1.443731X0.014731*%
%ADD81R,1.797300X0.014731*%
%ADD82R,1.841500X0.014731*%
%ADD83R,1.311150X0.014731*%
%ADD84R,1.296419X0.014731*%
%ADD85R,1.193294X0.014731*%
%ADD86R,0.957575X0.014731*%
%ADD87R,0.589281X0.014731*%
%ADD88R,0.471425X0.014731*%
%ADD89R,0.220975X0.014731*%
%ADD90R,1.812038X0.014731*%
%ADD91R,0.103119X0.014731*%
%ADD92R,0.029463X0.014731*%
%ADD93R,0.162050X0.014731*%
%ADD94R,0.265175X0.014731*%
%ADD95R,0.397763X0.014731*%
%ADD96R,0.515619X0.014731*%
%ADD97R,0.648206X0.014731*%
%ADD98R,1.679444X0.014731*%
%ADD99R,1.016506X0.014731*%
%ADD100R,1.104900X0.014731*%
%ADD101R,1.222750X0.014731*%
%ADD102R,1.434338X0.014731*%
%ADD103R,1.208019X0.014731*%
%ADD104R,0.987044X0.014731*%
%ADD105R,0.854456X0.014731*%
%ADD106R,0.618744X0.014731*%
%ADD107R,0.500888X0.014731*%
%ADD108R,0.368300X0.014731*%
%ADD109R,0.132587X0.014731*%
%ADD110R,0.014731X0.014731*%
%ADD111R,1.664719X0.014731*%
%ADD112R,1.075438X0.014731*%
%ADD113R,0.942844X0.014731*%
%ADD114R,0.707131X0.014731*%
%ADD115R,0.456694X0.014731*%
%ADD116R,0.088388X0.014731*%
%ADD117C,0.152400*%
%ADD118C,0.101600*%
%ADD119C,0.127000*%
%ADD120C,0.076200*%
%ADD121C,0.254000*%
%ADD122C,0.508000*%


D10*
X-60253Y50171D03*
D11*
X-60768Y50319D03*
D12*
X-61210Y50466D03*
D13*
X-61652Y50613D03*
D14*
X-61726Y50761D03*
D15*
X-61652Y50908D03*
D16*
X-61579Y51055D03*
D17*
X-61652Y51203D03*
D18*
X-61579Y51350D03*
D19*
X-61579Y51497D03*
D20*
X-61505Y51645D03*
X-61505Y51792D03*
D21*
X-61505Y51939D03*
D22*
X-61431Y52087D03*
D23*
X-61431Y52234D03*
X-61431Y52381D03*
D24*
X-61358Y52528D03*
D25*
X-61358Y52676D03*
D26*
X-61284Y52823D03*
D27*
X-61358Y52970D03*
D28*
X-61284Y53118D03*
D29*
X-61210Y53265D03*
D30*
X-61210Y53412D03*
X-61210Y53560D03*
D31*
X-61137Y53707D03*
D32*
X-61137Y53854D03*
D33*
X-61063Y54002D03*
D34*
X-61137Y54149D03*
D35*
X-61063Y54296D03*
D36*
X-60989Y54444D03*
D37*
X-60989Y54591D03*
X-60989Y54738D03*
D38*
X-60989Y54886D03*
D39*
X-60916Y55033D03*
X-60916Y55180D03*
D40*
X-60916Y55328D03*
D41*
X-60842Y55475D03*
D42*
X-60842Y55622D03*
X-60842Y55770D03*
D43*
X-60768Y55917D03*
D44*
X-60768Y56064D03*
D45*
X-60695Y56211D03*
D46*
X-60768Y56359D03*
D47*
X-60695Y56506D03*
D48*
X-60621Y56653D03*
D49*
X-40143Y56653D03*
D50*
X-60621Y56801D03*
D51*
X-40733Y56801D03*
D50*
X-60621Y56948D03*
D52*
X-41175Y56948D03*
D53*
X-60621Y57095D03*
D54*
X-41690Y57095D03*
D55*
X-60547Y57243D03*
D56*
X-42132Y57243D03*
D55*
X-60547Y57390D03*
D57*
X-42722Y57390D03*
D58*
X-60621Y57537D03*
D59*
X-43164Y57537D03*
D58*
X-60621Y57685D03*
D60*
X-43679Y57685D03*
D55*
X-60695Y57832D03*
D61*
X-44121Y57832D03*
D58*
X-60768Y57979D03*
D13*
X-44268Y57979D03*
D58*
X-60768Y58127D03*
D15*
X-44268Y58127D03*
D58*
X-60916Y58274D03*
D16*
X-44195Y58274D03*
D58*
X-60916Y58421D03*
D17*
X-44121Y58421D03*
D55*
X-60989Y58569D03*
D18*
X-44195Y58569D03*
D58*
X-61063Y58716D03*
D62*
X-44121Y58716D03*
D58*
X-61063Y58863D03*
D20*
X-44121Y58863D03*
D58*
X-61210Y59011D03*
D63*
X-44047Y59011D03*
D58*
X-61210Y59158D03*
D63*
X-44047Y59158D03*
D55*
X-61284Y59305D03*
D22*
X-44047Y59305D03*
D58*
X-61358Y59453D03*
D64*
X-43974Y59453D03*
D58*
X-61358Y59600D03*
D24*
X-43974Y59600D03*
D58*
X-61505Y59747D03*
D24*
X-43974Y59747D03*
D58*
X-61505Y59894D03*
D65*
X-43900Y59894D03*
D55*
X-61579Y60042D03*
D26*
X-43900Y60042D03*
D53*
X-61505Y60189D03*
D27*
X-43826Y60189D03*
D53*
X-61505Y60336D03*
D28*
X-43900Y60336D03*
D66*
X-61505Y60484D03*
D67*
X-43826Y60484D03*
D68*
X-61431Y60631D03*
D69*
X-43753Y60631D03*
D47*
X-61431Y60778D03*
D70*
X-43753Y60778D03*
D47*
X-61431Y60926D03*
D70*
X-43753Y60926D03*
D46*
X-61358Y61073D03*
D71*
X-43679Y61073D03*
D44*
X-61358Y61220D03*
D33*
X-43679Y61220D03*
D72*
X-61284Y61368D03*
D33*
X-43679Y61368D03*
D43*
X-61358Y61515D03*
D35*
X-43679Y61515D03*
D73*
X-61284Y61662D03*
D36*
X-43605Y61662D03*
D74*
X-61210Y61810D03*
D75*
X-43532Y61810D03*
D40*
X-61210Y61957D03*
D76*
X-43605Y61957D03*
D40*
X-61210Y62104D03*
D77*
X-43532Y62104D03*
D78*
X-61137Y62252D03*
D39*
X-43532Y62252D03*
D38*
X-61137Y62399D03*
D78*
X-43458Y62399D03*
D38*
X-61137Y62546D03*
D78*
X-43458Y62546D03*
D76*
X-61137Y62694D03*
D41*
X-43458Y62694D03*
D79*
X-61063Y62841D03*
D74*
X-43384Y62841D03*
D36*
X-60989Y62988D03*
D43*
X-43384Y62988D03*
D35*
X-61063Y63136D03*
D43*
X-43384Y63136D03*
D34*
X-60989Y63283D03*
D72*
X-43311Y63283D03*
D32*
X-60989Y63430D03*
D45*
X-43311Y63430D03*
D71*
X-60916Y63577D03*
D46*
X-43237Y63577D03*
D71*
X-60916Y63725D03*
D47*
X-43311Y63725D03*
D80*
X-60916Y63872D03*
D81*
X-43237Y63872D03*
D69*
X-60842Y64019D03*
D68*
X-43164Y64019D03*
D28*
X-60842Y64167D03*
D82*
X-43164Y64167D03*
D28*
X-60842Y64314D03*
D82*
X-43164Y64314D03*
D27*
X-60768Y64461D03*
D55*
X-43164Y64461D03*
D25*
X-60768Y64609D03*
D58*
X-43090Y64609D03*
D65*
X-60695Y64756D03*
D55*
X-43164Y64756D03*
D24*
X-60768Y64903D03*
D58*
X-43237Y64903D03*
D83*
X-60695Y65051D03*
D58*
X-43237Y65051D03*
D84*
X-60621Y65198D03*
D55*
X-43311Y65198D03*
D21*
X-60621Y65345D03*
D58*
X-43384Y65345D03*
D21*
X-60621Y65493D03*
D58*
X-43384Y65493D03*
D63*
X-60547Y65640D03*
D58*
X-43532Y65640D03*
D19*
X-60547Y65787D03*
D58*
X-43532Y65787D03*
D62*
X-60474Y65935D03*
D55*
X-43605Y65935D03*
D85*
X-60547Y66082D03*
D58*
X-43679Y66082D03*
D17*
X-60474Y66229D03*
D58*
X-43679Y66229D03*
D16*
X-60400Y66377D03*
D58*
X-43826Y66377D03*
D15*
X-60474Y66524D03*
D58*
X-43826Y66524D03*
D14*
X-60400Y66671D03*
D55*
X-43900Y66671D03*
D61*
X-60474Y66819D03*
D58*
X-43974Y66819D03*
D86*
X-60989Y66966D03*
D58*
X-43974Y66966D03*
D59*
X-61579Y67113D03*
D58*
X-44121Y67113D03*
D57*
X-62020Y67260D03*
D58*
X-44121Y67260D03*
D87*
X-62536Y67408D03*
D53*
X-44121Y67408D03*
D88*
X-62978Y67555D03*
D82*
X-44047Y67555D03*
D52*
X-63567Y67702D03*
D82*
X-44047Y67702D03*
D89*
X-64083Y67850D03*
D90*
X-44047Y67850D03*
D91*
X-64525Y67997D03*
D48*
X-43974Y67997D03*
D92*
X-54728Y68144D03*
D47*
X-44047Y68144D03*
D93*
X-55244Y68292D03*
D46*
X-43974Y68292D03*
D94*
X-55759Y68439D03*
D45*
X-43900Y68439D03*
D95*
X-56275Y68586D03*
D72*
X-43900Y68586D03*
D96*
X-56717Y68734D03*
D72*
X-43900Y68734D03*
D97*
X-57233Y68881D03*
D73*
X-43900Y68881D03*
D10*
X-57748Y69028D03*
D98*
X-43826Y69028D03*
D11*
X-58264Y69176D03*
D41*
X-43753Y69176D03*
D99*
X-58779Y69323D03*
D40*
X-43826Y69323D03*
D100*
X-59221Y69470D03*
D78*
X-43753Y69470D03*
D14*
X-59221Y69618D03*
D39*
X-43679Y69618D03*
D15*
X-59148Y69765D03*
D77*
X-43679Y69765D03*
D16*
X-59074Y69912D03*
D77*
X-43679Y69912D03*
D17*
X-59148Y70060D03*
D79*
X-43679Y70060D03*
D18*
X-59074Y70207D03*
D36*
X-43605Y70207D03*
D101*
X-59074Y70354D03*
D35*
X-43532Y70354D03*
D20*
X-59000Y70502D03*
D34*
X-43605Y70502D03*
D20*
X-59000Y70649D03*
D33*
X-43532Y70649D03*
D21*
X-59000Y70796D03*
D71*
X-43532Y70796D03*
D22*
X-58927Y70943D03*
D31*
X-43458Y70943D03*
D23*
X-58927Y71091D03*
D31*
X-43458Y71091D03*
D23*
X-58927Y71238D03*
D102*
X-43495Y71238D03*
D24*
X-58853Y71385D03*
D67*
X-43384Y71385D03*
D25*
X-58853Y71533D03*
D27*
X-43384Y71533D03*
D26*
X-58779Y71680D03*
D27*
X-43384Y71680D03*
X-58853Y71827D03*
D26*
X-43311Y71827D03*
D28*
X-58779Y71975D03*
D65*
X-43311Y71975D03*
D67*
X-58706Y72122D03*
D65*
X-43311Y72122D03*
D30*
X-58706Y72269D03*
D83*
X-43311Y72269D03*
D30*
X-58706Y72417D03*
D64*
X-43237Y72417D03*
D71*
X-58706Y72564D03*
D22*
X-43164Y72564D03*
D32*
X-58632Y72711D03*
D21*
X-43237Y72711D03*
D33*
X-58558Y72859D03*
D63*
X-43164Y72859D03*
D34*
X-58632Y73006D03*
D19*
X-43164Y73006D03*
D35*
X-58558Y73153D03*
D103*
X-43090Y73153D03*
D79*
X-58558Y73301D03*
D103*
X-43090Y73301D03*
D37*
X-58485Y73448D03*
D17*
X-43090Y73448D03*
D37*
X-58485Y73595D03*
D16*
X-43016Y73595D03*
D38*
X-58485Y73743D03*
D15*
X-42943Y73743D03*
D39*
X-58411Y73890D03*
D14*
X-43016Y73890D03*
D39*
X-58411Y74037D03*
D100*
X-43016Y74037D03*
D40*
X-58411Y74185D03*
D104*
X-43458Y74185D03*
D41*
X-58337Y74332D03*
D105*
X-43974Y74332D03*
D42*
X-58337Y74479D03*
D10*
X-44489Y74479D03*
D42*
X-58337Y74626D03*
D106*
X-45005Y74626D03*
D43*
X-58264Y74774D03*
D107*
X-45447Y74774D03*
D44*
X-58264Y74921D03*
D108*
X-45963Y74921D03*
D45*
X-58190Y75068D03*
D94*
X-46478Y75068D03*
D46*
X-58264Y75216D03*
D109*
X-46994Y75216D03*
D47*
X-58190Y75363D03*
D110*
X-47436Y75363D03*
D48*
X-58116Y75510D03*
D50*
X-58116Y75658D03*
X-58116Y75805D03*
D53*
X-58116Y75952D03*
D55*
X-58043Y76100D03*
X-58043Y76247D03*
D58*
X-58116Y76394D03*
X-58116Y76542D03*
X-58264Y76689D03*
X-58264Y76836D03*
D55*
X-58337Y76984D03*
D58*
X-58411Y77131D03*
X-58411Y77278D03*
X-58558Y77426D03*
X-58558Y77573D03*
D55*
X-58632Y77720D03*
D58*
X-58706Y77868D03*
X-58706Y78015D03*
D55*
X-58779Y78162D03*
D58*
X-58853Y78309D03*
X-58853Y78457D03*
X-59000Y78604D03*
X-59000Y78751D03*
D55*
X-59074Y78899D03*
D53*
X-59000Y79046D03*
X-59000Y79193D03*
D66*
X-59000Y79341D03*
D68*
X-58927Y79488D03*
D47*
X-58927Y79635D03*
X-58927Y79783D03*
D46*
X-58853Y79930D03*
D44*
X-58853Y80077D03*
D72*
X-58779Y80225D03*
D43*
X-58853Y80372D03*
D73*
X-58779Y80519D03*
D74*
X-58706Y80667D03*
D111*
X-58779Y80814D03*
D40*
X-58706Y80961D03*
D39*
X-58706Y81109D03*
D38*
X-58632Y81256D03*
X-58632Y81403D03*
D76*
X-58632Y81551D03*
D79*
X-58558Y81698D03*
D35*
X-58558Y81845D03*
X-58558Y81992D03*
D34*
X-58485Y82140D03*
D32*
X-58485Y82287D03*
D71*
X-58411Y82434D03*
X-58411Y82582D03*
D80*
X-58411Y82729D03*
D69*
X-58337Y82876D03*
D28*
X-58337Y83024D03*
X-58337Y83171D03*
D27*
X-58264Y83318D03*
D25*
X-58264Y83466D03*
D65*
X-58190Y83613D03*
D24*
X-58264Y83760D03*
D83*
X-58190Y83908D03*
D84*
X-58116Y84055D03*
D21*
X-58116Y84202D03*
X-58116Y84350D03*
D20*
X-58116Y84497D03*
D19*
X-58043Y84644D03*
D62*
X-57969Y84792D03*
D85*
X-58043Y84939D03*
D17*
X-57969Y85086D03*
D15*
X-57969Y85234D03*
X-57969Y85381D03*
D14*
X-57896Y85528D03*
D112*
X-58043Y85675D03*
D113*
X-58558Y85823D03*
D59*
X-59074Y85970D03*
D114*
X-59590Y86117D03*
D87*
X-60032Y86265D03*
D115*
X-60547Y86412D03*
D52*
X-61063Y86559D03*
D89*
X-61579Y86707D03*
D116*
X-62094Y86854D03*
D49*
X-57593Y49326D03*
D51*
X-58183Y49473D03*
D52*
X-58624Y49620D03*
D54*
X-59140Y49767D03*
D56*
X-59582Y49915D03*
D57*
X-60171Y50062D03*
D59*
X-60613Y50209D03*
D60*
X-61129Y50357D03*
D61*
X-61571Y50504D03*
D13*
X-61718Y50651D03*
D117*
X97564Y205724D02*
X108993Y219344D01*
X112776Y216170D01*
X112776Y216169D02*
X112882Y216078D01*
X112985Y215984D01*
X113085Y215887D01*
X113183Y215787D01*
X113278Y215684D01*
X113369Y215579D01*
X113458Y215471D01*
X113544Y215360D01*
X113627Y215247D01*
X113706Y215132D01*
X113782Y215015D01*
X113855Y214896D01*
X113924Y214774D01*
X113990Y214651D01*
X114052Y214526D01*
X114111Y214399D01*
X114166Y214271D01*
X114218Y214141D01*
X114266Y214009D01*
X114310Y213877D01*
X114350Y213743D01*
X114386Y213608D01*
X114419Y213472D01*
X114448Y213335D01*
X114473Y213198D01*
X114494Y213060D01*
X114511Y212921D01*
X114524Y212782D01*
X114533Y212642D01*
X114539Y212502D01*
X114540Y212363D01*
X114537Y212223D01*
X114531Y212083D01*
X114520Y211944D01*
X114506Y211805D01*
X114487Y211666D01*
X114465Y211528D01*
X114439Y211391D01*
X114409Y211255D01*
X114375Y211119D01*
X114337Y210984D01*
X114295Y210851D01*
X114250Y210719D01*
X114201Y210588D01*
X114148Y210458D01*
X114092Y210330D01*
X114032Y210204D01*
X113968Y210080D01*
X113901Y209957D01*
X113831Y209836D01*
X113757Y209718D01*
X113680Y209601D01*
X113599Y209487D01*
X113516Y209375D01*
X113429Y209265D01*
X113339Y209158D01*
X113246Y209054D01*
X113151Y208952D01*
X113052Y208853D01*
X112951Y208756D01*
X112847Y208663D01*
X112740Y208573D01*
X112631Y208485D01*
X112519Y208401D01*
X112405Y208320D01*
X112289Y208243D01*
X112171Y208168D01*
X112050Y208097D01*
X111928Y208030D01*
X111804Y207965D01*
X111678Y207905D01*
X111550Y207848D01*
X111421Y207795D01*
X111290Y207745D01*
X111158Y207699D01*
X111025Y207657D01*
X110891Y207618D01*
X110755Y207584D01*
X110619Y207553D01*
X110482Y207526D01*
X110344Y207503D01*
X110205Y207484D01*
X110066Y207469D01*
X109927Y207458D01*
X109787Y207451D01*
X109648Y207447D01*
X109508Y207448D01*
X109368Y207452D01*
X109229Y207461D01*
X109089Y207474D01*
X108951Y207490D01*
X108812Y207510D01*
X108675Y207535D01*
X108538Y207563D01*
X108402Y207595D01*
X108267Y207631D01*
X108132Y207670D01*
X108000Y207714D01*
X107868Y207761D01*
X107738Y207812D01*
X107609Y207866D01*
X107482Y207925D01*
X107357Y207986D01*
X107233Y208052D01*
X107111Y208120D01*
X106992Y208193D01*
X106874Y208268D01*
X106759Y208347D01*
X106645Y208429D01*
X106535Y208514D01*
X106426Y208603D01*
X106427Y208603D02*
X102643Y211778D01*
X118706Y206036D02*
X125029Y205888D01*
X113600Y192268D01*
X109817Y195443D02*
X117383Y189093D01*
X92486Y83750D02*
X107884Y74860D01*
X92486Y83750D02*
X94955Y88027D01*
X95026Y88147D01*
X95101Y88265D01*
X95180Y88380D01*
X95261Y88494D01*
X95346Y88605D01*
X95434Y88714D01*
X95524Y88820D01*
X95618Y88924D01*
X95715Y89025D01*
X95815Y89123D01*
X95917Y89218D01*
X96022Y89310D01*
X96129Y89400D01*
X96239Y89486D01*
X96352Y89569D01*
X96466Y89649D01*
X96583Y89726D01*
X96702Y89799D01*
X96823Y89869D01*
X96946Y89935D01*
X97071Y89998D01*
X97198Y90058D01*
X97326Y90113D01*
X97456Y90165D01*
X97587Y90214D01*
X97719Y90259D01*
X97853Y90300D01*
X97987Y90337D01*
X98123Y90370D01*
X98260Y90399D01*
X98397Y90425D01*
X98535Y90447D01*
X98674Y90464D01*
X98813Y90478D01*
X98953Y90488D01*
X99092Y90494D01*
X99232Y90496D01*
X99372Y90494D01*
X99511Y90488D01*
X99651Y90478D01*
X99790Y90464D01*
X99929Y90447D01*
X100067Y90425D01*
X100204Y90399D01*
X100341Y90370D01*
X100477Y90337D01*
X100611Y90299D01*
X100745Y90259D01*
X100877Y90214D01*
X101009Y90165D01*
X101138Y90113D01*
X101266Y90058D01*
X101393Y89998D01*
X101518Y89935D01*
X101641Y89869D01*
X101762Y89799D01*
X101881Y89726D01*
X101998Y89649D01*
X102112Y89569D01*
X102225Y89486D01*
X102335Y89400D01*
X102442Y89310D01*
X102547Y89218D01*
X102649Y89123D01*
X102749Y89025D01*
X102846Y88924D01*
X102940Y88820D01*
X103030Y88714D01*
X103118Y88605D01*
X103203Y88494D01*
X103284Y88380D01*
X103363Y88265D01*
X103438Y88147D01*
X103509Y88026D01*
X103577Y87904D01*
X103642Y87781D01*
X103703Y87655D01*
X103761Y87527D01*
X103815Y87399D01*
X103865Y87268D01*
X103912Y87136D01*
X103955Y87003D01*
X103994Y86869D01*
X104029Y86734D01*
X104060Y86598D01*
X104088Y86460D01*
X104111Y86323D01*
X104131Y86184D01*
X104147Y86045D01*
X104159Y85906D01*
X104167Y85767D01*
X104171Y85627D01*
X104171Y85487D01*
X104167Y85347D01*
X104159Y85208D01*
X104147Y85069D01*
X104131Y84930D01*
X104111Y84791D01*
X104088Y84653D01*
X104060Y84516D01*
X104029Y84380D01*
X103994Y84245D01*
X103955Y84111D01*
X103912Y83978D01*
X103865Y83846D01*
X103815Y83715D01*
X103761Y83586D01*
X103703Y83459D01*
X103642Y83333D01*
X103577Y83210D01*
X103509Y83087D01*
X103510Y83088D02*
X101040Y78811D01*
X103200Y102307D02*
X103267Y102420D01*
X103338Y102531D01*
X103412Y102640D01*
X103489Y102746D01*
X103570Y102851D01*
X103653Y102952D01*
X103740Y103052D01*
X103829Y103149D01*
X103921Y103243D01*
X104016Y103334D01*
X104114Y103422D01*
X104214Y103508D01*
X104317Y103590D01*
X104422Y103670D01*
X104530Y103746D01*
X104639Y103819D01*
X104751Y103889D01*
X104865Y103955D01*
X104980Y104018D01*
X105098Y104078D01*
X105217Y104134D01*
X105338Y104186D01*
X105460Y104235D01*
X105584Y104281D01*
X105709Y104322D01*
X105835Y104360D01*
X105962Y104394D01*
X106090Y104424D01*
X106220Y104451D01*
X106349Y104474D01*
X106480Y104492D01*
X106611Y104507D01*
X106742Y104518D01*
X106873Y104526D01*
X107005Y104529D01*
X107137Y104528D01*
X107268Y104524D01*
X107400Y104515D01*
X107531Y104503D01*
X107662Y104487D01*
X107792Y104466D01*
X107922Y104443D01*
X108050Y104415D01*
X108178Y104383D01*
X108305Y104348D01*
X108431Y104309D01*
X108556Y104266D01*
X108679Y104219D01*
X108801Y104169D01*
X108921Y104116D01*
X109040Y104058D01*
X109156Y103998D01*
X109271Y103933D01*
X103199Y102307D02*
X103126Y102176D01*
X103056Y102044D01*
X102990Y101909D01*
X102928Y101773D01*
X102869Y101636D01*
X102813Y101497D01*
X102761Y101357D01*
X102713Y101215D01*
X102669Y101072D01*
X102628Y100928D01*
X102592Y100783D01*
X102559Y100637D01*
X102529Y100490D01*
X102504Y100343D01*
X102483Y100195D01*
X102465Y100046D01*
X102451Y99897D01*
X102442Y99748D01*
X102436Y99598D01*
X102434Y99449D01*
X102436Y99299D01*
X102442Y99150D01*
X102452Y99000D01*
X102466Y98851D01*
X102483Y98703D01*
X102505Y98555D01*
X102530Y98407D01*
X102559Y98261D01*
X102593Y98115D01*
X102629Y97970D01*
X102670Y97826D01*
X102715Y97683D01*
X102763Y97541D01*
X102815Y97401D01*
X102870Y97262D01*
X102929Y97124D01*
X102992Y96989D01*
X103058Y96854D01*
X103128Y96722D01*
X103201Y96592D01*
X103278Y96463D01*
X103358Y96337D01*
X103441Y96212D01*
X103528Y96090D01*
X103617Y95970D01*
X103710Y95853D01*
X103806Y95738D01*
X103905Y95626D01*
X111524Y100922D02*
X111491Y101051D01*
X111454Y101179D01*
X111414Y101306D01*
X111370Y101432D01*
X111323Y101557D01*
X111272Y101680D01*
X111218Y101802D01*
X111160Y101922D01*
X111099Y102040D01*
X111035Y102157D01*
X110967Y102272D01*
X110897Y102385D01*
X110823Y102496D01*
X110746Y102605D01*
X110666Y102712D01*
X110583Y102816D01*
X110498Y102919D01*
X110409Y103018D01*
X110318Y103115D01*
X110224Y103210D01*
X110128Y103302D01*
X110029Y103391D01*
X109927Y103477D01*
X109823Y103561D01*
X109717Y103642D01*
X109609Y103719D01*
X109498Y103794D01*
X109386Y103865D01*
X109271Y103933D01*
X111525Y100922D02*
X115881Y88712D01*
X120820Y97266D01*
X121017Y111436D02*
X115884Y114399D01*
X121017Y111436D02*
X126595Y112207D01*
X121017Y111436D02*
X123138Y106219D01*
X121017Y111436D02*
X122022Y117129D01*
X121017Y111436D02*
X116590Y107719D01*
X-105635Y194135D02*
X-121033Y203025D01*
X-118563Y207302D01*
X-118563Y207303D02*
X-118492Y207423D01*
X-118417Y207541D01*
X-118338Y207656D01*
X-118257Y207770D01*
X-118172Y207881D01*
X-118084Y207990D01*
X-117994Y208096D01*
X-117900Y208200D01*
X-117803Y208301D01*
X-117703Y208399D01*
X-117601Y208494D01*
X-117496Y208586D01*
X-117389Y208676D01*
X-117279Y208762D01*
X-117166Y208845D01*
X-117052Y208925D01*
X-116935Y209002D01*
X-116816Y209075D01*
X-116695Y209145D01*
X-116572Y209211D01*
X-116447Y209274D01*
X-116320Y209334D01*
X-116192Y209389D01*
X-116062Y209441D01*
X-115931Y209490D01*
X-115799Y209535D01*
X-115665Y209576D01*
X-115531Y209613D01*
X-115395Y209646D01*
X-115258Y209675D01*
X-115121Y209701D01*
X-114983Y209723D01*
X-114844Y209740D01*
X-114705Y209754D01*
X-114565Y209764D01*
X-114426Y209770D01*
X-114286Y209772D01*
X-114146Y209770D01*
X-114007Y209764D01*
X-113867Y209754D01*
X-113728Y209740D01*
X-113589Y209723D01*
X-113451Y209701D01*
X-113314Y209675D01*
X-113177Y209646D01*
X-113041Y209613D01*
X-112907Y209575D01*
X-112773Y209535D01*
X-112641Y209490D01*
X-112509Y209441D01*
X-112380Y209389D01*
X-112252Y209334D01*
X-112125Y209274D01*
X-112000Y209211D01*
X-111877Y209145D01*
X-111756Y209075D01*
X-111637Y209002D01*
X-111520Y208925D01*
X-111406Y208845D01*
X-111293Y208762D01*
X-111183Y208676D01*
X-111076Y208586D01*
X-110971Y208494D01*
X-110869Y208399D01*
X-110769Y208301D01*
X-110672Y208200D01*
X-110578Y208096D01*
X-110488Y207990D01*
X-110400Y207881D01*
X-110315Y207770D01*
X-110234Y207656D01*
X-110155Y207541D01*
X-110080Y207423D01*
X-110009Y207302D01*
X-109941Y207180D01*
X-109876Y207057D01*
X-109815Y206931D01*
X-109757Y206803D01*
X-109703Y206675D01*
X-109653Y206544D01*
X-109606Y206412D01*
X-109563Y206279D01*
X-109524Y206145D01*
X-109489Y206010D01*
X-109458Y205874D01*
X-109430Y205736D01*
X-109407Y205599D01*
X-109387Y205460D01*
X-109371Y205321D01*
X-109359Y205182D01*
X-109351Y205043D01*
X-109347Y204903D01*
X-109347Y204763D01*
X-109351Y204623D01*
X-109359Y204484D01*
X-109371Y204345D01*
X-109387Y204206D01*
X-109407Y204067D01*
X-109430Y203929D01*
X-109458Y203792D01*
X-109489Y203656D01*
X-109524Y203521D01*
X-109563Y203387D01*
X-109606Y203254D01*
X-109653Y203122D01*
X-109703Y202991D01*
X-109757Y202863D01*
X-109815Y202735D01*
X-109876Y202609D01*
X-109941Y202486D01*
X-110009Y202363D01*
X-112478Y198086D01*
X-97637Y207987D02*
X-94674Y213120D01*
X-94674Y213119D02*
X-94614Y213228D01*
X-94557Y213338D01*
X-94504Y213450D01*
X-94454Y213564D01*
X-94407Y213679D01*
X-94365Y213796D01*
X-94326Y213913D01*
X-94291Y214032D01*
X-94259Y214153D01*
X-94231Y214274D01*
X-94207Y214395D01*
X-94187Y214518D01*
X-94171Y214641D01*
X-94159Y214764D01*
X-94150Y214888D01*
X-94146Y215012D01*
X-94145Y215136D01*
X-94148Y215260D01*
X-94156Y215384D01*
X-94167Y215508D01*
X-94182Y215631D01*
X-94200Y215754D01*
X-94223Y215876D01*
X-94249Y215997D01*
X-94280Y216118D01*
X-94314Y216237D01*
X-94351Y216355D01*
X-94393Y216472D01*
X-94438Y216588D01*
X-94487Y216702D01*
X-94539Y216815D01*
X-94595Y216925D01*
X-94654Y217035D01*
X-94716Y217142D01*
X-94782Y217247D01*
X-94852Y217350D01*
X-94924Y217451D01*
X-95000Y217549D01*
X-95078Y217645D01*
X-95160Y217739D01*
X-95244Y217830D01*
X-95332Y217918D01*
X-95422Y218003D01*
X-95514Y218086D01*
X-95610Y218166D01*
X-95707Y218242D01*
X-95807Y218316D01*
X-95910Y218386D01*
X-96014Y218453D01*
X-96121Y218517D01*
X-96120Y218517D02*
X-97831Y219505D01*
X-97832Y219505D02*
X-97940Y219565D01*
X-98050Y219622D01*
X-98162Y219675D01*
X-98276Y219725D01*
X-98391Y219772D01*
X-98508Y219814D01*
X-98626Y219853D01*
X-98745Y219888D01*
X-98865Y219920D01*
X-98986Y219948D01*
X-99107Y219972D01*
X-99230Y219992D01*
X-99353Y220008D01*
X-99476Y220020D01*
X-99600Y220029D01*
X-99724Y220033D01*
X-99848Y220034D01*
X-99972Y220031D01*
X-100096Y220023D01*
X-100220Y220012D01*
X-100343Y219997D01*
X-100466Y219979D01*
X-100588Y219956D01*
X-100709Y219930D01*
X-100830Y219899D01*
X-100949Y219865D01*
X-101067Y219828D01*
X-101184Y219786D01*
X-101300Y219741D01*
X-101414Y219692D01*
X-101527Y219640D01*
X-101637Y219584D01*
X-101747Y219525D01*
X-101854Y219463D01*
X-101959Y219397D01*
X-102062Y219327D01*
X-102163Y219255D01*
X-102261Y219179D01*
X-102357Y219101D01*
X-102451Y219019D01*
X-102542Y218935D01*
X-102630Y218847D01*
X-102715Y218757D01*
X-102798Y218665D01*
X-102877Y218569D01*
X-102954Y218472D01*
X-103028Y218372D01*
X-103098Y218269D01*
X-103165Y218165D01*
X-103229Y218059D01*
X-103228Y218058D02*
X-106192Y212926D01*
X-113035Y216877D01*
X-108096Y225431D01*
X-103998Y103067D02*
X-119396Y94177D01*
X-103998Y103067D02*
X-101529Y98790D01*
X-101529Y98791D02*
X-101461Y98668D01*
X-101396Y98545D01*
X-101335Y98419D01*
X-101277Y98291D01*
X-101223Y98163D01*
X-101173Y98032D01*
X-101126Y97900D01*
X-101083Y97767D01*
X-101044Y97633D01*
X-101009Y97498D01*
X-100978Y97362D01*
X-100950Y97224D01*
X-100927Y97087D01*
X-100907Y96948D01*
X-100891Y96809D01*
X-100879Y96670D01*
X-100871Y96531D01*
X-100867Y96391D01*
X-100867Y96251D01*
X-100871Y96111D01*
X-100879Y95972D01*
X-100891Y95833D01*
X-100907Y95694D01*
X-100927Y95555D01*
X-100950Y95418D01*
X-100978Y95280D01*
X-101009Y95144D01*
X-101044Y95009D01*
X-101083Y94875D01*
X-101126Y94742D01*
X-101173Y94610D01*
X-101223Y94479D01*
X-101277Y94351D01*
X-101335Y94223D01*
X-101396Y94097D01*
X-101461Y93974D01*
X-101529Y93851D01*
X-101600Y93731D01*
X-101675Y93613D01*
X-101754Y93498D01*
X-101835Y93384D01*
X-101920Y93273D01*
X-102008Y93164D01*
X-102098Y93058D01*
X-102192Y92954D01*
X-102289Y92853D01*
X-102389Y92755D01*
X-102491Y92660D01*
X-102596Y92568D01*
X-102703Y92478D01*
X-102813Y92392D01*
X-102926Y92309D01*
X-103040Y92229D01*
X-103157Y92152D01*
X-103276Y92079D01*
X-103397Y92009D01*
X-103520Y91943D01*
X-103645Y91880D01*
X-103772Y91820D01*
X-103900Y91765D01*
X-104030Y91713D01*
X-104161Y91664D01*
X-104293Y91619D01*
X-104427Y91578D01*
X-104561Y91541D01*
X-104697Y91508D01*
X-104834Y91479D01*
X-104971Y91453D01*
X-105109Y91431D01*
X-105248Y91414D01*
X-105387Y91400D01*
X-105527Y91390D01*
X-105666Y91384D01*
X-105806Y91382D01*
X-105946Y91384D01*
X-106085Y91390D01*
X-106225Y91400D01*
X-106364Y91414D01*
X-106503Y91431D01*
X-106641Y91453D01*
X-106778Y91479D01*
X-106915Y91508D01*
X-107051Y91541D01*
X-107185Y91579D01*
X-107319Y91619D01*
X-107451Y91664D01*
X-107583Y91713D01*
X-107712Y91765D01*
X-107840Y91820D01*
X-107967Y91880D01*
X-108092Y91943D01*
X-108215Y92009D01*
X-108336Y92079D01*
X-108455Y92152D01*
X-108572Y92229D01*
X-108686Y92309D01*
X-108799Y92392D01*
X-108909Y92478D01*
X-109016Y92568D01*
X-109121Y92660D01*
X-109223Y92755D01*
X-109323Y92853D01*
X-109420Y92954D01*
X-109514Y93058D01*
X-109604Y93164D01*
X-109692Y93273D01*
X-109777Y93384D01*
X-109858Y93498D01*
X-109937Y93613D01*
X-110012Y93731D01*
X-110083Y93852D01*
X-110083Y93851D02*
X-112553Y98128D01*
X-107977Y82301D02*
X-94025Y85793D01*
X-107977Y82301D02*
X-103038Y73746D01*
X-101098Y78288D02*
X-107942Y74337D01*
D118*
X63686Y11806D02*
X66497Y13429D01*
X66594Y13487D01*
X66689Y13549D01*
X66782Y13614D01*
X66872Y13682D01*
X66960Y13753D01*
X67046Y13828D01*
X67129Y13905D01*
X67209Y13985D01*
X67286Y14068D01*
X67361Y14154D01*
X67432Y14242D01*
X67500Y14332D01*
X67565Y14425D01*
X67627Y14520D01*
X67685Y14617D01*
X67740Y14716D01*
X67791Y14817D01*
X67839Y14920D01*
X67884Y15024D01*
X67924Y15130D01*
X67961Y15237D01*
X67994Y15345D01*
X68024Y15455D01*
X68049Y15565D01*
X68071Y15676D01*
X68088Y15788D01*
X68102Y15901D01*
X68112Y16014D01*
X68118Y16127D01*
X68120Y16240D01*
X68118Y16353D01*
X68112Y16466D01*
X68102Y16579D01*
X68088Y16692D01*
X68071Y16804D01*
X68049Y16915D01*
X68024Y17025D01*
X67994Y17135D01*
X67961Y17243D01*
X67924Y17350D01*
X67884Y17456D01*
X67839Y17560D01*
X67791Y17663D01*
X67740Y17764D01*
X67685Y17863D01*
X67627Y17960D01*
X67565Y18055D01*
X67500Y18148D01*
X67432Y18238D01*
X67361Y18326D01*
X67286Y18412D01*
X67209Y18495D01*
X67129Y18575D01*
X67046Y18652D01*
X66960Y18727D01*
X66872Y18798D01*
X66782Y18866D01*
X66689Y18931D01*
X66594Y18993D01*
X66497Y19051D01*
X66398Y19106D01*
X66297Y19157D01*
X66194Y19205D01*
X66090Y19250D01*
X65984Y19290D01*
X65877Y19327D01*
X65769Y19360D01*
X65659Y19390D01*
X65549Y19415D01*
X65438Y19437D01*
X65326Y19454D01*
X65213Y19468D01*
X65100Y19478D01*
X64987Y19484D01*
X64874Y19486D01*
X64761Y19484D01*
X64648Y19478D01*
X64535Y19468D01*
X64422Y19454D01*
X64310Y19437D01*
X64199Y19415D01*
X64089Y19390D01*
X63979Y19360D01*
X63871Y19327D01*
X63764Y19290D01*
X63658Y19250D01*
X63554Y19205D01*
X63451Y19157D01*
X63350Y19106D01*
X63251Y19051D01*
X61217Y23872D02*
X57844Y21925D01*
X61217Y23872D02*
X61305Y23921D01*
X61395Y23966D01*
X61487Y24008D01*
X61580Y24046D01*
X61675Y24080D01*
X61770Y24111D01*
X61867Y24138D01*
X61965Y24161D01*
X62064Y24181D01*
X62164Y24196D01*
X62264Y24208D01*
X62364Y24216D01*
X62465Y24220D01*
X62565Y24220D01*
X62666Y24216D01*
X62766Y24208D01*
X62866Y24196D01*
X62966Y24181D01*
X63065Y24161D01*
X63163Y24138D01*
X63260Y24111D01*
X63355Y24080D01*
X63450Y24046D01*
X63543Y24008D01*
X63635Y23966D01*
X63725Y23921D01*
X63813Y23872D01*
X63899Y23820D01*
X63983Y23765D01*
X64065Y23706D01*
X64145Y23645D01*
X64222Y23580D01*
X64296Y23512D01*
X64368Y23442D01*
X64437Y23369D01*
X64504Y23293D01*
X64567Y23214D01*
X64627Y23134D01*
X64684Y23051D01*
X64738Y22965D01*
X64788Y22878D01*
X64835Y22789D01*
X64878Y22698D01*
X64918Y22606D01*
X64954Y22512D01*
X64987Y22417D01*
X65016Y22320D01*
X65041Y22223D01*
X65062Y22124D01*
X65080Y22025D01*
X65093Y21925D01*
X65103Y21825D01*
X65109Y21725D01*
X65111Y21624D01*
X65109Y21523D01*
X65103Y21423D01*
X65093Y21323D01*
X65080Y21223D01*
X65062Y21124D01*
X65041Y21025D01*
X65016Y20928D01*
X64987Y20831D01*
X64954Y20736D01*
X64918Y20642D01*
X64878Y20550D01*
X64835Y20459D01*
X64788Y20370D01*
X64738Y20283D01*
X64684Y20197D01*
X64627Y20114D01*
X64567Y20034D01*
X64504Y19955D01*
X64437Y19879D01*
X64368Y19806D01*
X64296Y19736D01*
X64222Y19668D01*
X64145Y19603D01*
X64065Y19542D01*
X63983Y19483D01*
X63899Y19428D01*
X63813Y19376D01*
X63813Y19375D02*
X61565Y18077D01*
X67180Y27315D02*
X76395Y19144D01*
X73926Y31210D01*
X83483Y23236D02*
X86294Y24859D01*
X86391Y24917D01*
X86486Y24979D01*
X86579Y25044D01*
X86669Y25112D01*
X86757Y25183D01*
X86843Y25258D01*
X86926Y25335D01*
X87006Y25415D01*
X87083Y25498D01*
X87158Y25584D01*
X87229Y25672D01*
X87297Y25762D01*
X87362Y25855D01*
X87424Y25950D01*
X87482Y26047D01*
X87537Y26146D01*
X87588Y26247D01*
X87636Y26350D01*
X87681Y26454D01*
X87721Y26560D01*
X87758Y26667D01*
X87791Y26775D01*
X87821Y26885D01*
X87846Y26995D01*
X87868Y27106D01*
X87885Y27218D01*
X87899Y27331D01*
X87909Y27444D01*
X87915Y27557D01*
X87917Y27670D01*
X87915Y27783D01*
X87909Y27896D01*
X87899Y28009D01*
X87885Y28122D01*
X87868Y28234D01*
X87846Y28345D01*
X87821Y28455D01*
X87791Y28565D01*
X87758Y28673D01*
X87721Y28780D01*
X87681Y28886D01*
X87636Y28990D01*
X87588Y29093D01*
X87537Y29194D01*
X87482Y29293D01*
X87424Y29390D01*
X87362Y29485D01*
X87297Y29578D01*
X87229Y29668D01*
X87158Y29756D01*
X87083Y29842D01*
X87006Y29925D01*
X86926Y30005D01*
X86843Y30082D01*
X86757Y30157D01*
X86669Y30228D01*
X86579Y30296D01*
X86486Y30361D01*
X86391Y30423D01*
X86294Y30481D01*
X86195Y30536D01*
X86094Y30587D01*
X85991Y30635D01*
X85887Y30680D01*
X85781Y30720D01*
X85674Y30757D01*
X85566Y30790D01*
X85456Y30820D01*
X85346Y30845D01*
X85235Y30867D01*
X85123Y30884D01*
X85010Y30898D01*
X84897Y30908D01*
X84784Y30914D01*
X84671Y30916D01*
X84558Y30914D01*
X84445Y30908D01*
X84332Y30898D01*
X84219Y30884D01*
X84107Y30867D01*
X83996Y30845D01*
X83886Y30820D01*
X83776Y30790D01*
X83668Y30757D01*
X83561Y30720D01*
X83455Y30680D01*
X83351Y30635D01*
X83248Y30587D01*
X83147Y30536D01*
X83048Y30481D01*
X81014Y35302D02*
X77641Y33355D01*
X81014Y35302D02*
X81102Y35351D01*
X81192Y35396D01*
X81284Y35438D01*
X81377Y35476D01*
X81472Y35510D01*
X81567Y35541D01*
X81664Y35568D01*
X81762Y35591D01*
X81861Y35611D01*
X81961Y35626D01*
X82061Y35638D01*
X82161Y35646D01*
X82262Y35650D01*
X82362Y35650D01*
X82463Y35646D01*
X82563Y35638D01*
X82663Y35626D01*
X82763Y35611D01*
X82862Y35591D01*
X82960Y35568D01*
X83057Y35541D01*
X83152Y35510D01*
X83247Y35476D01*
X83340Y35438D01*
X83432Y35396D01*
X83522Y35351D01*
X83610Y35302D01*
X83696Y35250D01*
X83780Y35195D01*
X83862Y35136D01*
X83942Y35075D01*
X84019Y35010D01*
X84093Y34942D01*
X84165Y34872D01*
X84234Y34799D01*
X84301Y34723D01*
X84364Y34644D01*
X84424Y34564D01*
X84481Y34481D01*
X84535Y34395D01*
X84585Y34308D01*
X84632Y34219D01*
X84675Y34128D01*
X84715Y34036D01*
X84751Y33942D01*
X84784Y33847D01*
X84813Y33750D01*
X84838Y33653D01*
X84859Y33554D01*
X84877Y33455D01*
X84890Y33355D01*
X84900Y33255D01*
X84906Y33155D01*
X84908Y33054D01*
X84906Y32953D01*
X84900Y32853D01*
X84890Y32753D01*
X84877Y32653D01*
X84859Y32554D01*
X84838Y32455D01*
X84813Y32358D01*
X84784Y32261D01*
X84751Y32166D01*
X84715Y32072D01*
X84675Y31980D01*
X84632Y31889D01*
X84585Y31800D01*
X84535Y31713D01*
X84481Y31627D01*
X84424Y31544D01*
X84364Y31464D01*
X84301Y31385D01*
X84234Y31309D01*
X84165Y31236D01*
X84093Y31166D01*
X84019Y31098D01*
X83942Y31033D01*
X83862Y30972D01*
X83780Y30913D01*
X83696Y30858D01*
X83610Y30806D01*
X83611Y30805D02*
X81362Y29507D01*
X-84706Y23386D02*
X-87517Y25008D01*
X-84707Y23385D02*
X-84608Y23330D01*
X-84507Y23279D01*
X-84404Y23231D01*
X-84300Y23186D01*
X-84194Y23146D01*
X-84087Y23109D01*
X-83979Y23076D01*
X-83869Y23046D01*
X-83759Y23021D01*
X-83648Y22999D01*
X-83536Y22982D01*
X-83423Y22968D01*
X-83310Y22958D01*
X-83197Y22952D01*
X-83084Y22950D01*
X-82971Y22952D01*
X-82858Y22958D01*
X-82745Y22968D01*
X-82632Y22982D01*
X-82520Y22999D01*
X-82409Y23021D01*
X-82299Y23046D01*
X-82189Y23076D01*
X-82081Y23109D01*
X-81974Y23146D01*
X-81868Y23186D01*
X-81764Y23231D01*
X-81661Y23279D01*
X-81560Y23330D01*
X-81461Y23385D01*
X-81364Y23443D01*
X-81269Y23505D01*
X-81176Y23570D01*
X-81086Y23638D01*
X-80998Y23709D01*
X-80912Y23784D01*
X-80829Y23861D01*
X-80749Y23941D01*
X-80672Y24024D01*
X-80597Y24110D01*
X-80526Y24198D01*
X-80458Y24288D01*
X-80393Y24381D01*
X-80331Y24476D01*
X-80273Y24573D01*
X-80218Y24672D01*
X-80167Y24773D01*
X-80119Y24876D01*
X-80074Y24980D01*
X-80034Y25086D01*
X-79997Y25193D01*
X-79964Y25301D01*
X-79934Y25411D01*
X-79909Y25521D01*
X-79887Y25632D01*
X-79870Y25744D01*
X-79856Y25857D01*
X-79846Y25970D01*
X-79840Y26083D01*
X-79838Y26196D01*
X-79840Y26309D01*
X-79846Y26422D01*
X-79856Y26535D01*
X-79870Y26648D01*
X-79887Y26760D01*
X-79909Y26871D01*
X-79934Y26981D01*
X-79964Y27091D01*
X-79997Y27199D01*
X-80034Y27306D01*
X-80074Y27412D01*
X-80119Y27516D01*
X-80167Y27619D01*
X-80218Y27720D01*
X-80273Y27819D01*
X-80331Y27916D01*
X-80393Y28011D01*
X-80458Y28104D01*
X-80526Y28194D01*
X-80597Y28282D01*
X-80672Y28368D01*
X-80749Y28451D01*
X-80829Y28531D01*
X-80912Y28608D01*
X-80998Y28683D01*
X-81086Y28754D01*
X-81176Y28822D01*
X-81269Y28887D01*
X-81364Y28949D01*
X-81461Y29007D01*
X-78302Y33180D02*
X-81675Y35127D01*
X-78303Y33179D02*
X-78217Y33127D01*
X-78133Y33072D01*
X-78051Y33013D01*
X-77971Y32952D01*
X-77894Y32887D01*
X-77820Y32819D01*
X-77748Y32749D01*
X-77679Y32676D01*
X-77612Y32600D01*
X-77549Y32521D01*
X-77489Y32441D01*
X-77432Y32358D01*
X-77378Y32272D01*
X-77328Y32185D01*
X-77281Y32096D01*
X-77238Y32005D01*
X-77198Y31913D01*
X-77162Y31819D01*
X-77129Y31724D01*
X-77100Y31627D01*
X-77075Y31530D01*
X-77054Y31431D01*
X-77036Y31332D01*
X-77023Y31232D01*
X-77013Y31132D01*
X-77007Y31032D01*
X-77005Y30931D01*
X-77007Y30830D01*
X-77013Y30730D01*
X-77023Y30630D01*
X-77036Y30530D01*
X-77054Y30431D01*
X-77075Y30332D01*
X-77100Y30235D01*
X-77129Y30138D01*
X-77162Y30043D01*
X-77198Y29949D01*
X-77238Y29857D01*
X-77281Y29766D01*
X-77328Y29677D01*
X-77378Y29590D01*
X-77432Y29504D01*
X-77489Y29421D01*
X-77549Y29341D01*
X-77612Y29262D01*
X-77679Y29186D01*
X-77748Y29113D01*
X-77820Y29043D01*
X-77894Y28975D01*
X-77971Y28910D01*
X-78051Y28849D01*
X-78133Y28790D01*
X-78217Y28735D01*
X-78303Y28683D01*
X-78391Y28634D01*
X-78481Y28589D01*
X-78573Y28547D01*
X-78666Y28509D01*
X-78761Y28475D01*
X-78856Y28444D01*
X-78953Y28417D01*
X-79051Y28394D01*
X-79150Y28374D01*
X-79250Y28359D01*
X-79350Y28347D01*
X-79450Y28339D01*
X-79551Y28335D01*
X-79651Y28335D01*
X-79752Y28339D01*
X-79852Y28347D01*
X-79952Y28359D01*
X-80052Y28374D01*
X-80151Y28394D01*
X-80249Y28417D01*
X-80346Y28444D01*
X-80441Y28475D01*
X-80536Y28509D01*
X-80629Y28547D01*
X-80721Y28589D01*
X-80811Y28634D01*
X-80899Y28683D01*
X-83147Y29981D01*
X-72339Y29737D02*
X-74808Y17671D01*
X-65593Y25842D01*
X-67720Y13578D02*
X-64909Y11956D01*
X-64909Y11955D02*
X-64810Y11900D01*
X-64709Y11849D01*
X-64606Y11801D01*
X-64502Y11756D01*
X-64396Y11716D01*
X-64289Y11679D01*
X-64181Y11646D01*
X-64071Y11616D01*
X-63961Y11591D01*
X-63850Y11569D01*
X-63738Y11552D01*
X-63625Y11538D01*
X-63512Y11528D01*
X-63399Y11522D01*
X-63286Y11520D01*
X-63173Y11522D01*
X-63060Y11528D01*
X-62947Y11538D01*
X-62834Y11552D01*
X-62722Y11569D01*
X-62611Y11591D01*
X-62501Y11616D01*
X-62391Y11646D01*
X-62283Y11679D01*
X-62176Y11716D01*
X-62070Y11756D01*
X-61966Y11801D01*
X-61863Y11849D01*
X-61762Y11900D01*
X-61663Y11955D01*
X-61566Y12013D01*
X-61471Y12075D01*
X-61378Y12140D01*
X-61288Y12208D01*
X-61200Y12279D01*
X-61114Y12354D01*
X-61031Y12431D01*
X-60951Y12511D01*
X-60874Y12594D01*
X-60799Y12680D01*
X-60728Y12768D01*
X-60660Y12858D01*
X-60595Y12951D01*
X-60533Y13046D01*
X-60475Y13143D01*
X-60420Y13242D01*
X-60369Y13343D01*
X-60321Y13446D01*
X-60276Y13550D01*
X-60236Y13656D01*
X-60199Y13763D01*
X-60166Y13871D01*
X-60136Y13981D01*
X-60111Y14091D01*
X-60089Y14202D01*
X-60072Y14314D01*
X-60058Y14427D01*
X-60048Y14540D01*
X-60042Y14653D01*
X-60040Y14766D01*
X-60042Y14879D01*
X-60048Y14992D01*
X-60058Y15105D01*
X-60072Y15218D01*
X-60089Y15330D01*
X-60111Y15441D01*
X-60136Y15551D01*
X-60166Y15661D01*
X-60199Y15769D01*
X-60236Y15876D01*
X-60276Y15982D01*
X-60321Y16086D01*
X-60369Y16189D01*
X-60420Y16290D01*
X-60475Y16389D01*
X-60533Y16486D01*
X-60595Y16581D01*
X-60660Y16674D01*
X-60728Y16764D01*
X-60799Y16852D01*
X-60874Y16938D01*
X-60951Y17021D01*
X-61031Y17101D01*
X-61114Y17178D01*
X-61200Y17253D01*
X-61288Y17324D01*
X-61378Y17392D01*
X-61471Y17457D01*
X-61566Y17519D01*
X-61663Y17577D01*
X-58505Y21750D02*
X-61878Y23697D01*
X-58504Y21750D02*
X-58418Y21698D01*
X-58334Y21643D01*
X-58252Y21584D01*
X-58173Y21522D01*
X-58095Y21458D01*
X-58021Y21390D01*
X-57949Y21319D01*
X-57880Y21246D01*
X-57814Y21170D01*
X-57750Y21092D01*
X-57690Y21011D01*
X-57633Y20928D01*
X-57580Y20843D01*
X-57529Y20756D01*
X-57482Y20667D01*
X-57439Y20576D01*
X-57399Y20483D01*
X-57363Y20389D01*
X-57330Y20294D01*
X-57301Y20197D01*
X-57276Y20100D01*
X-57255Y20001D01*
X-57237Y19902D01*
X-57224Y19802D01*
X-57214Y19702D01*
X-57208Y19602D01*
X-57206Y19501D01*
X-57208Y19400D01*
X-57214Y19300D01*
X-57224Y19200D01*
X-57237Y19100D01*
X-57255Y19001D01*
X-57276Y18902D01*
X-57301Y18805D01*
X-57330Y18708D01*
X-57363Y18613D01*
X-57399Y18519D01*
X-57439Y18426D01*
X-57482Y18335D01*
X-57529Y18246D01*
X-57580Y18159D01*
X-57633Y18074D01*
X-57690Y17991D01*
X-57750Y17910D01*
X-57814Y17832D01*
X-57880Y17756D01*
X-57949Y17683D01*
X-58021Y17612D01*
X-58095Y17544D01*
X-58173Y17480D01*
X-58252Y17418D01*
X-58334Y17359D01*
X-58418Y17304D01*
X-58504Y17252D01*
X-58593Y17203D01*
X-58683Y17158D01*
X-58774Y17116D01*
X-58868Y17078D01*
X-58962Y17044D01*
X-59058Y17013D01*
X-59155Y16986D01*
X-59253Y16963D01*
X-59352Y16943D01*
X-59452Y16928D01*
X-59552Y16916D01*
X-59652Y16908D01*
X-59753Y16904D01*
X-59853Y16904D01*
X-59954Y16908D01*
X-60054Y16916D01*
X-60154Y16928D01*
X-60254Y16943D01*
X-60353Y16963D01*
X-60451Y16986D01*
X-60548Y17013D01*
X-60644Y17044D01*
X-60738Y17078D01*
X-60832Y17116D01*
X-60923Y17158D01*
X-61013Y17203D01*
X-61101Y17252D01*
X-63350Y18551D01*
X150305Y140003D02*
X150305Y143249D01*
X150303Y143362D01*
X150297Y143475D01*
X150287Y143588D01*
X150273Y143701D01*
X150256Y143813D01*
X150234Y143924D01*
X150209Y144034D01*
X150179Y144144D01*
X150146Y144252D01*
X150109Y144359D01*
X150069Y144465D01*
X150024Y144569D01*
X149976Y144672D01*
X149925Y144773D01*
X149870Y144872D01*
X149812Y144969D01*
X149750Y145064D01*
X149685Y145157D01*
X149617Y145247D01*
X149546Y145335D01*
X149471Y145421D01*
X149394Y145504D01*
X149314Y145584D01*
X149231Y145661D01*
X149145Y145736D01*
X149057Y145807D01*
X148967Y145875D01*
X148874Y145940D01*
X148779Y146002D01*
X148682Y146060D01*
X148583Y146115D01*
X148482Y146166D01*
X148379Y146214D01*
X148275Y146259D01*
X148169Y146299D01*
X148062Y146336D01*
X147954Y146369D01*
X147844Y146399D01*
X147734Y146424D01*
X147623Y146446D01*
X147511Y146463D01*
X147398Y146477D01*
X147285Y146487D01*
X147172Y146493D01*
X147059Y146495D01*
X146946Y146493D01*
X146833Y146487D01*
X146720Y146477D01*
X146607Y146463D01*
X146495Y146446D01*
X146384Y146424D01*
X146274Y146399D01*
X146164Y146369D01*
X146056Y146336D01*
X145949Y146299D01*
X145843Y146259D01*
X145739Y146214D01*
X145636Y146166D01*
X145535Y146115D01*
X145436Y146060D01*
X145339Y146002D01*
X145244Y145940D01*
X145151Y145875D01*
X145061Y145807D01*
X144973Y145736D01*
X144887Y145661D01*
X144804Y145584D01*
X144724Y145504D01*
X144647Y145421D01*
X144572Y145335D01*
X144501Y145247D01*
X144433Y145157D01*
X144368Y145064D01*
X144306Y144969D01*
X144248Y144872D01*
X144193Y144773D01*
X144142Y144672D01*
X144094Y144569D01*
X144049Y144465D01*
X144009Y144359D01*
X143972Y144252D01*
X143939Y144144D01*
X143909Y144034D01*
X143884Y143924D01*
X143862Y143813D01*
X143845Y143701D01*
X143831Y143588D01*
X143821Y143475D01*
X143815Y143362D01*
X143813Y143249D01*
X138621Y143898D02*
X138621Y140003D01*
X138621Y143898D02*
X138623Y143999D01*
X138629Y144099D01*
X138639Y144199D01*
X138652Y144299D01*
X138670Y144398D01*
X138691Y144497D01*
X138716Y144594D01*
X138745Y144691D01*
X138778Y144786D01*
X138814Y144880D01*
X138854Y144972D01*
X138897Y145063D01*
X138944Y145152D01*
X138994Y145239D01*
X139048Y145325D01*
X139105Y145408D01*
X139165Y145488D01*
X139228Y145567D01*
X139295Y145643D01*
X139364Y145716D01*
X139436Y145786D01*
X139510Y145854D01*
X139587Y145919D01*
X139667Y145980D01*
X139749Y146039D01*
X139833Y146094D01*
X139919Y146146D01*
X140007Y146195D01*
X140097Y146240D01*
X140189Y146282D01*
X140282Y146320D01*
X140377Y146354D01*
X140472Y146385D01*
X140569Y146412D01*
X140667Y146435D01*
X140766Y146455D01*
X140866Y146470D01*
X140966Y146482D01*
X141066Y146490D01*
X141167Y146494D01*
X141267Y146494D01*
X141368Y146490D01*
X141468Y146482D01*
X141568Y146470D01*
X141668Y146455D01*
X141767Y146435D01*
X141865Y146412D01*
X141962Y146385D01*
X142057Y146354D01*
X142152Y146320D01*
X142245Y146282D01*
X142337Y146240D01*
X142427Y146195D01*
X142515Y146146D01*
X142601Y146094D01*
X142685Y146039D01*
X142767Y145980D01*
X142847Y145919D01*
X142924Y145854D01*
X142998Y145786D01*
X143070Y145716D01*
X143139Y145643D01*
X143206Y145567D01*
X143269Y145488D01*
X143329Y145408D01*
X143386Y145325D01*
X143440Y145239D01*
X143490Y145152D01*
X143537Y145063D01*
X143580Y144972D01*
X143620Y144880D01*
X143656Y144786D01*
X143689Y144691D01*
X143718Y144594D01*
X143743Y144497D01*
X143764Y144398D01*
X143782Y144299D01*
X143795Y144199D01*
X143805Y144099D01*
X143811Y143999D01*
X143813Y143898D01*
X143813Y141302D01*
X138621Y150784D02*
X150305Y154679D01*
X138621Y158574D01*
X150305Y162863D02*
X150305Y166109D01*
X150303Y166222D01*
X150297Y166335D01*
X150287Y166448D01*
X150273Y166561D01*
X150256Y166673D01*
X150234Y166784D01*
X150209Y166894D01*
X150179Y167004D01*
X150146Y167112D01*
X150109Y167219D01*
X150069Y167325D01*
X150024Y167429D01*
X149976Y167532D01*
X149925Y167633D01*
X149870Y167732D01*
X149812Y167829D01*
X149750Y167924D01*
X149685Y168017D01*
X149617Y168107D01*
X149546Y168195D01*
X149471Y168281D01*
X149394Y168364D01*
X149314Y168444D01*
X149231Y168521D01*
X149145Y168596D01*
X149057Y168667D01*
X148967Y168735D01*
X148874Y168800D01*
X148779Y168862D01*
X148682Y168920D01*
X148583Y168975D01*
X148482Y169026D01*
X148379Y169074D01*
X148275Y169119D01*
X148169Y169159D01*
X148062Y169196D01*
X147954Y169229D01*
X147844Y169259D01*
X147734Y169284D01*
X147623Y169306D01*
X147511Y169323D01*
X147398Y169337D01*
X147285Y169347D01*
X147172Y169353D01*
X147059Y169355D01*
X146946Y169353D01*
X146833Y169347D01*
X146720Y169337D01*
X146607Y169323D01*
X146495Y169306D01*
X146384Y169284D01*
X146274Y169259D01*
X146164Y169229D01*
X146056Y169196D01*
X145949Y169159D01*
X145843Y169119D01*
X145739Y169074D01*
X145636Y169026D01*
X145535Y168975D01*
X145436Y168920D01*
X145339Y168862D01*
X145244Y168800D01*
X145151Y168735D01*
X145061Y168667D01*
X144973Y168596D01*
X144887Y168521D01*
X144804Y168444D01*
X144724Y168364D01*
X144647Y168281D01*
X144572Y168195D01*
X144501Y168107D01*
X144433Y168017D01*
X144368Y167924D01*
X144306Y167829D01*
X144248Y167732D01*
X144193Y167633D01*
X144142Y167532D01*
X144094Y167429D01*
X144049Y167325D01*
X144009Y167219D01*
X143972Y167112D01*
X143939Y167004D01*
X143909Y166894D01*
X143884Y166784D01*
X143862Y166673D01*
X143845Y166561D01*
X143831Y166448D01*
X143821Y166335D01*
X143815Y166222D01*
X143813Y166109D01*
X138621Y166758D02*
X138621Y162863D01*
X138621Y166758D02*
X138623Y166859D01*
X138629Y166959D01*
X138639Y167059D01*
X138652Y167159D01*
X138670Y167258D01*
X138691Y167357D01*
X138716Y167454D01*
X138745Y167551D01*
X138778Y167646D01*
X138814Y167740D01*
X138854Y167832D01*
X138897Y167923D01*
X138944Y168012D01*
X138994Y168099D01*
X139048Y168185D01*
X139105Y168268D01*
X139165Y168348D01*
X139228Y168427D01*
X139295Y168503D01*
X139364Y168576D01*
X139436Y168646D01*
X139510Y168714D01*
X139587Y168779D01*
X139667Y168840D01*
X139749Y168899D01*
X139833Y168954D01*
X139919Y169006D01*
X140007Y169055D01*
X140097Y169100D01*
X140189Y169142D01*
X140282Y169180D01*
X140377Y169214D01*
X140472Y169245D01*
X140569Y169272D01*
X140667Y169295D01*
X140766Y169315D01*
X140866Y169330D01*
X140966Y169342D01*
X141066Y169350D01*
X141167Y169354D01*
X141267Y169354D01*
X141368Y169350D01*
X141468Y169342D01*
X141568Y169330D01*
X141668Y169315D01*
X141767Y169295D01*
X141865Y169272D01*
X141962Y169245D01*
X142057Y169214D01*
X142152Y169180D01*
X142245Y169142D01*
X142337Y169100D01*
X142427Y169055D01*
X142515Y169006D01*
X142601Y168954D01*
X142685Y168899D01*
X142767Y168840D01*
X142847Y168779D01*
X142924Y168714D01*
X142998Y168646D01*
X143070Y168576D01*
X143139Y168503D01*
X143206Y168427D01*
X143269Y168348D01*
X143329Y168268D01*
X143386Y168185D01*
X143440Y168099D01*
X143490Y168012D01*
X143537Y167923D01*
X143580Y167832D01*
X143620Y167740D01*
X143656Y167646D01*
X143689Y167551D01*
X143718Y167454D01*
X143743Y167357D01*
X143764Y167258D01*
X143782Y167159D01*
X143795Y167059D01*
X143805Y166959D01*
X143811Y166859D01*
X143813Y166758D01*
X143813Y164162D01*
X-153305Y164900D02*
X-153305Y161655D01*
X-153303Y161542D01*
X-153297Y161429D01*
X-153287Y161316D01*
X-153273Y161203D01*
X-153256Y161091D01*
X-153234Y160980D01*
X-153209Y160870D01*
X-153179Y160760D01*
X-153146Y160652D01*
X-153109Y160545D01*
X-153069Y160439D01*
X-153024Y160335D01*
X-152976Y160232D01*
X-152925Y160131D01*
X-152870Y160032D01*
X-152812Y159935D01*
X-152750Y159840D01*
X-152685Y159747D01*
X-152617Y159657D01*
X-152546Y159569D01*
X-152471Y159483D01*
X-152394Y159400D01*
X-152314Y159320D01*
X-152231Y159243D01*
X-152145Y159168D01*
X-152057Y159097D01*
X-151967Y159029D01*
X-151874Y158964D01*
X-151779Y158902D01*
X-151682Y158844D01*
X-151583Y158789D01*
X-151482Y158738D01*
X-151379Y158690D01*
X-151275Y158645D01*
X-151169Y158605D01*
X-151062Y158568D01*
X-150954Y158535D01*
X-150844Y158505D01*
X-150734Y158480D01*
X-150623Y158458D01*
X-150511Y158441D01*
X-150398Y158427D01*
X-150285Y158417D01*
X-150172Y158411D01*
X-150059Y158409D01*
X-149946Y158411D01*
X-149833Y158417D01*
X-149720Y158427D01*
X-149607Y158441D01*
X-149495Y158458D01*
X-149384Y158480D01*
X-149274Y158505D01*
X-149164Y158535D01*
X-149056Y158568D01*
X-148949Y158605D01*
X-148843Y158645D01*
X-148739Y158690D01*
X-148636Y158738D01*
X-148535Y158789D01*
X-148436Y158844D01*
X-148339Y158902D01*
X-148244Y158964D01*
X-148151Y159029D01*
X-148061Y159097D01*
X-147973Y159168D01*
X-147887Y159243D01*
X-147804Y159320D01*
X-147724Y159400D01*
X-147647Y159483D01*
X-147572Y159569D01*
X-147501Y159657D01*
X-147433Y159747D01*
X-147368Y159840D01*
X-147306Y159935D01*
X-147248Y160032D01*
X-147193Y160131D01*
X-147142Y160232D01*
X-147094Y160335D01*
X-147049Y160439D01*
X-147009Y160545D01*
X-146972Y160652D01*
X-146939Y160760D01*
X-146909Y160870D01*
X-146884Y160980D01*
X-146862Y161091D01*
X-146845Y161203D01*
X-146831Y161316D01*
X-146821Y161429D01*
X-146815Y161542D01*
X-146813Y161655D01*
X-141621Y161006D02*
X-141621Y164900D01*
X-141621Y161006D02*
X-141623Y160905D01*
X-141629Y160805D01*
X-141639Y160705D01*
X-141652Y160605D01*
X-141670Y160506D01*
X-141691Y160407D01*
X-141716Y160310D01*
X-141745Y160213D01*
X-141778Y160118D01*
X-141814Y160024D01*
X-141854Y159932D01*
X-141897Y159841D01*
X-141944Y159752D01*
X-141994Y159665D01*
X-142048Y159579D01*
X-142105Y159496D01*
X-142165Y159416D01*
X-142228Y159337D01*
X-142295Y159261D01*
X-142364Y159188D01*
X-142436Y159118D01*
X-142510Y159050D01*
X-142587Y158985D01*
X-142667Y158924D01*
X-142749Y158865D01*
X-142833Y158810D01*
X-142919Y158758D01*
X-143007Y158709D01*
X-143097Y158664D01*
X-143189Y158622D01*
X-143282Y158584D01*
X-143377Y158550D01*
X-143472Y158519D01*
X-143569Y158492D01*
X-143667Y158469D01*
X-143766Y158449D01*
X-143866Y158434D01*
X-143966Y158422D01*
X-144066Y158414D01*
X-144167Y158410D01*
X-144267Y158410D01*
X-144368Y158414D01*
X-144468Y158422D01*
X-144568Y158434D01*
X-144668Y158449D01*
X-144767Y158469D01*
X-144865Y158492D01*
X-144962Y158519D01*
X-145057Y158550D01*
X-145152Y158584D01*
X-145245Y158622D01*
X-145337Y158664D01*
X-145427Y158709D01*
X-145515Y158758D01*
X-145601Y158810D01*
X-145685Y158865D01*
X-145767Y158924D01*
X-145847Y158985D01*
X-145924Y159050D01*
X-145998Y159118D01*
X-146070Y159188D01*
X-146139Y159261D01*
X-146206Y159337D01*
X-146269Y159416D01*
X-146329Y159496D01*
X-146386Y159579D01*
X-146440Y159665D01*
X-146490Y159752D01*
X-146537Y159841D01*
X-146580Y159932D01*
X-146620Y160024D01*
X-146656Y160118D01*
X-146689Y160213D01*
X-146718Y160310D01*
X-146743Y160407D01*
X-146764Y160506D01*
X-146782Y160605D01*
X-146795Y160705D01*
X-146805Y160805D01*
X-146811Y160905D01*
X-146813Y161006D01*
X-146814Y161006D02*
X-146814Y163602D01*
X-141621Y154120D02*
X-153305Y150225D01*
X-141621Y146330D01*
X-153305Y142040D02*
X-153305Y138795D01*
X-153303Y138682D01*
X-153297Y138569D01*
X-153287Y138456D01*
X-153273Y138343D01*
X-153256Y138231D01*
X-153234Y138120D01*
X-153209Y138010D01*
X-153179Y137900D01*
X-153146Y137792D01*
X-153109Y137685D01*
X-153069Y137579D01*
X-153024Y137475D01*
X-152976Y137372D01*
X-152925Y137271D01*
X-152870Y137172D01*
X-152812Y137075D01*
X-152750Y136980D01*
X-152685Y136887D01*
X-152617Y136797D01*
X-152546Y136709D01*
X-152471Y136623D01*
X-152394Y136540D01*
X-152314Y136460D01*
X-152231Y136383D01*
X-152145Y136308D01*
X-152057Y136237D01*
X-151967Y136169D01*
X-151874Y136104D01*
X-151779Y136042D01*
X-151682Y135984D01*
X-151583Y135929D01*
X-151482Y135878D01*
X-151379Y135830D01*
X-151275Y135785D01*
X-151169Y135745D01*
X-151062Y135708D01*
X-150954Y135675D01*
X-150844Y135645D01*
X-150734Y135620D01*
X-150623Y135598D01*
X-150511Y135581D01*
X-150398Y135567D01*
X-150285Y135557D01*
X-150172Y135551D01*
X-150059Y135549D01*
X-149946Y135551D01*
X-149833Y135557D01*
X-149720Y135567D01*
X-149607Y135581D01*
X-149495Y135598D01*
X-149384Y135620D01*
X-149274Y135645D01*
X-149164Y135675D01*
X-149056Y135708D01*
X-148949Y135745D01*
X-148843Y135785D01*
X-148739Y135830D01*
X-148636Y135878D01*
X-148535Y135929D01*
X-148436Y135984D01*
X-148339Y136042D01*
X-148244Y136104D01*
X-148151Y136169D01*
X-148061Y136237D01*
X-147973Y136308D01*
X-147887Y136383D01*
X-147804Y136460D01*
X-147724Y136540D01*
X-147647Y136623D01*
X-147572Y136709D01*
X-147501Y136797D01*
X-147433Y136887D01*
X-147368Y136980D01*
X-147306Y137075D01*
X-147248Y137172D01*
X-147193Y137271D01*
X-147142Y137372D01*
X-147094Y137475D01*
X-147049Y137579D01*
X-147009Y137685D01*
X-146972Y137792D01*
X-146939Y137900D01*
X-146909Y138010D01*
X-146884Y138120D01*
X-146862Y138231D01*
X-146845Y138343D01*
X-146831Y138456D01*
X-146821Y138569D01*
X-146815Y138682D01*
X-146813Y138795D01*
X-141621Y138146D02*
X-141621Y142040D01*
X-141621Y138146D02*
X-141623Y138045D01*
X-141629Y137945D01*
X-141639Y137845D01*
X-141652Y137745D01*
X-141670Y137646D01*
X-141691Y137547D01*
X-141716Y137450D01*
X-141745Y137353D01*
X-141778Y137258D01*
X-141814Y137164D01*
X-141854Y137072D01*
X-141897Y136981D01*
X-141944Y136892D01*
X-141994Y136805D01*
X-142048Y136719D01*
X-142105Y136636D01*
X-142165Y136556D01*
X-142228Y136477D01*
X-142295Y136401D01*
X-142364Y136328D01*
X-142436Y136258D01*
X-142510Y136190D01*
X-142587Y136125D01*
X-142667Y136064D01*
X-142749Y136005D01*
X-142833Y135950D01*
X-142919Y135898D01*
X-143007Y135849D01*
X-143097Y135804D01*
X-143189Y135762D01*
X-143282Y135724D01*
X-143377Y135690D01*
X-143472Y135659D01*
X-143569Y135632D01*
X-143667Y135609D01*
X-143766Y135589D01*
X-143866Y135574D01*
X-143966Y135562D01*
X-144066Y135554D01*
X-144167Y135550D01*
X-144267Y135550D01*
X-144368Y135554D01*
X-144468Y135562D01*
X-144568Y135574D01*
X-144668Y135589D01*
X-144767Y135609D01*
X-144865Y135632D01*
X-144962Y135659D01*
X-145057Y135690D01*
X-145152Y135724D01*
X-145245Y135762D01*
X-145337Y135804D01*
X-145427Y135849D01*
X-145515Y135898D01*
X-145601Y135950D01*
X-145685Y136005D01*
X-145767Y136064D01*
X-145847Y136125D01*
X-145924Y136190D01*
X-145998Y136258D01*
X-146070Y136328D01*
X-146139Y136401D01*
X-146206Y136477D01*
X-146269Y136556D01*
X-146329Y136636D01*
X-146386Y136719D01*
X-146440Y136805D01*
X-146490Y136892D01*
X-146537Y136981D01*
X-146580Y137072D01*
X-146620Y137164D01*
X-146656Y137258D01*
X-146689Y137353D01*
X-146718Y137450D01*
X-146743Y137547D01*
X-146764Y137646D01*
X-146782Y137745D01*
X-146795Y137845D01*
X-146805Y137945D01*
X-146811Y138045D01*
X-146813Y138146D01*
X-146814Y138146D02*
X-146814Y140742D01*
D117*
X-11938Y37592D02*
X-11938Y19812D01*
X-11938Y37592D02*
X-6999Y37592D01*
X-6859Y37590D01*
X-6720Y37584D01*
X-6580Y37574D01*
X-6441Y37560D01*
X-6302Y37543D01*
X-6164Y37521D01*
X-6027Y37495D01*
X-5890Y37466D01*
X-5754Y37433D01*
X-5620Y37396D01*
X-5486Y37355D01*
X-5354Y37310D01*
X-5222Y37261D01*
X-5093Y37209D01*
X-4965Y37154D01*
X-4838Y37094D01*
X-4713Y37031D01*
X-4590Y36965D01*
X-4469Y36895D01*
X-4350Y36822D01*
X-4233Y36745D01*
X-4119Y36665D01*
X-4006Y36582D01*
X-3896Y36496D01*
X-3789Y36406D01*
X-3684Y36314D01*
X-3582Y36219D01*
X-3482Y36121D01*
X-3385Y36020D01*
X-3291Y35916D01*
X-3201Y35810D01*
X-3113Y35701D01*
X-3028Y35590D01*
X-2947Y35476D01*
X-2868Y35361D01*
X-2793Y35243D01*
X-2722Y35123D01*
X-2654Y35000D01*
X-2589Y34877D01*
X-2528Y34751D01*
X-2470Y34623D01*
X-2416Y34495D01*
X-2366Y34364D01*
X-2319Y34232D01*
X-2276Y34099D01*
X-2237Y33965D01*
X-2202Y33830D01*
X-2171Y33694D01*
X-2143Y33556D01*
X-2120Y33419D01*
X-2100Y33280D01*
X-2084Y33141D01*
X-2072Y33002D01*
X-2064Y32863D01*
X-2060Y32723D01*
X-2060Y32583D01*
X-2064Y32443D01*
X-2072Y32304D01*
X-2084Y32165D01*
X-2100Y32026D01*
X-2120Y31887D01*
X-2143Y31750D01*
X-2171Y31612D01*
X-2202Y31476D01*
X-2237Y31341D01*
X-2276Y31207D01*
X-2319Y31074D01*
X-2366Y30942D01*
X-2416Y30811D01*
X-2470Y30683D01*
X-2528Y30555D01*
X-2589Y30429D01*
X-2654Y30306D01*
X-2722Y30184D01*
X-2793Y30063D01*
X-2868Y29945D01*
X-2947Y29830D01*
X-3028Y29716D01*
X-3113Y29605D01*
X-3201Y29496D01*
X-3291Y29390D01*
X-3385Y29286D01*
X-3482Y29185D01*
X-3582Y29087D01*
X-3684Y28992D01*
X-3789Y28900D01*
X-3896Y28810D01*
X-4006Y28724D01*
X-4119Y28641D01*
X-4233Y28561D01*
X-4350Y28484D01*
X-4469Y28411D01*
X-4590Y28341D01*
X-4713Y28275D01*
X-4838Y28212D01*
X-4965Y28152D01*
X-5093Y28097D01*
X-5222Y28045D01*
X-5354Y27996D01*
X-5486Y27951D01*
X-5620Y27910D01*
X-5754Y27873D01*
X-5890Y27840D01*
X-6027Y27811D01*
X-6164Y27785D01*
X-6302Y27763D01*
X-6441Y27746D01*
X-6580Y27732D01*
X-6720Y27722D01*
X-6859Y27716D01*
X-6999Y27714D01*
X-11938Y27714D01*
X4057Y19812D02*
X8996Y19812D01*
X9136Y19814D01*
X9275Y19820D01*
X9415Y19830D01*
X9554Y19844D01*
X9693Y19861D01*
X9831Y19883D01*
X9968Y19909D01*
X10105Y19938D01*
X10241Y19971D01*
X10375Y20008D01*
X10509Y20049D01*
X10641Y20094D01*
X10773Y20143D01*
X10902Y20195D01*
X11030Y20250D01*
X11157Y20310D01*
X11282Y20373D01*
X11405Y20439D01*
X11526Y20509D01*
X11645Y20582D01*
X11762Y20659D01*
X11876Y20739D01*
X11989Y20822D01*
X12099Y20908D01*
X12206Y20998D01*
X12311Y21090D01*
X12413Y21185D01*
X12513Y21283D01*
X12610Y21384D01*
X12704Y21488D01*
X12794Y21594D01*
X12882Y21703D01*
X12967Y21814D01*
X13048Y21928D01*
X13127Y22043D01*
X13202Y22161D01*
X13273Y22282D01*
X13341Y22404D01*
X13406Y22527D01*
X13467Y22653D01*
X13525Y22781D01*
X13579Y22909D01*
X13629Y23040D01*
X13676Y23172D01*
X13719Y23305D01*
X13758Y23439D01*
X13793Y23574D01*
X13824Y23710D01*
X13852Y23848D01*
X13875Y23985D01*
X13895Y24124D01*
X13911Y24263D01*
X13923Y24402D01*
X13931Y24541D01*
X13935Y24681D01*
X13935Y24821D01*
X13931Y24961D01*
X13923Y25100D01*
X13911Y25239D01*
X13895Y25378D01*
X13875Y25517D01*
X13852Y25654D01*
X13824Y25792D01*
X13793Y25928D01*
X13758Y26063D01*
X13719Y26197D01*
X13676Y26330D01*
X13629Y26462D01*
X13579Y26593D01*
X13525Y26721D01*
X13467Y26849D01*
X13406Y26975D01*
X13341Y27098D01*
X13273Y27221D01*
X13202Y27341D01*
X13127Y27459D01*
X13048Y27574D01*
X12967Y27688D01*
X12882Y27799D01*
X12794Y27908D01*
X12704Y28014D01*
X12610Y28118D01*
X12513Y28219D01*
X12413Y28317D01*
X12311Y28412D01*
X12206Y28504D01*
X12099Y28594D01*
X11989Y28680D01*
X11876Y28763D01*
X11762Y28843D01*
X11645Y28920D01*
X11526Y28993D01*
X11405Y29063D01*
X11282Y29129D01*
X11157Y29192D01*
X11030Y29252D01*
X10902Y29307D01*
X10773Y29359D01*
X10641Y29408D01*
X10509Y29453D01*
X10375Y29494D01*
X10241Y29531D01*
X10105Y29564D01*
X9968Y29593D01*
X9831Y29619D01*
X9693Y29641D01*
X9554Y29658D01*
X9415Y29672D01*
X9275Y29682D01*
X9136Y29688D01*
X8996Y29690D01*
X9984Y37592D02*
X4057Y37592D01*
X9984Y37592D02*
X10108Y37590D01*
X10232Y37584D01*
X10356Y37574D01*
X10479Y37561D01*
X10602Y37543D01*
X10724Y37522D01*
X10846Y37497D01*
X10967Y37468D01*
X11086Y37435D01*
X11205Y37399D01*
X11322Y37358D01*
X11438Y37315D01*
X11553Y37267D01*
X11666Y37216D01*
X11778Y37161D01*
X11887Y37103D01*
X11995Y37042D01*
X12101Y36977D01*
X12205Y36909D01*
X12306Y36837D01*
X12406Y36763D01*
X12502Y36685D01*
X12597Y36605D01*
X12689Y36521D01*
X12778Y36435D01*
X12864Y36346D01*
X12948Y36254D01*
X13028Y36159D01*
X13106Y36063D01*
X13180Y35963D01*
X13252Y35862D01*
X13320Y35758D01*
X13385Y35652D01*
X13446Y35544D01*
X13504Y35435D01*
X13559Y35323D01*
X13610Y35210D01*
X13658Y35095D01*
X13701Y34979D01*
X13742Y34862D01*
X13778Y34743D01*
X13811Y34624D01*
X13840Y34503D01*
X13865Y34381D01*
X13886Y34259D01*
X13904Y34136D01*
X13917Y34013D01*
X13927Y33889D01*
X13933Y33765D01*
X13935Y33641D01*
X13933Y33517D01*
X13927Y33393D01*
X13917Y33269D01*
X13904Y33146D01*
X13886Y33023D01*
X13865Y32901D01*
X13840Y32779D01*
X13811Y32658D01*
X13778Y32539D01*
X13742Y32420D01*
X13701Y32303D01*
X13658Y32187D01*
X13610Y32072D01*
X13559Y31959D01*
X13504Y31847D01*
X13446Y31738D01*
X13385Y31630D01*
X13320Y31524D01*
X13252Y31420D01*
X13180Y31319D01*
X13106Y31219D01*
X13028Y31123D01*
X12948Y31028D01*
X12864Y30936D01*
X12778Y30847D01*
X12689Y30761D01*
X12597Y30677D01*
X12502Y30597D01*
X12406Y30519D01*
X12306Y30445D01*
X12205Y30373D01*
X12101Y30305D01*
X11995Y30240D01*
X11887Y30179D01*
X11778Y30121D01*
X11666Y30066D01*
X11553Y30015D01*
X11438Y29967D01*
X11322Y29924D01*
X11205Y29883D01*
X11086Y29847D01*
X10967Y29814D01*
X10846Y29785D01*
X10724Y29760D01*
X10602Y29739D01*
X10479Y29721D01*
X10356Y29708D01*
X10232Y29698D01*
X10108Y29692D01*
X9984Y29690D01*
X6033Y29690D01*
D118*
X-42355Y273558D02*
X-42355Y286766D01*
X-36484Y286766D01*
X-36484Y280896D02*
X-42355Y280896D01*
X-31206Y286766D02*
X-31206Y273558D01*
X-31206Y286766D02*
X-27537Y286766D01*
X-27417Y286764D01*
X-27297Y286758D01*
X-27177Y286748D01*
X-27058Y286735D01*
X-26939Y286717D01*
X-26821Y286696D01*
X-26704Y286670D01*
X-26587Y286641D01*
X-26472Y286608D01*
X-26358Y286571D01*
X-26245Y286531D01*
X-26133Y286487D01*
X-26023Y286439D01*
X-25914Y286388D01*
X-25807Y286333D01*
X-25703Y286274D01*
X-25600Y286213D01*
X-25499Y286148D01*
X-25400Y286079D01*
X-25303Y286008D01*
X-25209Y285933D01*
X-25118Y285856D01*
X-25029Y285775D01*
X-24943Y285691D01*
X-24859Y285605D01*
X-24778Y285516D01*
X-24701Y285425D01*
X-24626Y285331D01*
X-24555Y285234D01*
X-24486Y285135D01*
X-24421Y285034D01*
X-24360Y284932D01*
X-24301Y284827D01*
X-24246Y284720D01*
X-24195Y284611D01*
X-24147Y284501D01*
X-24103Y284389D01*
X-24063Y284276D01*
X-24026Y284162D01*
X-23993Y284047D01*
X-23964Y283930D01*
X-23938Y283813D01*
X-23917Y283695D01*
X-23899Y283576D01*
X-23886Y283457D01*
X-23876Y283337D01*
X-23870Y283217D01*
X-23868Y283097D01*
X-23870Y282977D01*
X-23876Y282857D01*
X-23886Y282737D01*
X-23899Y282618D01*
X-23917Y282499D01*
X-23938Y282381D01*
X-23964Y282264D01*
X-23993Y282147D01*
X-24026Y282032D01*
X-24063Y281918D01*
X-24103Y281805D01*
X-24147Y281693D01*
X-24195Y281583D01*
X-24246Y281474D01*
X-24301Y281367D01*
X-24360Y281263D01*
X-24421Y281160D01*
X-24486Y281059D01*
X-24555Y280960D01*
X-24626Y280863D01*
X-24701Y280769D01*
X-24778Y280678D01*
X-24859Y280589D01*
X-24943Y280503D01*
X-25029Y280419D01*
X-25118Y280338D01*
X-25209Y280261D01*
X-25303Y280186D01*
X-25400Y280115D01*
X-25499Y280046D01*
X-25600Y279981D01*
X-25702Y279920D01*
X-25807Y279861D01*
X-25914Y279806D01*
X-26023Y279755D01*
X-26133Y279707D01*
X-26245Y279663D01*
X-26358Y279623D01*
X-26472Y279586D01*
X-26587Y279553D01*
X-26704Y279524D01*
X-26821Y279498D01*
X-26939Y279477D01*
X-27058Y279459D01*
X-27177Y279446D01*
X-27297Y279436D01*
X-27417Y279430D01*
X-27537Y279428D01*
X-31206Y279428D01*
X-26803Y279428D02*
X-23868Y273558D01*
X-11535Y276493D02*
X-2730Y276493D01*
X-2730Y280896D02*
X-11535Y280896D01*
X12616Y279428D02*
X17019Y279428D01*
X12616Y279428D02*
X12509Y279430D01*
X12402Y279436D01*
X12295Y279446D01*
X12189Y279459D01*
X12083Y279477D01*
X11978Y279498D01*
X11874Y279523D01*
X11770Y279552D01*
X11668Y279585D01*
X11568Y279622D01*
X11468Y279662D01*
X11370Y279706D01*
X11274Y279753D01*
X11180Y279804D01*
X11087Y279858D01*
X10997Y279915D01*
X10908Y279976D01*
X10822Y280040D01*
X10739Y280107D01*
X10657Y280177D01*
X10579Y280250D01*
X10503Y280326D01*
X10430Y280404D01*
X10360Y280486D01*
X10293Y280569D01*
X10229Y280655D01*
X10168Y280744D01*
X10111Y280834D01*
X10057Y280927D01*
X10006Y281021D01*
X9959Y281117D01*
X9915Y281215D01*
X9875Y281315D01*
X9838Y281415D01*
X9805Y281517D01*
X9776Y281621D01*
X9751Y281725D01*
X9730Y281830D01*
X9712Y281936D01*
X9699Y282042D01*
X9689Y282149D01*
X9683Y282256D01*
X9681Y282363D01*
X9681Y283097D01*
X9683Y283217D01*
X9689Y283337D01*
X9699Y283457D01*
X9712Y283576D01*
X9730Y283695D01*
X9751Y283813D01*
X9777Y283930D01*
X9806Y284047D01*
X9839Y284162D01*
X9876Y284276D01*
X9916Y284389D01*
X9960Y284501D01*
X10008Y284611D01*
X10059Y284720D01*
X10114Y284827D01*
X10173Y284932D01*
X10234Y285034D01*
X10299Y285135D01*
X10368Y285234D01*
X10439Y285331D01*
X10514Y285425D01*
X10591Y285516D01*
X10672Y285605D01*
X10756Y285691D01*
X10842Y285775D01*
X10931Y285856D01*
X11022Y285933D01*
X11116Y286008D01*
X11213Y286079D01*
X11312Y286148D01*
X11413Y286213D01*
X11516Y286274D01*
X11620Y286333D01*
X11727Y286388D01*
X11836Y286439D01*
X11946Y286487D01*
X12058Y286531D01*
X12171Y286571D01*
X12285Y286608D01*
X12400Y286641D01*
X12517Y286670D01*
X12634Y286696D01*
X12752Y286717D01*
X12871Y286735D01*
X12990Y286748D01*
X13110Y286758D01*
X13230Y286764D01*
X13350Y286766D01*
X13470Y286764D01*
X13590Y286758D01*
X13710Y286748D01*
X13829Y286735D01*
X13948Y286717D01*
X14066Y286696D01*
X14183Y286670D01*
X14300Y286641D01*
X14415Y286608D01*
X14529Y286571D01*
X14642Y286531D01*
X14754Y286487D01*
X14864Y286439D01*
X14973Y286388D01*
X15080Y286333D01*
X15185Y286274D01*
X15287Y286213D01*
X15388Y286148D01*
X15487Y286079D01*
X15584Y286008D01*
X15678Y285933D01*
X15769Y285856D01*
X15858Y285775D01*
X15944Y285691D01*
X16028Y285605D01*
X16109Y285516D01*
X16186Y285425D01*
X16261Y285331D01*
X16332Y285234D01*
X16401Y285135D01*
X16466Y285034D01*
X16527Y284932D01*
X16586Y284827D01*
X16641Y284720D01*
X16692Y284611D01*
X16740Y284501D01*
X16784Y284389D01*
X16824Y284276D01*
X16861Y284162D01*
X16894Y284047D01*
X16923Y283930D01*
X16949Y283813D01*
X16970Y283695D01*
X16988Y283576D01*
X17001Y283457D01*
X17011Y283337D01*
X17017Y283217D01*
X17019Y283097D01*
X17019Y279428D01*
X17017Y279277D01*
X17011Y279126D01*
X17001Y278975D01*
X16988Y278824D01*
X16970Y278674D01*
X16949Y278525D01*
X16924Y278376D01*
X16895Y278227D01*
X16862Y278080D01*
X16825Y277933D01*
X16785Y277787D01*
X16741Y277643D01*
X16693Y277499D01*
X16642Y277357D01*
X16587Y277217D01*
X16528Y277077D01*
X16465Y276940D01*
X16400Y276804D01*
X16330Y276669D01*
X16258Y276537D01*
X16181Y276406D01*
X16102Y276278D01*
X16019Y276151D01*
X15933Y276027D01*
X15844Y275905D01*
X15752Y275785D01*
X15656Y275668D01*
X15558Y275553D01*
X15457Y275441D01*
X15353Y275331D01*
X15246Y275224D01*
X15136Y275120D01*
X15024Y275019D01*
X14909Y274921D01*
X14792Y274825D01*
X14672Y274733D01*
X14550Y274644D01*
X14426Y274558D01*
X14299Y274475D01*
X14171Y274396D01*
X14040Y274319D01*
X13908Y274247D01*
X13773Y274177D01*
X13637Y274112D01*
X13500Y274049D01*
X13360Y273990D01*
X13220Y273935D01*
X13078Y273884D01*
X12934Y273836D01*
X12790Y273792D01*
X12644Y273752D01*
X12497Y273715D01*
X12350Y273682D01*
X12201Y273653D01*
X12052Y273628D01*
X11903Y273607D01*
X11753Y273589D01*
X11602Y273576D01*
X11451Y273566D01*
X11300Y273560D01*
X11149Y273558D01*
X22483Y283831D02*
X26152Y286766D01*
X26152Y273558D01*
X22483Y273558D02*
X29821Y273558D01*
X35285Y273558D02*
X39687Y273558D01*
X39794Y273560D01*
X39901Y273566D01*
X40008Y273576D01*
X40114Y273589D01*
X40220Y273607D01*
X40325Y273628D01*
X40429Y273653D01*
X40533Y273682D01*
X40635Y273715D01*
X40735Y273752D01*
X40835Y273792D01*
X40933Y273836D01*
X41029Y273883D01*
X41123Y273934D01*
X41216Y273988D01*
X41306Y274045D01*
X41395Y274106D01*
X41481Y274170D01*
X41564Y274237D01*
X41646Y274307D01*
X41724Y274380D01*
X41800Y274456D01*
X41873Y274534D01*
X41943Y274616D01*
X42010Y274699D01*
X42074Y274785D01*
X42135Y274874D01*
X42192Y274964D01*
X42246Y275057D01*
X42297Y275151D01*
X42345Y275247D01*
X42388Y275345D01*
X42428Y275445D01*
X42465Y275545D01*
X42498Y275647D01*
X42527Y275751D01*
X42552Y275855D01*
X42573Y275960D01*
X42591Y276066D01*
X42604Y276172D01*
X42614Y276279D01*
X42620Y276386D01*
X42622Y276493D01*
X42622Y277961D01*
X42620Y278068D01*
X42614Y278175D01*
X42604Y278282D01*
X42591Y278388D01*
X42573Y278494D01*
X42552Y278599D01*
X42527Y278703D01*
X42498Y278807D01*
X42465Y278909D01*
X42428Y279009D01*
X42388Y279109D01*
X42344Y279207D01*
X42297Y279303D01*
X42246Y279397D01*
X42192Y279490D01*
X42135Y279580D01*
X42074Y279669D01*
X42010Y279755D01*
X41943Y279838D01*
X41873Y279920D01*
X41800Y279998D01*
X41724Y280074D01*
X41646Y280147D01*
X41564Y280217D01*
X41481Y280284D01*
X41395Y280348D01*
X41306Y280409D01*
X41216Y280466D01*
X41123Y280520D01*
X41029Y280571D01*
X40933Y280618D01*
X40835Y280662D01*
X40735Y280702D01*
X40635Y280739D01*
X40533Y280772D01*
X40429Y280801D01*
X40325Y280826D01*
X40220Y280847D01*
X40114Y280865D01*
X40008Y280878D01*
X39901Y280888D01*
X39794Y280894D01*
X39687Y280896D01*
X35285Y280896D01*
X35285Y286766D01*
X42622Y286766D01*
X48632Y286766D02*
X48632Y273558D01*
X53035Y279428D02*
X48632Y286766D01*
X53035Y279428D02*
X57438Y286766D01*
X57438Y273558D01*
X63875Y273558D02*
X63875Y286766D01*
X63875Y280896D02*
X71212Y280896D01*
X71212Y286766D02*
X71212Y273558D01*
X76557Y282363D02*
X82427Y282363D01*
X76557Y273558D01*
X82427Y273558D01*
D119*
X-16550Y73938D02*
X-19050Y73938D01*
X-21550Y73938D01*
X-19050Y73938D02*
X-16550Y68938D01*
X-21550Y68938D02*
X-19050Y73938D01*
X-21550Y68938D02*
X-16550Y68938D01*
X-14050Y58938D02*
X-24050Y58938D01*
X-24050Y83938D01*
X-14050Y83938D01*
X-14050Y58938D01*
D120*
X-11607Y65118D02*
X-4241Y65118D01*
X-11607Y65118D02*
X-11607Y67164D01*
X-11606Y67164D02*
X-11604Y67253D01*
X-11598Y67342D01*
X-11588Y67431D01*
X-11575Y67519D01*
X-11558Y67607D01*
X-11536Y67694D01*
X-11511Y67779D01*
X-11483Y67864D01*
X-11450Y67947D01*
X-11414Y68029D01*
X-11375Y68109D01*
X-11332Y68187D01*
X-11286Y68263D01*
X-11236Y68338D01*
X-11183Y68410D01*
X-11127Y68479D01*
X-11068Y68546D01*
X-11007Y68611D01*
X-10942Y68672D01*
X-10875Y68731D01*
X-10806Y68787D01*
X-10734Y68840D01*
X-10659Y68890D01*
X-10583Y68936D01*
X-10505Y68979D01*
X-10425Y69018D01*
X-10343Y69054D01*
X-10260Y69087D01*
X-10175Y69115D01*
X-10090Y69140D01*
X-10003Y69162D01*
X-9915Y69179D01*
X-9827Y69192D01*
X-9738Y69202D01*
X-9649Y69208D01*
X-9560Y69210D01*
X-6287Y69210D01*
X-6198Y69208D01*
X-6109Y69202D01*
X-6020Y69192D01*
X-5932Y69179D01*
X-5844Y69162D01*
X-5757Y69140D01*
X-5672Y69115D01*
X-5587Y69087D01*
X-5504Y69054D01*
X-5422Y69018D01*
X-5342Y68979D01*
X-5264Y68936D01*
X-5188Y68890D01*
X-5113Y68840D01*
X-5041Y68787D01*
X-4972Y68731D01*
X-4905Y68672D01*
X-4840Y68611D01*
X-4779Y68546D01*
X-4720Y68479D01*
X-4664Y68410D01*
X-4611Y68338D01*
X-4561Y68263D01*
X-4515Y68187D01*
X-4472Y68109D01*
X-4433Y68029D01*
X-4397Y67947D01*
X-4364Y67864D01*
X-4336Y67779D01*
X-4311Y67694D01*
X-4289Y67607D01*
X-4272Y67519D01*
X-4259Y67431D01*
X-4249Y67342D01*
X-4243Y67253D01*
X-4241Y67164D01*
X-4241Y65118D01*
X-9970Y72677D02*
X-11607Y74723D01*
X-4241Y74723D01*
X-4241Y72677D02*
X-4241Y76769D01*
D117*
X31750Y69850D02*
X31750Y57150D01*
X31750Y69850D02*
X38100Y76200D01*
X50800Y76200D01*
X57150Y69850D01*
X50800Y50800D02*
X38100Y50800D01*
X31750Y57150D01*
X50800Y50800D02*
X57150Y57150D01*
X57150Y69850D01*
X62675Y72581D02*
X62675Y56325D01*
X62675Y72581D02*
X67190Y72581D01*
X67323Y72579D01*
X67455Y72573D01*
X67587Y72563D01*
X67719Y72550D01*
X67851Y72532D01*
X67981Y72511D01*
X68112Y72486D01*
X68241Y72457D01*
X68369Y72424D01*
X68497Y72388D01*
X68623Y72348D01*
X68748Y72304D01*
X68872Y72256D01*
X68994Y72205D01*
X69115Y72150D01*
X69234Y72092D01*
X69352Y72030D01*
X69467Y71965D01*
X69581Y71896D01*
X69692Y71825D01*
X69801Y71749D01*
X69908Y71671D01*
X70013Y71590D01*
X70115Y71505D01*
X70215Y71418D01*
X70312Y71328D01*
X70407Y71235D01*
X70498Y71139D01*
X70587Y71041D01*
X70673Y70940D01*
X70756Y70836D01*
X70836Y70730D01*
X70912Y70622D01*
X70986Y70512D01*
X71056Y70399D01*
X71123Y70285D01*
X71186Y70168D01*
X71246Y70050D01*
X71303Y69930D01*
X71356Y69808D01*
X71405Y69685D01*
X71451Y69561D01*
X71493Y69435D01*
X71531Y69308D01*
X71566Y69180D01*
X71597Y69051D01*
X71624Y68922D01*
X71647Y68791D01*
X71667Y68660D01*
X71682Y68528D01*
X71694Y68396D01*
X71702Y68264D01*
X71706Y68131D01*
X71706Y67999D01*
X71702Y67866D01*
X71694Y67734D01*
X71682Y67602D01*
X71667Y67470D01*
X71647Y67339D01*
X71624Y67208D01*
X71597Y67079D01*
X71566Y66950D01*
X71531Y66822D01*
X71493Y66695D01*
X71451Y66569D01*
X71405Y66445D01*
X71356Y66322D01*
X71303Y66200D01*
X71246Y66080D01*
X71186Y65962D01*
X71123Y65845D01*
X71056Y65731D01*
X70986Y65618D01*
X70912Y65508D01*
X70836Y65400D01*
X70756Y65294D01*
X70673Y65190D01*
X70587Y65089D01*
X70498Y64991D01*
X70407Y64895D01*
X70312Y64802D01*
X70215Y64712D01*
X70115Y64625D01*
X70013Y64540D01*
X69908Y64459D01*
X69801Y64381D01*
X69692Y64305D01*
X69581Y64234D01*
X69467Y64165D01*
X69352Y64100D01*
X69234Y64038D01*
X69115Y63980D01*
X68994Y63925D01*
X68872Y63874D01*
X68748Y63826D01*
X68623Y63782D01*
X68497Y63742D01*
X68369Y63706D01*
X68241Y63673D01*
X68112Y63644D01*
X67981Y63619D01*
X67851Y63598D01*
X67719Y63580D01*
X67587Y63567D01*
X67455Y63557D01*
X67323Y63551D01*
X67190Y63549D01*
X62675Y63549D01*
X68093Y63549D02*
X71706Y56325D01*
D121*
X112078Y136271D02*
X118936Y136271D01*
D120*
X109125Y147225D02*
X109125Y154591D01*
X112399Y154591D01*
X112399Y151317D02*
X109125Y151317D01*
X115567Y151317D02*
X117613Y151317D01*
X117702Y151315D01*
X117791Y151309D01*
X117880Y151299D01*
X117968Y151286D01*
X118056Y151269D01*
X118143Y151247D01*
X118228Y151222D01*
X118313Y151194D01*
X118396Y151161D01*
X118478Y151125D01*
X118558Y151086D01*
X118636Y151043D01*
X118712Y150997D01*
X118787Y150947D01*
X118859Y150894D01*
X118928Y150838D01*
X118995Y150779D01*
X119060Y150718D01*
X119121Y150653D01*
X119180Y150586D01*
X119236Y150517D01*
X119289Y150445D01*
X119339Y150370D01*
X119385Y150294D01*
X119428Y150216D01*
X119467Y150136D01*
X119503Y150054D01*
X119536Y149971D01*
X119564Y149886D01*
X119589Y149801D01*
X119611Y149714D01*
X119628Y149626D01*
X119641Y149538D01*
X119651Y149449D01*
X119657Y149360D01*
X119659Y149271D01*
X119657Y149182D01*
X119651Y149093D01*
X119641Y149004D01*
X119628Y148916D01*
X119611Y148828D01*
X119589Y148741D01*
X119564Y148656D01*
X119536Y148571D01*
X119503Y148488D01*
X119467Y148406D01*
X119428Y148326D01*
X119385Y148248D01*
X119339Y148172D01*
X119289Y148097D01*
X119236Y148025D01*
X119180Y147956D01*
X119121Y147889D01*
X119060Y147824D01*
X118995Y147763D01*
X118928Y147704D01*
X118859Y147648D01*
X118787Y147595D01*
X118712Y147545D01*
X118636Y147499D01*
X118558Y147456D01*
X118478Y147417D01*
X118396Y147381D01*
X118313Y147348D01*
X118228Y147320D01*
X118143Y147295D01*
X118056Y147273D01*
X117968Y147256D01*
X117880Y147243D01*
X117791Y147233D01*
X117702Y147227D01*
X117613Y147225D01*
X115567Y147225D01*
X115567Y154591D01*
X117613Y154591D01*
X117692Y154589D01*
X117771Y154583D01*
X117850Y154574D01*
X117928Y154561D01*
X118005Y154543D01*
X118081Y154523D01*
X118156Y154498D01*
X118230Y154470D01*
X118303Y154439D01*
X118374Y154403D01*
X118443Y154365D01*
X118510Y154323D01*
X118575Y154278D01*
X118638Y154230D01*
X118699Y154179D01*
X118756Y154125D01*
X118812Y154069D01*
X118864Y154010D01*
X118914Y153948D01*
X118960Y153884D01*
X119004Y153818D01*
X119044Y153750D01*
X119080Y153680D01*
X119114Y153608D01*
X119144Y153534D01*
X119170Y153460D01*
X119193Y153384D01*
X119211Y153307D01*
X119227Y153230D01*
X119238Y153151D01*
X119246Y153073D01*
X119250Y152994D01*
X119250Y152914D01*
X119246Y152835D01*
X119238Y152757D01*
X119227Y152678D01*
X119211Y152601D01*
X119193Y152524D01*
X119170Y152448D01*
X119144Y152374D01*
X119114Y152300D01*
X119080Y152228D01*
X119044Y152158D01*
X119004Y152090D01*
X118960Y152024D01*
X118914Y151960D01*
X118864Y151898D01*
X118812Y151839D01*
X118756Y151783D01*
X118699Y151729D01*
X118638Y151678D01*
X118575Y151630D01*
X118510Y151585D01*
X118443Y151543D01*
X118374Y151505D01*
X118303Y151469D01*
X118230Y151438D01*
X118156Y151410D01*
X118081Y151385D01*
X118005Y151365D01*
X117928Y151347D01*
X117850Y151334D01*
X117771Y151325D01*
X117692Y151319D01*
X117613Y151317D01*
X122520Y152954D02*
X124566Y154591D01*
X124566Y147225D01*
X122520Y147225D02*
X126612Y147225D01*
D121*
X18603Y75378D02*
X18603Y68774D01*
D120*
X10284Y69332D02*
X10284Y70968D01*
X10284Y69332D02*
X10282Y69254D01*
X10277Y69176D01*
X10267Y69099D01*
X10254Y69022D01*
X10238Y68946D01*
X10218Y68871D01*
X10194Y68797D01*
X10167Y68724D01*
X10136Y68652D01*
X10102Y68582D01*
X10065Y68514D01*
X10024Y68447D01*
X9980Y68382D01*
X9934Y68320D01*
X9884Y68260D01*
X9832Y68202D01*
X9777Y68147D01*
X9719Y68095D01*
X9659Y68045D01*
X9597Y67999D01*
X9532Y67955D01*
X9466Y67914D01*
X9397Y67877D01*
X9327Y67843D01*
X9255Y67812D01*
X9182Y67785D01*
X9108Y67761D01*
X9033Y67741D01*
X8957Y67725D01*
X8880Y67712D01*
X8803Y67702D01*
X8725Y67697D01*
X8647Y67695D01*
X4555Y67695D01*
X4475Y67697D01*
X4395Y67703D01*
X4315Y67713D01*
X4236Y67726D01*
X4157Y67744D01*
X4080Y67765D01*
X4004Y67791D01*
X3929Y67820D01*
X3855Y67852D01*
X3783Y67888D01*
X3713Y67928D01*
X3646Y67971D01*
X3580Y68017D01*
X3517Y68067D01*
X3456Y68119D01*
X3397Y68174D01*
X3342Y68233D01*
X3290Y68293D01*
X3240Y68357D01*
X3194Y68422D01*
X3151Y68490D01*
X3111Y68560D01*
X3075Y68632D01*
X3043Y68706D01*
X3014Y68780D01*
X2989Y68857D01*
X2967Y68934D01*
X2949Y69013D01*
X2936Y69092D01*
X2926Y69171D01*
X2920Y69252D01*
X2918Y69332D01*
X2918Y70968D01*
X4555Y73814D02*
X2918Y75860D01*
X10284Y75860D01*
X10284Y73814D02*
X10284Y77906D01*
D117*
X-112713Y168275D02*
X-112713Y180975D01*
X-112713Y168275D02*
X-119063Y161925D01*
X-131763Y161925D01*
X-138113Y168275D01*
X-119063Y161925D02*
X-112713Y155575D01*
X-112713Y142875D01*
X-119063Y136525D01*
X-131763Y136525D01*
X-138113Y142875D01*
X-138113Y155575D01*
X-131763Y161925D01*
X-131763Y187325D02*
X-119063Y187325D01*
X-112713Y180975D01*
X-131763Y187325D02*
X-138113Y180975D01*
X-138113Y168275D01*
X-119063Y136525D02*
X-112713Y130175D01*
X-112713Y117475D01*
X-119063Y111125D01*
X-131763Y111125D01*
X-138113Y117475D01*
X-138113Y130175D01*
X-131763Y136525D01*
X-108776Y176481D02*
X-104260Y176481D01*
X-104127Y176479D01*
X-103995Y176473D01*
X-103863Y176463D01*
X-103731Y176450D01*
X-103599Y176432D01*
X-103469Y176411D01*
X-103338Y176386D01*
X-103209Y176357D01*
X-103081Y176324D01*
X-102953Y176288D01*
X-102827Y176248D01*
X-102702Y176204D01*
X-102578Y176156D01*
X-102456Y176105D01*
X-102335Y176050D01*
X-102216Y175992D01*
X-102098Y175930D01*
X-101983Y175865D01*
X-101869Y175796D01*
X-101758Y175725D01*
X-101649Y175649D01*
X-101542Y175571D01*
X-101437Y175490D01*
X-101335Y175405D01*
X-101235Y175318D01*
X-101138Y175228D01*
X-101043Y175135D01*
X-100952Y175039D01*
X-100863Y174941D01*
X-100777Y174840D01*
X-100694Y174736D01*
X-100614Y174630D01*
X-100538Y174522D01*
X-100464Y174412D01*
X-100394Y174299D01*
X-100327Y174185D01*
X-100264Y174068D01*
X-100204Y173950D01*
X-100147Y173830D01*
X-100094Y173708D01*
X-100045Y173585D01*
X-99999Y173461D01*
X-99957Y173335D01*
X-99919Y173208D01*
X-99884Y173080D01*
X-99853Y172951D01*
X-99826Y172822D01*
X-99803Y172691D01*
X-99783Y172560D01*
X-99768Y172428D01*
X-99756Y172296D01*
X-99748Y172164D01*
X-99744Y172031D01*
X-99744Y171899D01*
X-99748Y171766D01*
X-99756Y171634D01*
X-99768Y171502D01*
X-99783Y171370D01*
X-99803Y171239D01*
X-99826Y171108D01*
X-99853Y170979D01*
X-99884Y170850D01*
X-99919Y170722D01*
X-99957Y170595D01*
X-99999Y170469D01*
X-100045Y170345D01*
X-100094Y170222D01*
X-100147Y170100D01*
X-100204Y169980D01*
X-100264Y169862D01*
X-100327Y169745D01*
X-100394Y169631D01*
X-100464Y169518D01*
X-100538Y169408D01*
X-100614Y169300D01*
X-100694Y169194D01*
X-100777Y169090D01*
X-100863Y168989D01*
X-100952Y168891D01*
X-101043Y168795D01*
X-101138Y168702D01*
X-101235Y168612D01*
X-101335Y168525D01*
X-101437Y168440D01*
X-101542Y168359D01*
X-101649Y168281D01*
X-101758Y168205D01*
X-101869Y168134D01*
X-101983Y168065D01*
X-102098Y168000D01*
X-102216Y167938D01*
X-102335Y167880D01*
X-102456Y167825D01*
X-102578Y167774D01*
X-102702Y167726D01*
X-102827Y167682D01*
X-102953Y167642D01*
X-103081Y167606D01*
X-103209Y167573D01*
X-103338Y167544D01*
X-103469Y167519D01*
X-103599Y167498D01*
X-103731Y167480D01*
X-103863Y167467D01*
X-103995Y167457D01*
X-104127Y167451D01*
X-104260Y167449D01*
X-104260Y167450D02*
X-108776Y167450D01*
X-108776Y183706D01*
X-104260Y183706D01*
X-104260Y183705D02*
X-104141Y183703D01*
X-104021Y183697D01*
X-103902Y183687D01*
X-103784Y183673D01*
X-103665Y183656D01*
X-103548Y183634D01*
X-103431Y183609D01*
X-103316Y183579D01*
X-103201Y183546D01*
X-103087Y183509D01*
X-102975Y183469D01*
X-102864Y183424D01*
X-102755Y183376D01*
X-102647Y183325D01*
X-102541Y183270D01*
X-102437Y183211D01*
X-102335Y183149D01*
X-102235Y183084D01*
X-102137Y183015D01*
X-102041Y182943D01*
X-101948Y182868D01*
X-101858Y182791D01*
X-101770Y182710D01*
X-101685Y182626D01*
X-101603Y182539D01*
X-101523Y182450D01*
X-101447Y182358D01*
X-101373Y182264D01*
X-101303Y182167D01*
X-101236Y182069D01*
X-101172Y181968D01*
X-101112Y181864D01*
X-101055Y181759D01*
X-101002Y181652D01*
X-100952Y181544D01*
X-100906Y181434D01*
X-100864Y181322D01*
X-100825Y181209D01*
X-100790Y181095D01*
X-100759Y180980D01*
X-100731Y180863D01*
X-100708Y180746D01*
X-100688Y180629D01*
X-100672Y180510D01*
X-100660Y180391D01*
X-100652Y180272D01*
X-100648Y180153D01*
X-100648Y180033D01*
X-100652Y179914D01*
X-100660Y179795D01*
X-100672Y179676D01*
X-100688Y179557D01*
X-100708Y179440D01*
X-100731Y179323D01*
X-100759Y179206D01*
X-100790Y179091D01*
X-100825Y178977D01*
X-100864Y178864D01*
X-100906Y178752D01*
X-100952Y178642D01*
X-101002Y178534D01*
X-101055Y178427D01*
X-101112Y178322D01*
X-101172Y178218D01*
X-101236Y178117D01*
X-101303Y178019D01*
X-101373Y177922D01*
X-101447Y177828D01*
X-101523Y177736D01*
X-101603Y177647D01*
X-101685Y177560D01*
X-101770Y177476D01*
X-101858Y177395D01*
X-101948Y177318D01*
X-102041Y177243D01*
X-102137Y177171D01*
X-102235Y177102D01*
X-102335Y177037D01*
X-102437Y176975D01*
X-102541Y176916D01*
X-102647Y176861D01*
X-102755Y176810D01*
X-102864Y176762D01*
X-102975Y176717D01*
X-103087Y176677D01*
X-103201Y176640D01*
X-103316Y176607D01*
X-103431Y176577D01*
X-103548Y176552D01*
X-103665Y176530D01*
X-103784Y176513D01*
X-103902Y176499D01*
X-104021Y176489D01*
X-104141Y176483D01*
X-104260Y176481D01*
X-105163Y140462D02*
X-101551Y140462D01*
X-105163Y140462D02*
X-105281Y140464D01*
X-105399Y140470D01*
X-105517Y140479D01*
X-105634Y140493D01*
X-105751Y140510D01*
X-105868Y140531D01*
X-105983Y140556D01*
X-106098Y140585D01*
X-106212Y140618D01*
X-106324Y140654D01*
X-106435Y140694D01*
X-106545Y140737D01*
X-106654Y140784D01*
X-106761Y140834D01*
X-106866Y140889D01*
X-106969Y140946D01*
X-107070Y141007D01*
X-107170Y141071D01*
X-107267Y141138D01*
X-107362Y141208D01*
X-107454Y141282D01*
X-107545Y141358D01*
X-107632Y141438D01*
X-107717Y141520D01*
X-107799Y141605D01*
X-107879Y141692D01*
X-107955Y141783D01*
X-108029Y141875D01*
X-108099Y141970D01*
X-108166Y142067D01*
X-108230Y142167D01*
X-108291Y142268D01*
X-108348Y142371D01*
X-108403Y142476D01*
X-108453Y142583D01*
X-108500Y142692D01*
X-108543Y142802D01*
X-108583Y142913D01*
X-108619Y143025D01*
X-108652Y143139D01*
X-108681Y143254D01*
X-108706Y143369D01*
X-108727Y143486D01*
X-108744Y143603D01*
X-108758Y143720D01*
X-108767Y143838D01*
X-108773Y143956D01*
X-108775Y144074D01*
X-108776Y144074D02*
X-108776Y153106D01*
X-108775Y153106D02*
X-108773Y153224D01*
X-108767Y153342D01*
X-108758Y153460D01*
X-108744Y153577D01*
X-108727Y153694D01*
X-108706Y153811D01*
X-108681Y153926D01*
X-108652Y154041D01*
X-108619Y154155D01*
X-108583Y154267D01*
X-108543Y154378D01*
X-108500Y154488D01*
X-108453Y154597D01*
X-108403Y154704D01*
X-108348Y154809D01*
X-108291Y154912D01*
X-108230Y155013D01*
X-108166Y155113D01*
X-108099Y155210D01*
X-108029Y155305D01*
X-107955Y155397D01*
X-107879Y155488D01*
X-107799Y155575D01*
X-107717Y155660D01*
X-107632Y155742D01*
X-107545Y155822D01*
X-107454Y155898D01*
X-107362Y155972D01*
X-107267Y156042D01*
X-107170Y156109D01*
X-107070Y156173D01*
X-106969Y156234D01*
X-106866Y156291D01*
X-106761Y156346D01*
X-106654Y156396D01*
X-106545Y156443D01*
X-106435Y156486D01*
X-106324Y156526D01*
X-106212Y156562D01*
X-106098Y156595D01*
X-105983Y156624D01*
X-105868Y156649D01*
X-105751Y156670D01*
X-105634Y156687D01*
X-105517Y156701D01*
X-105399Y156710D01*
X-105281Y156716D01*
X-105163Y156718D01*
X-101551Y156718D01*
X-108776Y131318D02*
X-108776Y115062D01*
X-108776Y131318D02*
X-104260Y131318D01*
X-104129Y131316D01*
X-103997Y131310D01*
X-103866Y131301D01*
X-103736Y131287D01*
X-103605Y131270D01*
X-103476Y131249D01*
X-103347Y131225D01*
X-103219Y131196D01*
X-103091Y131164D01*
X-102965Y131128D01*
X-102840Y131089D01*
X-102715Y131046D01*
X-102593Y130999D01*
X-102471Y130949D01*
X-102351Y130895D01*
X-102233Y130838D01*
X-102117Y130777D01*
X-102002Y130713D01*
X-101889Y130646D01*
X-101778Y130575D01*
X-101670Y130501D01*
X-101563Y130424D01*
X-101459Y130344D01*
X-101357Y130261D01*
X-101258Y130176D01*
X-101161Y130087D01*
X-101067Y129995D01*
X-100975Y129901D01*
X-100886Y129804D01*
X-100801Y129705D01*
X-100718Y129603D01*
X-100638Y129499D01*
X-100561Y129392D01*
X-100487Y129284D01*
X-100416Y129173D01*
X-100349Y129060D01*
X-100285Y128945D01*
X-100224Y128829D01*
X-100167Y128711D01*
X-100113Y128591D01*
X-100063Y128469D01*
X-100016Y128347D01*
X-99973Y128222D01*
X-99934Y128097D01*
X-99898Y127971D01*
X-99866Y127843D01*
X-99837Y127715D01*
X-99813Y127586D01*
X-99792Y127457D01*
X-99775Y127326D01*
X-99761Y127196D01*
X-99752Y127065D01*
X-99746Y126933D01*
X-99744Y126802D01*
X-99744Y119578D01*
X-99746Y119447D01*
X-99752Y119315D01*
X-99761Y119184D01*
X-99775Y119054D01*
X-99792Y118923D01*
X-99813Y118794D01*
X-99837Y118665D01*
X-99866Y118537D01*
X-99898Y118409D01*
X-99934Y118283D01*
X-99973Y118158D01*
X-100016Y118033D01*
X-100063Y117911D01*
X-100113Y117789D01*
X-100167Y117669D01*
X-100224Y117551D01*
X-100285Y117435D01*
X-100349Y117320D01*
X-100416Y117207D01*
X-100487Y117096D01*
X-100561Y116988D01*
X-100638Y116881D01*
X-100718Y116777D01*
X-100801Y116675D01*
X-100886Y116576D01*
X-100975Y116479D01*
X-101067Y116385D01*
X-101161Y116293D01*
X-101258Y116204D01*
X-101357Y116119D01*
X-101459Y116036D01*
X-101563Y115956D01*
X-101670Y115879D01*
X-101778Y115805D01*
X-101889Y115734D01*
X-102002Y115667D01*
X-102117Y115603D01*
X-102233Y115542D01*
X-102351Y115485D01*
X-102471Y115431D01*
X-102593Y115381D01*
X-102715Y115334D01*
X-102840Y115291D01*
X-102965Y115252D01*
X-103091Y115216D01*
X-103219Y115184D01*
X-103347Y115155D01*
X-103476Y115131D01*
X-103605Y115110D01*
X-103736Y115093D01*
X-103866Y115079D01*
X-103997Y115070D01*
X-104129Y115064D01*
X-104260Y115062D01*
X-108776Y115062D01*
D122*
X73808Y88827D02*
X73810Y88926D01*
X73816Y89026D01*
X73826Y89125D01*
X73840Y89223D01*
X73857Y89321D01*
X73879Y89418D01*
X73904Y89514D01*
X73933Y89609D01*
X73966Y89703D01*
X74003Y89795D01*
X74043Y89886D01*
X74087Y89975D01*
X74135Y90063D01*
X74186Y90148D01*
X74240Y90231D01*
X74297Y90313D01*
X74358Y90391D01*
X74422Y90468D01*
X74488Y90541D01*
X74558Y90612D01*
X74630Y90680D01*
X74705Y90746D01*
X74783Y90808D01*
X74863Y90867D01*
X74945Y90923D01*
X75029Y90975D01*
X75116Y91024D01*
X75204Y91070D01*
X75294Y91112D01*
X75386Y91151D01*
X75479Y91186D01*
X75573Y91217D01*
X75669Y91244D01*
X75766Y91267D01*
X75863Y91287D01*
X75961Y91303D01*
X76060Y91315D01*
X76159Y91323D01*
X76258Y91327D01*
X76358Y91327D01*
X76457Y91323D01*
X76556Y91315D01*
X76655Y91303D01*
X76753Y91287D01*
X76850Y91267D01*
X76947Y91244D01*
X77043Y91217D01*
X77137Y91186D01*
X77230Y91151D01*
X77322Y91112D01*
X77412Y91070D01*
X77500Y91024D01*
X77587Y90975D01*
X77671Y90923D01*
X77753Y90867D01*
X77833Y90808D01*
X77911Y90746D01*
X77986Y90680D01*
X78058Y90612D01*
X78128Y90541D01*
X78194Y90468D01*
X78258Y90391D01*
X78319Y90313D01*
X78376Y90231D01*
X78430Y90148D01*
X78481Y90063D01*
X78529Y89975D01*
X78573Y89886D01*
X78613Y89795D01*
X78650Y89703D01*
X78683Y89609D01*
X78712Y89514D01*
X78737Y89418D01*
X78759Y89321D01*
X78776Y89223D01*
X78790Y89125D01*
X78800Y89026D01*
X78806Y88926D01*
X78808Y88827D01*
X78806Y88728D01*
X78800Y88628D01*
X78790Y88529D01*
X78776Y88431D01*
X78759Y88333D01*
X78737Y88236D01*
X78712Y88140D01*
X78683Y88045D01*
X78650Y87951D01*
X78613Y87859D01*
X78573Y87768D01*
X78529Y87679D01*
X78481Y87591D01*
X78430Y87506D01*
X78376Y87423D01*
X78319Y87341D01*
X78258Y87263D01*
X78194Y87186D01*
X78128Y87113D01*
X78058Y87042D01*
X77986Y86974D01*
X77911Y86908D01*
X77833Y86846D01*
X77753Y86787D01*
X77671Y86731D01*
X77587Y86679D01*
X77500Y86630D01*
X77412Y86584D01*
X77322Y86542D01*
X77230Y86503D01*
X77137Y86468D01*
X77043Y86437D01*
X76947Y86410D01*
X76850Y86387D01*
X76753Y86367D01*
X76655Y86351D01*
X76556Y86339D01*
X76457Y86331D01*
X76358Y86327D01*
X76258Y86327D01*
X76159Y86331D01*
X76060Y86339D01*
X75961Y86351D01*
X75863Y86367D01*
X75766Y86387D01*
X75669Y86410D01*
X75573Y86437D01*
X75479Y86468D01*
X75386Y86503D01*
X75294Y86542D01*
X75204Y86584D01*
X75116Y86630D01*
X75029Y86679D01*
X74945Y86731D01*
X74863Y86787D01*
X74783Y86846D01*
X74705Y86908D01*
X74630Y86974D01*
X74558Y87042D01*
X74488Y87113D01*
X74422Y87186D01*
X74358Y87263D01*
X74297Y87341D01*
X74240Y87423D01*
X74186Y87506D01*
X74135Y87591D01*
X74087Y87679D01*
X74043Y87768D01*
X74003Y87859D01*
X73966Y87951D01*
X73933Y88045D01*
X73904Y88140D01*
X73879Y88236D01*
X73857Y88333D01*
X73840Y88431D01*
X73826Y88529D01*
X73816Y88628D01*
X73810Y88728D01*
X73808Y88827D01*
D120*
X-3683Y228911D02*
X-3683Y235698D01*
X-3684Y228911D02*
X-3682Y228810D01*
X-3676Y228709D01*
X-3666Y228608D01*
X-3653Y228508D01*
X-3635Y228408D01*
X-3614Y228309D01*
X-3588Y228211D01*
X-3559Y228114D01*
X-3527Y228018D01*
X-3490Y227924D01*
X-3450Y227831D01*
X-3406Y227739D01*
X-3359Y227650D01*
X-3308Y227562D01*
X-3254Y227476D01*
X-3197Y227393D01*
X-3137Y227311D01*
X-3073Y227233D01*
X-3007Y227156D01*
X-2937Y227083D01*
X-2865Y227012D01*
X-2790Y226944D01*
X-2712Y226879D01*
X-2632Y226817D01*
X-2550Y226758D01*
X-2465Y226702D01*
X-2379Y226650D01*
X-2290Y226601D01*
X-2199Y226555D01*
X-2107Y226514D01*
X-2013Y226475D01*
X-1918Y226441D01*
X-1822Y226410D01*
X-1724Y226383D01*
X-1626Y226359D01*
X-1526Y226340D01*
X-1426Y226324D01*
X-1326Y226312D01*
X-1225Y226304D01*
X-1124Y226300D01*
X-1022Y226300D01*
X-921Y226304D01*
X-820Y226312D01*
X-720Y226324D01*
X-620Y226340D01*
X-520Y226359D01*
X-422Y226383D01*
X-324Y226410D01*
X-228Y226441D01*
X-133Y226475D01*
X-39Y226514D01*
X53Y226555D01*
X144Y226601D01*
X232Y226650D01*
X319Y226702D01*
X404Y226758D01*
X486Y226817D01*
X566Y226879D01*
X644Y226944D01*
X719Y227012D01*
X791Y227083D01*
X861Y227156D01*
X927Y227233D01*
X991Y227311D01*
X1051Y227393D01*
X1108Y227476D01*
X1162Y227562D01*
X1213Y227650D01*
X1260Y227739D01*
X1304Y227831D01*
X1344Y227924D01*
X1381Y228018D01*
X1413Y228114D01*
X1442Y228211D01*
X1468Y228309D01*
X1489Y228408D01*
X1507Y228508D01*
X1520Y228608D01*
X1530Y228709D01*
X1536Y228810D01*
X1538Y228911D01*
X1538Y235698D01*
X8637Y235699D02*
X8732Y235697D01*
X8826Y235691D01*
X8920Y235682D01*
X9014Y235669D01*
X9107Y235652D01*
X9199Y235631D01*
X9291Y235606D01*
X9381Y235578D01*
X9470Y235546D01*
X9558Y235511D01*
X9644Y235472D01*
X9729Y235430D01*
X9812Y235384D01*
X9893Y235335D01*
X9972Y235283D01*
X10049Y235228D01*
X10123Y235169D01*
X10195Y235108D01*
X10265Y235044D01*
X10332Y234977D01*
X10396Y234907D01*
X10457Y234835D01*
X10516Y234761D01*
X10571Y234684D01*
X10623Y234605D01*
X10672Y234524D01*
X10718Y234441D01*
X10760Y234356D01*
X10799Y234270D01*
X10834Y234182D01*
X10866Y234093D01*
X10894Y234003D01*
X10919Y233911D01*
X10940Y233819D01*
X10957Y233726D01*
X10970Y233632D01*
X10979Y233538D01*
X10985Y233444D01*
X10987Y233349D01*
X8637Y235698D02*
X8529Y235696D01*
X8420Y235690D01*
X8312Y235680D01*
X8205Y235667D01*
X8098Y235649D01*
X7991Y235628D01*
X7886Y235603D01*
X7781Y235574D01*
X7678Y235542D01*
X7576Y235505D01*
X7475Y235465D01*
X7376Y235422D01*
X7278Y235375D01*
X7182Y235324D01*
X7088Y235270D01*
X6996Y235213D01*
X6906Y235152D01*
X6818Y235088D01*
X6733Y235022D01*
X6650Y234952D01*
X6570Y234879D01*
X6492Y234803D01*
X6417Y234725D01*
X6345Y234644D01*
X6276Y234560D01*
X6210Y234474D01*
X6147Y234386D01*
X6088Y234295D01*
X6031Y234203D01*
X5978Y234108D01*
X5929Y234012D01*
X5883Y233913D01*
X5840Y233814D01*
X5801Y233712D01*
X5766Y233610D01*
X10204Y231521D02*
X10273Y231590D01*
X10339Y231661D01*
X10403Y231734D01*
X10464Y231810D01*
X10522Y231889D01*
X10576Y231969D01*
X10628Y232052D01*
X10676Y232136D01*
X10722Y232222D01*
X10763Y232310D01*
X10802Y232400D01*
X10837Y232491D01*
X10868Y232583D01*
X10896Y232676D01*
X10920Y232770D01*
X10940Y232865D01*
X10957Y232961D01*
X10970Y233058D01*
X10979Y233155D01*
X10985Y233252D01*
X10987Y233349D01*
X10203Y231521D02*
X5765Y226300D01*
X10986Y226300D01*
D121*
X-56850Y293988D02*
X-82850Y293988D01*
X-82850Y267988D02*
X-77730Y267988D01*
X-62153Y267988D02*
X-56850Y267988D01*
D118*
X-67234Y278912D02*
X-76322Y278912D01*
X-67234Y278911D02*
X-67135Y278909D01*
X-67035Y278903D01*
X-66936Y278894D01*
X-66838Y278881D01*
X-66740Y278864D01*
X-66642Y278843D01*
X-66546Y278818D01*
X-66451Y278790D01*
X-66357Y278758D01*
X-66264Y278723D01*
X-66172Y278684D01*
X-66082Y278641D01*
X-65994Y278596D01*
X-65907Y278546D01*
X-65823Y278494D01*
X-65740Y278438D01*
X-65660Y278380D01*
X-65582Y278318D01*
X-65507Y278253D01*
X-65434Y278185D01*
X-65364Y278115D01*
X-65296Y278042D01*
X-65231Y277967D01*
X-65169Y277889D01*
X-65111Y277809D01*
X-65055Y277726D01*
X-65003Y277642D01*
X-64953Y277555D01*
X-64908Y277467D01*
X-64865Y277377D01*
X-64826Y277285D01*
X-64791Y277192D01*
X-64759Y277098D01*
X-64731Y277003D01*
X-64706Y276907D01*
X-64685Y276809D01*
X-64668Y276711D01*
X-64655Y276613D01*
X-64646Y276514D01*
X-64640Y276414D01*
X-64638Y276315D01*
X-64638Y275017D01*
X-73726Y284185D02*
X-76322Y287431D01*
X-64638Y287431D01*
X-64638Y290676D02*
X-64638Y284185D01*
M02*
