G04 EAGLE Gerber RS-274X export*
G75*
%MOMM*%
%FSLAX34Y34*%
%LPD*%
%INSolderpaste Bottom*%
%IPPOS*%
%AMOC8*
5,1,8,0,0,1.08239X$1,22.5*%
G01*
%ADD10R,1.399997X0.400000*%
%ADD11R,1.100000X1.000000*%
%ADD12R,1.000000X1.100000*%
%ADD13R,1.300000X1.500000*%
%ADD14R,1.500000X1.300000*%
%ADD15R,2.700000X1.600000*%
%ADD16R,0.550000X0.297181*%
%ADD17R,0.297181X0.550000*%

G36*
X-15222Y151624D02*
X-15222Y151624D01*
X-15220Y151623D01*
X-15177Y151643D01*
X-15133Y151661D01*
X-15133Y151663D01*
X-15131Y151664D01*
X-15098Y151749D01*
X-15098Y163973D01*
X-15099Y163975D01*
X-15098Y163977D01*
X-15118Y164020D01*
X-15136Y164064D01*
X-15138Y164064D01*
X-15139Y164066D01*
X-15224Y164099D01*
X-27448Y164099D01*
X-27450Y164098D01*
X-27452Y164099D01*
X-27495Y164079D01*
X-27539Y164061D01*
X-27539Y164059D01*
X-27541Y164058D01*
X-27574Y163973D01*
X-27574Y151749D01*
X-27573Y151747D01*
X-27574Y151745D01*
X-27554Y151702D01*
X-27536Y151658D01*
X-27534Y151658D01*
X-27533Y151656D01*
X-27448Y151623D01*
X-15224Y151623D01*
X-15222Y151624D01*
G37*
G36*
X13226Y151624D02*
X13226Y151624D01*
X13228Y151623D01*
X13271Y151643D01*
X13315Y151661D01*
X13315Y151663D01*
X13317Y151664D01*
X13350Y151749D01*
X13350Y163973D01*
X13349Y163975D01*
X13350Y163977D01*
X13330Y164020D01*
X13312Y164064D01*
X13310Y164064D01*
X13309Y164066D01*
X13224Y164099D01*
X1000Y164099D01*
X998Y164098D01*
X996Y164099D01*
X953Y164079D01*
X909Y164061D01*
X909Y164059D01*
X907Y164058D01*
X874Y163973D01*
X874Y151749D01*
X875Y151747D01*
X874Y151745D01*
X894Y151702D01*
X912Y151658D01*
X914Y151658D01*
X915Y151656D01*
X1000Y151623D01*
X13224Y151623D01*
X13226Y151624D01*
G37*
G36*
X-998Y151624D02*
X-998Y151624D01*
X-996Y151623D01*
X-953Y151643D01*
X-909Y151661D01*
X-909Y151663D01*
X-907Y151664D01*
X-874Y151749D01*
X-874Y163973D01*
X-875Y163975D01*
X-874Y163977D01*
X-894Y164020D01*
X-912Y164064D01*
X-914Y164064D01*
X-915Y164066D01*
X-1000Y164099D01*
X-13224Y164099D01*
X-13226Y164098D01*
X-13228Y164099D01*
X-13271Y164079D01*
X-13315Y164061D01*
X-13315Y164059D01*
X-13317Y164058D01*
X-13350Y163973D01*
X-13350Y151749D01*
X-13349Y151747D01*
X-13350Y151745D01*
X-13330Y151702D01*
X-13312Y151658D01*
X-13310Y151658D01*
X-13309Y151656D01*
X-13224Y151623D01*
X-1000Y151623D01*
X-998Y151624D01*
G37*
G36*
X27450Y151624D02*
X27450Y151624D01*
X27452Y151623D01*
X27495Y151643D01*
X27539Y151661D01*
X27539Y151663D01*
X27541Y151664D01*
X27574Y151749D01*
X27574Y163973D01*
X27573Y163975D01*
X27574Y163977D01*
X27554Y164020D01*
X27536Y164064D01*
X27534Y164064D01*
X27533Y164066D01*
X27448Y164099D01*
X15224Y164099D01*
X15222Y164098D01*
X15220Y164099D01*
X15177Y164079D01*
X15133Y164061D01*
X15133Y164059D01*
X15131Y164058D01*
X15098Y163973D01*
X15098Y151749D01*
X15099Y151747D01*
X15098Y151745D01*
X15118Y151702D01*
X15136Y151658D01*
X15138Y151658D01*
X15139Y151656D01*
X15224Y151623D01*
X27448Y151623D01*
X27450Y151624D01*
G37*
G36*
X13226Y137400D02*
X13226Y137400D01*
X13228Y137399D01*
X13271Y137419D01*
X13315Y137437D01*
X13315Y137439D01*
X13317Y137440D01*
X13350Y137525D01*
X13350Y149749D01*
X13349Y149751D01*
X13350Y149753D01*
X13330Y149796D01*
X13312Y149840D01*
X13310Y149840D01*
X13309Y149842D01*
X13224Y149875D01*
X1000Y149875D01*
X998Y149874D01*
X996Y149875D01*
X953Y149855D01*
X909Y149837D01*
X909Y149835D01*
X907Y149834D01*
X874Y149749D01*
X874Y137525D01*
X875Y137523D01*
X874Y137521D01*
X894Y137478D01*
X912Y137434D01*
X914Y137434D01*
X915Y137432D01*
X1000Y137399D01*
X13224Y137399D01*
X13226Y137400D01*
G37*
G36*
X-15222Y137400D02*
X-15222Y137400D01*
X-15220Y137399D01*
X-15177Y137419D01*
X-15133Y137437D01*
X-15133Y137439D01*
X-15131Y137440D01*
X-15098Y137525D01*
X-15098Y149749D01*
X-15099Y149751D01*
X-15098Y149753D01*
X-15118Y149796D01*
X-15136Y149840D01*
X-15138Y149840D01*
X-15139Y149842D01*
X-15224Y149875D01*
X-27448Y149875D01*
X-27450Y149874D01*
X-27452Y149875D01*
X-27495Y149855D01*
X-27539Y149837D01*
X-27539Y149835D01*
X-27541Y149834D01*
X-27574Y149749D01*
X-27574Y137525D01*
X-27573Y137523D01*
X-27574Y137521D01*
X-27554Y137478D01*
X-27536Y137434D01*
X-27534Y137434D01*
X-27533Y137432D01*
X-27448Y137399D01*
X-15224Y137399D01*
X-15222Y137400D01*
G37*
G36*
X-998Y137400D02*
X-998Y137400D01*
X-996Y137399D01*
X-953Y137419D01*
X-909Y137437D01*
X-909Y137439D01*
X-907Y137440D01*
X-874Y137525D01*
X-874Y149749D01*
X-875Y149751D01*
X-874Y149753D01*
X-894Y149796D01*
X-912Y149840D01*
X-914Y149840D01*
X-915Y149842D01*
X-1000Y149875D01*
X-13224Y149875D01*
X-13226Y149874D01*
X-13228Y149875D01*
X-13271Y149855D01*
X-13315Y149837D01*
X-13315Y149835D01*
X-13317Y149834D01*
X-13350Y149749D01*
X-13350Y137525D01*
X-13349Y137523D01*
X-13350Y137521D01*
X-13330Y137478D01*
X-13312Y137434D01*
X-13310Y137434D01*
X-13309Y137432D01*
X-13224Y137399D01*
X-1000Y137399D01*
X-998Y137400D01*
G37*
G36*
X27450Y137400D02*
X27450Y137400D01*
X27452Y137399D01*
X27495Y137419D01*
X27539Y137437D01*
X27539Y137439D01*
X27541Y137440D01*
X27574Y137525D01*
X27574Y149749D01*
X27573Y149751D01*
X27574Y149753D01*
X27554Y149796D01*
X27536Y149840D01*
X27534Y149840D01*
X27533Y149842D01*
X27448Y149875D01*
X15224Y149875D01*
X15222Y149874D01*
X15220Y149875D01*
X15177Y149855D01*
X15133Y149837D01*
X15133Y149835D01*
X15131Y149834D01*
X15098Y149749D01*
X15098Y137525D01*
X15099Y137523D01*
X15098Y137521D01*
X15118Y137478D01*
X15136Y137434D01*
X15138Y137434D01*
X15139Y137432D01*
X15224Y137399D01*
X27448Y137399D01*
X27450Y137400D01*
G37*
G36*
X-15222Y123176D02*
X-15222Y123176D01*
X-15220Y123175D01*
X-15177Y123195D01*
X-15133Y123213D01*
X-15133Y123215D01*
X-15131Y123216D01*
X-15098Y123301D01*
X-15098Y135525D01*
X-15099Y135527D01*
X-15098Y135529D01*
X-15118Y135572D01*
X-15136Y135616D01*
X-15138Y135616D01*
X-15139Y135618D01*
X-15224Y135651D01*
X-27448Y135651D01*
X-27450Y135650D01*
X-27452Y135651D01*
X-27495Y135631D01*
X-27539Y135613D01*
X-27539Y135611D01*
X-27541Y135610D01*
X-27574Y135525D01*
X-27574Y123301D01*
X-27573Y123299D01*
X-27574Y123297D01*
X-27554Y123254D01*
X-27536Y123210D01*
X-27534Y123210D01*
X-27533Y123208D01*
X-27448Y123175D01*
X-15224Y123175D01*
X-15222Y123176D01*
G37*
G36*
X13226Y123176D02*
X13226Y123176D01*
X13228Y123175D01*
X13271Y123195D01*
X13315Y123213D01*
X13315Y123215D01*
X13317Y123216D01*
X13350Y123301D01*
X13350Y135525D01*
X13349Y135527D01*
X13350Y135529D01*
X13330Y135572D01*
X13312Y135616D01*
X13310Y135616D01*
X13309Y135618D01*
X13224Y135651D01*
X1000Y135651D01*
X998Y135650D01*
X996Y135651D01*
X953Y135631D01*
X909Y135613D01*
X909Y135611D01*
X907Y135610D01*
X874Y135525D01*
X874Y123301D01*
X875Y123299D01*
X874Y123297D01*
X894Y123254D01*
X912Y123210D01*
X914Y123210D01*
X915Y123208D01*
X1000Y123175D01*
X13224Y123175D01*
X13226Y123176D01*
G37*
G36*
X-998Y123176D02*
X-998Y123176D01*
X-996Y123175D01*
X-953Y123195D01*
X-909Y123213D01*
X-909Y123215D01*
X-907Y123216D01*
X-874Y123301D01*
X-874Y135525D01*
X-875Y135527D01*
X-874Y135529D01*
X-894Y135572D01*
X-912Y135616D01*
X-914Y135616D01*
X-915Y135618D01*
X-1000Y135651D01*
X-13224Y135651D01*
X-13226Y135650D01*
X-13228Y135651D01*
X-13271Y135631D01*
X-13315Y135613D01*
X-13315Y135611D01*
X-13317Y135610D01*
X-13350Y135525D01*
X-13350Y123301D01*
X-13349Y123299D01*
X-13350Y123297D01*
X-13330Y123254D01*
X-13312Y123210D01*
X-13310Y123210D01*
X-13309Y123208D01*
X-13224Y123175D01*
X-1000Y123175D01*
X-998Y123176D01*
G37*
G36*
X27450Y123176D02*
X27450Y123176D01*
X27452Y123175D01*
X27495Y123195D01*
X27539Y123213D01*
X27539Y123215D01*
X27541Y123216D01*
X27574Y123301D01*
X27574Y135525D01*
X27573Y135527D01*
X27574Y135529D01*
X27554Y135572D01*
X27536Y135616D01*
X27534Y135616D01*
X27533Y135618D01*
X27448Y135651D01*
X15224Y135651D01*
X15222Y135650D01*
X15220Y135651D01*
X15177Y135631D01*
X15133Y135613D01*
X15133Y135611D01*
X15131Y135610D01*
X15098Y135525D01*
X15098Y123301D01*
X15099Y123299D01*
X15098Y123297D01*
X15118Y123254D01*
X15136Y123210D01*
X15138Y123210D01*
X15139Y123208D01*
X15224Y123175D01*
X27448Y123175D01*
X27450Y123176D01*
G37*
G36*
X-998Y108952D02*
X-998Y108952D01*
X-996Y108951D01*
X-953Y108971D01*
X-909Y108989D01*
X-909Y108991D01*
X-907Y108992D01*
X-874Y109077D01*
X-874Y121301D01*
X-875Y121303D01*
X-874Y121305D01*
X-894Y121348D01*
X-912Y121392D01*
X-914Y121392D01*
X-915Y121394D01*
X-1000Y121427D01*
X-13224Y121427D01*
X-13226Y121426D01*
X-13228Y121427D01*
X-13271Y121407D01*
X-13315Y121389D01*
X-13315Y121387D01*
X-13317Y121386D01*
X-13350Y121301D01*
X-13350Y109077D01*
X-13349Y109075D01*
X-13350Y109073D01*
X-13330Y109030D01*
X-13312Y108986D01*
X-13310Y108986D01*
X-13309Y108984D01*
X-13224Y108951D01*
X-1000Y108951D01*
X-998Y108952D01*
G37*
G36*
X13226Y108952D02*
X13226Y108952D01*
X13228Y108951D01*
X13271Y108971D01*
X13315Y108989D01*
X13315Y108991D01*
X13317Y108992D01*
X13350Y109077D01*
X13350Y121301D01*
X13349Y121303D01*
X13350Y121305D01*
X13330Y121348D01*
X13312Y121392D01*
X13310Y121392D01*
X13309Y121394D01*
X13224Y121427D01*
X1000Y121427D01*
X998Y121426D01*
X996Y121427D01*
X953Y121407D01*
X909Y121389D01*
X909Y121387D01*
X907Y121386D01*
X874Y121301D01*
X874Y109077D01*
X875Y109075D01*
X874Y109073D01*
X894Y109030D01*
X912Y108986D01*
X914Y108986D01*
X915Y108984D01*
X1000Y108951D01*
X13224Y108951D01*
X13226Y108952D01*
G37*
G36*
X27450Y108952D02*
X27450Y108952D01*
X27452Y108951D01*
X27495Y108971D01*
X27539Y108989D01*
X27539Y108991D01*
X27541Y108992D01*
X27574Y109077D01*
X27574Y121301D01*
X27573Y121303D01*
X27574Y121305D01*
X27554Y121348D01*
X27536Y121392D01*
X27534Y121392D01*
X27533Y121394D01*
X27448Y121427D01*
X15224Y121427D01*
X15222Y121426D01*
X15220Y121427D01*
X15177Y121407D01*
X15133Y121389D01*
X15133Y121387D01*
X15131Y121386D01*
X15098Y121301D01*
X15098Y109077D01*
X15099Y109075D01*
X15098Y109073D01*
X15118Y109030D01*
X15136Y108986D01*
X15138Y108986D01*
X15139Y108984D01*
X15224Y108951D01*
X27448Y108951D01*
X27450Y108952D01*
G37*
G36*
X-15222Y108952D02*
X-15222Y108952D01*
X-15220Y108951D01*
X-15177Y108971D01*
X-15133Y108989D01*
X-15133Y108991D01*
X-15131Y108992D01*
X-15098Y109077D01*
X-15098Y121301D01*
X-15099Y121303D01*
X-15098Y121305D01*
X-15118Y121348D01*
X-15136Y121392D01*
X-15138Y121392D01*
X-15139Y121394D01*
X-15224Y121427D01*
X-27448Y121427D01*
X-27450Y121426D01*
X-27452Y121427D01*
X-27495Y121407D01*
X-27539Y121389D01*
X-27539Y121387D01*
X-27541Y121386D01*
X-27574Y121301D01*
X-27574Y109077D01*
X-27573Y109075D01*
X-27574Y109073D01*
X-27554Y109030D01*
X-27536Y108986D01*
X-27534Y108986D01*
X-27533Y108984D01*
X-27448Y108951D01*
X-15224Y108951D01*
X-15222Y108952D01*
G37*
D10*
X61913Y113413D03*
X61913Y125413D03*
X61913Y137412D03*
D11*
X-70875Y204325D03*
X-70875Y187325D03*
D12*
X-38663Y53975D03*
X-21663Y53975D03*
D11*
X85725Y140263D03*
X85725Y123263D03*
X53413Y166688D03*
X70413Y166688D03*
X53413Y157163D03*
X70413Y157163D03*
D12*
X-52388Y145025D03*
X-52388Y128025D03*
D13*
X52413Y193675D03*
X71413Y193675D03*
X52413Y179388D03*
X71413Y179388D03*
D14*
X-65088Y146025D03*
X-65088Y127025D03*
D12*
X41275Y213750D03*
X41275Y230750D03*
X-77788Y145025D03*
X-77788Y128025D03*
D15*
X-96838Y152113D03*
X-96838Y124113D03*
D16*
X33800Y164032D03*
X33800Y159031D03*
X33800Y154029D03*
X33800Y149028D03*
X33800Y144027D03*
X33800Y139026D03*
X33800Y134024D03*
X33800Y129023D03*
X33800Y124022D03*
X33800Y119021D03*
X33800Y114019D03*
X33800Y109018D03*
D17*
X27507Y102725D03*
X22506Y102725D03*
X17504Y102725D03*
X12503Y102725D03*
X7502Y102725D03*
X2501Y102725D03*
X-2501Y102725D03*
X-7502Y102725D03*
X-12503Y102725D03*
X-17504Y102725D03*
X-22506Y102725D03*
X-27507Y102725D03*
D16*
X-33800Y109018D03*
X-33800Y114019D03*
X-33800Y119021D03*
X-33800Y124022D03*
X-33800Y129023D03*
X-33800Y134024D03*
X-33800Y139026D03*
X-33800Y144027D03*
X-33800Y149028D03*
X-33800Y154029D03*
X-33800Y159031D03*
X-33800Y164032D03*
D17*
X-27507Y170325D03*
X-22506Y170325D03*
X-17504Y170325D03*
X-12503Y170325D03*
X-7502Y170325D03*
X-2501Y170325D03*
X2501Y170325D03*
X7502Y170325D03*
X12503Y170325D03*
X17504Y170325D03*
X22506Y170325D03*
X27507Y170325D03*
M02*
